<svg width="18" height="17" viewBox="0 0 18 17" fill="none" xmlns="http://www.w3.org/2000/svg">
<path d="M17.1892 12.0598L16.0592 10.1798C15.8092 9.7698 15.5892 8.9798 15.5892 8.4998V6.6298C15.5892 2.9998 12.6392 0.0498047 9.01923 0.0498047C5.38923 0.0598047 2.43923 2.9998 2.43923 6.6298V8.4898C2.43923 8.9698 2.21923 9.7598 1.97923 10.1698L0.849226 12.0498C0.419226 12.7798 0.319226 13.6098 0.589226 14.3298C0.859226 15.0598 1.46923 15.6398 2.26923 15.8998C3.34923 16.2598 4.43923 16.5198 5.54923 16.7098C5.65923 16.7298 5.76923 16.7398 5.87923 16.7598C6.01923 16.7798 6.16923 16.7998 6.31923 16.8198C6.57923 16.8598 6.83923 16.8898 7.10923 16.9098C7.73923 16.9698 8.37923 16.9998 9.01923 16.9998C9.64923 16.9998 10.2792 16.9698 10.8992 16.9098C11.1292 16.8898 11.3592 16.8698 11.5792 16.8398C11.7592 16.8198 11.9392 16.7998 12.1192 16.7698C12.2292 16.7598 12.3392 16.7398 12.4492 16.7198C13.5692 16.5398 14.6792 16.2598 15.7592 15.8998C16.5292 15.6398 17.1192 15.0598 17.3992 14.3198C17.6792 13.5698 17.5992 12.7498 17.1892 12.0598ZM9.74923 7.9998C9.74923 8.4198 9.40923 8.7598 8.98923 8.7598C8.56923 8.7598 8.22923 8.4198 8.22923 7.9998V4.89981C8.22923 4.4798 8.56923 4.1398 8.98923 4.1398C9.40923 4.1398 9.74923 4.4798 9.74923 4.89981V7.9998Z" fill="#FFBB54"/>
</svg>
