<svg width="22" height="22" viewBox="0 0 22 22" fill="none" xmlns="http://www.w3.org/2000/svg">
<path d="M16.783 15.3091L21.2444 19.7695L19.7705 21.2434L15.3101 16.782C13.6504 18.1124 11.5861 18.836 9.459 18.833C4.28399 18.833 0.0839844 14.633 0.0839844 9.45801C0.0839844 4.28301 4.28399 0.0830078 9.459 0.0830078C14.634 0.0830078 18.834 4.28301 18.834 9.45801C18.8371 11.5851 18.1134 13.6494 16.783 15.3091ZM14.6934 14.5361C16.0154 13.1766 16.7537 11.3543 16.7507 9.45801C16.7507 5.42884 13.4871 2.16634 9.459 2.16634C5.42983 2.16634 2.16732 5.42884 2.16732 9.45801C2.16732 13.4861 5.42983 16.7497 9.459 16.7497C11.3553 16.7527 13.1776 16.0144 14.5371 14.6924L14.6934 14.5361Z" fill="#C4C4C4"/>
</svg>
