<svg width="961" height="864" viewBox="0 0 961 864" fill="none" xmlns="http://www.w3.org/2000/svg">
<g clip-path="url(#clip0_258_66059)">
<path d="M911.224 0.688309C920.746 4.90656 930.184 9.43155 939.541 14.2634C938.257 23.1251 936.77 31.8473 935.08 40.43C927.683 26.9039 919.731 13.6567 911.224 0.688309Z" fill="#FFBB54"/>
<path d="M960.219 92.4037C968.663 98.2942 976.972 104.457 985.146 110.891C982.323 119.093 979.396 127.153 976.243 135.015C971.486 120.645 966.145 106.442 960.219 92.4037Z" fill="#FFBB54"/>
<path d="M974.737 480.203C976.739 489.546 978.464 498.973 979.91 508.483C973.014 512.297 966.118 515.96 959.188 519.378C964.869 506.564 970.098 493.507 974.737 480.203Z" fill="#FFBB54"/>
<path d="M935.422 566.198C935.647 575.5 935.608 584.828 935.306 594.183C927.961 596.69 920.652 599.095 913.357 601.291C921.167 589.928 928.522 578.23 935.422 566.198Z" fill="#FFBB54"/>
<path d="M881.988 642.367C880.546 651.281 878.853 660.167 876.911 669.026C869.355 670.317 861.845 671.458 854.38 672.45C863.964 662.824 873.167 652.796 881.988 642.367Z" fill="#FFBB54"/>
<path d="M816.718 706.753C813.764 714.965 810.609 723.116 807.199 731.166C799.622 731.241 792.107 731.277 784.657 731.119C795.646 723.455 806.321 715.293 816.718 706.753Z" fill="#FFBB54"/>
<path d="M742.128 757.898C737.885 765.135 733.462 772.263 728.857 779.282C721.434 778.278 714.077 777.205 706.786 776.064C718.766 770.467 730.584 764.452 742.128 757.898Z" fill="#FFBB54"/>
<path d="M660.881 794.853C655.629 800.908 650.226 806.819 644.674 812.585C637.523 810.647 630.448 808.637 623.447 806.557C636.045 803.146 648.523 799.245 660.881 794.853Z" fill="#FFBB54"/>
<path d="M575.657 817.161C569.694 821.888 563.598 826.422 557.417 830.803C550.65 828.005 543.946 825.188 537.304 822.35C550.118 821.073 562.902 819.343 575.657 817.161Z" fill="#FFBB54"/>
<path d="M489.071 824.834C482.701 828.121 476.264 831.219 469.759 834.127C463.411 830.667 457.139 827.161 450.918 823.648C463.589 824.509 476.307 824.904 489.071 824.834Z" fill="#FFBB54"/>
<path d="M403.604 818.289C397.151 820.111 390.678 821.738 384.185 823.171C378.29 819.151 372.473 815.085 366.684 811.039C378.874 813.883 391.185 816.34 403.604 818.289Z" fill="#FFBB54"/>
<path d="M321.518 798.329C315.299 798.728 309.107 798.923 302.941 798.915C297.527 794.41 292.147 789.912 286.756 785.471C298.162 790.151 309.749 794.437 321.518 798.329Z" fill="#FFBB54"/>
<path d="M244.821 766.056C239.129 765.103 233.495 764.002 227.965 762.638C222.944 757.819 217.96 752.993 213.014 748.16C223.362 754.506 233.988 760.456 244.821 766.056Z" fill="#FFBB54"/>
<path d="M175.226 722.821C170.323 720.67 165.541 718.346 160.881 715.848C156.285 710.715 151.642 705.64 147.029 700.554C156.127 708.302 165.551 715.712 175.226 722.821Z" fill="#FFBB54"/>
<path d="M114.118 670.164C110.226 666.995 106.489 663.682 102.942 660.216C98.6556 654.881 94.3544 649.557 90.0385 644.246C97.7489 653.136 105.81 661.753 114.118 670.164Z" fill="#FFBB54"/>
<path d="M841.165 -20.0251C850.774 -17.3159 860.347 -14.3034 869.882 -10.9877C869.228 -2.57609 868.388 5.71365 867.361 13.8816C859.108 2.25615 850.328 -9.02784 841.165 -20.0251Z" fill="#FFBB54"/>
<path d="M896.135 58.9298C904.961 63.3939 913.688 68.1648 922.335 73.1729C920.253 81.0701 918 88.8153 915.575 96.4086C909.627 83.6869 903.147 71.194 896.135 58.9298Z" fill="#FFBB54"/>
<path d="M935.478 145.11C943.201 151.105 950.779 157.355 958.21 163.858C954.805 171.012 951.291 178.01 947.626 184.819C944.108 171.466 940.059 158.23 935.478 145.11Z" fill="#FFBB54"/>
<path d="M958.171 235.463C964.547 242.689 970.682 250.186 976.672 257.845C972.132 264.082 967.515 270.15 962.788 276.021C961.796 262.481 960.257 248.961 958.171 235.463Z" fill="#FFBB54"/>
<path d="M963.858 326.875C968.639 335.061 973.24 343.395 977.582 351.905C972.096 357.081 966.578 362.109 960.992 366.93C962.473 353.655 963.429 340.303 963.858 326.875Z" fill="#FFBB54"/>
<path d="M952.823 416.328C955.946 425.085 958.823 433.958 961.454 442.947C955.255 447.008 949.034 450.893 942.791 454.601C946.627 442.007 949.971 429.25 952.823 416.328Z" fill="#FFBB54"/>
<path d="M925.93 501.013C927.31 510.001 928.463 519.045 929.388 528.146C922.678 531.045 915.985 533.806 909.282 536.347C915.339 524.843 920.813 513.014 925.93 501.013Z" fill="#FFBB54"/>
<path d="M884.547 578.412C884.274 587.272 883.75 596.141 882.973 605.019C875.952 606.737 868.975 608.372 862.023 609.809C869.934 599.665 877.442 589.2 884.547 578.412Z" fill="#FFBB54"/>
<path d="M830.44 646.386C828.642 654.808 826.526 663.176 824.194 671.493C817.054 672.12 809.966 672.631 802.93 673.027C812.428 664.519 821.632 655.648 830.44 646.386Z" fill="#FFBB54"/>
<path d="M765.694 703.203C762.461 710.881 758.999 718.464 755.308 725.95C748.205 725.537 741.159 725.103 734.189 724.463C744.956 717.807 755.458 710.72 765.694 703.203Z" fill="#FFBB54"/>
<path d="M692.588 747.58C688.147 754.254 683.505 760.788 678.753 767.24C671.817 765.897 664.947 764.492 658.143 763.027C669.786 758.282 681.268 753.133 692.588 747.58Z" fill="#FFBB54"/>
<path d="M613.52 778.66C608.171 784.155 602.643 789.46 597.04 794.67C590.37 792.5 583.751 790.322 577.211 788.057C589.414 785.383 601.517 782.25 613.52 778.66Z" fill="#FFBB54"/>
<path d="M530.918 796.022C524.94 800.194 518.844 804.165 512.681 807.987C506.345 805.091 500.038 802.232 493.805 799.312C506.199 798.677 518.57 797.58 530.918 796.022Z" fill="#FFBB54"/>
<path d="M447.154 799.651C440.857 802.419 434.488 804.964 428.09 807.357C422.105 803.886 416.161 800.416 410.258 796.945C422.507 798.27 434.806 799.172 447.154 799.651Z" fill="#FFBB54"/>
<path d="M364.491 789.889C358.169 791.187 351.854 792.355 345.534 793.305C339.912 789.347 334.321 785.394 328.76 781.445C340.548 784.688 352.48 787.448 364.491 789.889Z" fill="#FFBB54"/>
<path d="M285.014 767.406C278.993 767.371 273.013 767.127 267.077 766.675C261.804 762.312 256.529 757.982 251.314 753.613C262.361 758.608 273.595 763.205 285.014 767.406Z" fill="#FFBB54"/>
<path d="M210.605 733.15C205.159 731.811 199.8 730.288 194.528 728.581C189.579 723.878 184.633 719.184 179.69 714.502C189.76 721.068 200.086 727.271 210.605 733.15Z" fill="#FFBB54"/>
<path d="M142.905 688.294C138.292 685.791 133.79 683.152 129.435 680.346C124.771 675.348 120.097 670.357 115.415 665.373C124.305 673.31 133.494 680.933 142.905 688.294Z" fill="#FFBB54"/>
<path d="M822.269 30.7985C835.099 34.734 847.828 39.3247 860.445 44.4494C858.383 55.1382 855.987 65.5522 853.259 75.6915C843.768 60.1639 833.422 45.1765 822.269 30.7985Z" fill="#FFBB54"/>
<path d="M869.097 103.718C880.799 110.033 892.339 116.85 903.598 124.266C899.767 134.096 895.653 143.605 891.256 152.793C884.791 136.033 877.393 119.649 869.097 103.718Z" fill="#FFBB54"/>
<path d="M901.641 182.806C911.827 191.121 921.678 199.978 931.219 209.269C925.812 217.992 920.157 226.352 914.353 234.382C911.12 216.956 906.876 199.735 901.641 182.806Z" fill="#FFBB54"/>
<path d="M919.022 265.37C927.303 275.356 935.193 285.744 942.692 296.537C935.925 303.939 929.038 311.002 922.032 317.725C922.037 300.229 921.032 282.748 919.022 265.37Z" fill="#FFBB54"/>
<path d="M920.945 348.664C927.082 359.862 932.772 371.366 938.014 383.176C930.185 389.159 922.296 394.802 914.346 400.104C917.535 383.097 919.738 365.922 920.945 348.664Z" fill="#FFBB54"/>
<path d="M907.657 430.018C911.496 441.957 914.836 454.115 917.746 466.432C909.106 470.897 900.51 475.144 891.865 478.948C898.065 462.954 903.337 446.616 907.657 430.018Z" fill="#FFBB54"/>
<path d="M879.904 506.927C881.441 519.114 882.413 531.42 882.949 543.785C873.79 546.778 864.679 549.482 855.616 551.898C864.576 537.39 872.686 522.374 879.904 506.927Z" fill="#FFBB54"/>
<path d="M838.867 577.14C838.125 589.114 836.872 601.077 835.109 613.031C825.657 614.551 816.292 615.837 807.013 616.889C818.371 604.25 829.006 590.979 838.867 577.14Z" fill="#FFBB54"/>
<path d="M786.091 638.703C783.196 650.013 779.849 661.218 776.051 672.319C766.517 672.438 757.095 672.393 747.785 672.186C761.156 661.733 773.944 650.555 786.091 638.703Z" fill="#FFBB54"/>
<path d="M723.395 690.013C718.626 700.275 713.439 710.337 707.835 720.199C698.398 719.071 689.08 717.808 679.884 716.41C694.843 708.387 709.368 699.575 723.395 690.013Z" fill="#FFBB54"/>
<path d="M652.795 729.843C646.455 738.725 639.696 747.296 632.68 755.637C623.474 753.367 614.384 751.012 605.41 748.574C621.523 743.17 637.34 736.917 652.795 729.843Z" fill="#FFBB54"/>
<path d="M576.427 757.336C568.837 764.535 560.992 771.444 552.885 777.983C543.997 774.721 535.215 771.41 526.538 768.051C543.341 765.346 559.993 761.77 576.427 757.336Z" fill="#FFBB54"/>
<path d="M496.474 771.994C488.084 777.38 479.471 782.353 470.729 786.99C462.22 782.863 453.794 778.721 445.449 774.564C462.489 774.554 479.497 773.698 496.474 771.994Z" fill="#FFBB54"/>
<path d="M415.112 773.682C406.303 777.089 397.416 780.115 388.45 782.76C380.326 777.913 372.27 773.057 364.281 768.191C381.125 770.834 398.069 772.665 415.112 773.682Z" fill="#FFBB54"/>
<path d="M334.44 762.588C325.663 764.021 316.899 765.07 308.148 765.735C300.41 760.254 292.715 754.776 285.063 749.301C301.302 754.492 317.775 758.976 334.44 762.588Z" fill="#FFBB54"/>
<path d="M256.44 739.188C248.111 738.717 239.886 737.863 231.763 736.626C224.399 730.581 217.041 724.553 209.688 718.543C224.919 726.181 240.545 733.038 256.44 739.188Z" fill="#FFBB54"/>
<path d="M182.95 704.226C175.52 701.99 168.209 699.38 161.044 696.406C154.025 689.844 146.971 683.311 139.881 676.809C153.806 686.595 168.162 695.734 182.95 704.226Z" fill="#FFBB54"/>
<path d="M115.615 658.669C109.336 654.89 103.287 650.741 97.5014 646.243C90.7654 639.217 84.0226 632.164 77.1645 625.184C89.4696 636.909 102.286 648.07 115.615 658.669Z" fill="#FFBB54"/>
<path d="M749.066 16.845C765.172 18.8914 781.145 21.8625 796.906 25.7436C795.283 38.3925 793.126 50.6476 790.436 62.509C777.724 46.3442 763.901 31.0861 749.066 16.845Z" fill="#FFBB54"/>
<path d="M800.619 75.9801C815.891 81.0936 830.858 87.0744 845.446 93.8934C841.7 105.652 837.527 116.953 832.926 127.796C823.393 109.782 812.597 92.4673 800.619 75.9801Z" fill="#FFBB54"/>
<path d="M840.46 142.73C854.302 150.659 867.696 159.344 880.581 168.745C874.949 179.328 868.98 189.404 862.674 198.972C856.616 179.719 849.192 160.924 840.46 142.73Z" fill="#FFBB54"/>
<path d="M867.324 214.875C879.247 225.2 890.589 236.179 901.297 247.76C894.028 256.932 886.525 265.578 878.789 273.696C876.399 253.834 872.567 234.176 867.324 214.875Z" fill="#FFBB54"/>
<path d="M880.43 290.045C890.02 302.305 898.929 315.083 907.118 328.322C898.477 335.9 889.725 342.976 880.864 349.549C882.166 329.728 882.021 309.84 880.43 290.045Z" fill="#FFBB54"/>
<path d="M879.469 365.829C886.432 379.486 892.65 393.51 898.098 407.84C888.428 413.777 878.696 419.189 868.968 424.146C873.891 404.988 877.401 385.496 879.469 365.829Z" fill="#FFBB54"/>
<path d="M864.613 439.845C868.757 454.327 872.15 469.015 874.78 483.849C864.348 488.083 853.94 491.829 843.618 495.195C851.931 477.269 858.948 458.772 864.613 439.845Z" fill="#FFBB54"/>
<path d="M836.463 509.851C837.794 524.557 838.355 539.323 838.143 554.091C827.229 556.667 816.402 558.774 805.715 560.603C817.148 544.431 827.423 527.471 836.463 509.851Z" fill="#FFBB54"/>
<path d="M796.01 573.783C794.579 588.095 792.422 602.356 789.538 616.566C778.375 617.49 767.367 618.133 756.514 618.494C770.703 604.527 783.9 589.587 796.01 573.783Z" fill="#FFBB54"/>
<path d="M744.562 629.837C740.58 643.286 735.929 656.54 730.609 669.599C719.412 669.072 708.388 668.299 697.537 667.279C714.032 655.866 729.743 643.357 744.562 629.837Z" fill="#FFBB54"/>
<path d="M683.697 676.482C677.419 688.569 670.595 700.357 663.225 711.848C652.146 709.98 641.256 707.861 630.522 705.672C648.857 697.1 666.619 687.35 683.697 676.482Z" fill="#FFBB54"/>
<path d="M615.194 712.489C607.05 722.837 598.457 732.81 589.402 742.319C578.57 739.189 567.889 735.98 557.358 732.691C577.041 727.183 596.358 720.436 615.194 712.489Z" fill="#FFBB54"/>
<path d="M540.961 736.957C531.457 745.262 521.536 753.077 511.238 760.373C500.694 756.221 490.314 751.938 480.027 747.682C500.541 745.389 520.893 741.807 540.961 736.957Z" fill="#FFBB54"/>
<path d="M462.994 749.301C452.561 755.311 441.832 760.789 430.847 765.716C420.659 760.577 410.557 755.44 400.539 750.305C421.356 751.249 442.214 750.914 462.994 749.301Z" fill="#FFBB54"/>
<path d="M383.306 749.238C372.476 752.865 361.461 755.911 350.308 758.364C340.459 752.396 330.686 746.4 320.902 740.51C341.506 744.671 362.346 747.585 383.306 749.238Z" fill="#FFBB54"/>
<path d="M303.894 736.785C293.179 738.013 282.403 738.632 271.62 738.639C262.101 731.904 252.581 725.204 243.061 718.537C262.96 725.811 283.273 731.904 303.894 736.785Z" fill="#FFBB54"/>
<path d="M226.69 712.243C216.584 711.144 206.555 709.437 196.657 707.129C187.402 699.73 178.178 692.277 168.883 684.885C187.601 695.122 206.903 704.257 226.69 712.243Z" fill="#FFBB54"/>
<path d="M153.531 676.163C144.489 672.919 135.675 669.074 127.147 664.656C118.203 656.525 109.16 648.44 100.102 640.295C117.181 653.303 135.023 665.28 153.531 676.163Z" fill="#FFBB54"/>
<path d="M733.369 61.9719C750.684 64.6312 767.799 68.4475 784.6 73.3951C781.486 85.6176 777.709 97.6628 773.287 109.477C761.25 92.6167 747.903 76.7326 733.369 61.9719Z" fill="#FFBB54"/>
<path d="M777.831 115.996C794.147 121.977 810.051 129.023 825.44 137.089C820.346 148.218 814.662 159.068 808.412 169.593C799.667 150.937 789.441 133.014 777.831 115.996Z" fill="#FFBB54"/>
<path d="M811.687 176.789C826.374 185.776 840.465 195.702 853.872 206.504C847.032 216.3 839.695 225.74 831.89 234.786C826.744 214.934 819.987 195.537 811.687 176.789Z" fill="#FFBB54"/>
<path d="M833.782 242.429C846.295 253.99 858.062 266.332 869.014 279.382C860.495 287.88 851.795 295.75 842.914 302.992C841.554 282.583 838.499 262.326 833.782 242.429Z" fill="#FFBB54"/>
<path d="M843.36 310.843C853.269 324.445 862.321 338.653 870.461 353.384C860.738 360.215 850.911 366.405 841.099 372.073C843.508 351.755 844.264 331.277 843.36 310.843Z" fill="#FFBB54"/>
<path d="M840.076 379.887C847.067 394.937 853.137 410.399 858.252 426.187C847.619 431.301 837.02 435.869 826.455 439.891C832.641 420.296 837.197 400.227 840.076 379.887Z" fill="#FFBB54"/>
<path d="M823.992 447.432C827.899 463.289 830.859 479.366 832.859 495.578C821.596 499.013 810.416 501.891 799.389 504.383C809.109 486.09 817.336 467.044 823.992 447.432Z" fill="#FFBB54"/>
<path d="M795.555 511.417C796.361 527.433 796.222 543.483 795.14 559.486C783.48 561.256 771.986 562.631 760.658 563.611C773.665 547.171 785.334 529.717 795.555 511.417Z" fill="#FFBB54"/>
<path d="M755.559 569.935C753.341 585.478 750.244 600.884 746.284 616.079C734.436 616.292 722.784 616.16 711.33 615.829C727.23 601.69 742.017 586.346 755.559 569.935Z" fill="#FFBB54"/>
<path d="M705.107 621.253C700.128 635.742 694.334 649.94 687.754 663.778C675.886 662.544 664.217 661.119 652.746 659.504C671.129 648.079 688.632 635.293 705.107 621.253Z" fill="#FFBB54"/>
<path d="M645.567 663.866C638.177 676.792 630.053 689.285 621.236 701.283C609.45 698.806 597.875 696.096 586.457 693.352C606.861 685.001 626.619 675.145 645.567 663.866Z" fill="#FFBB54"/>
<path d="M578.509 696.528C569.11 707.437 559.111 717.813 548.558 727.609C536.953 723.914 525.496 720.164 514.187 716.361C536.068 711.284 557.563 704.656 578.509 696.528Z" fill="#FFBB54"/>
<path d="M505.67 718.255C494.781 726.816 483.425 734.766 471.655 742.067C460.253 737.322 448.957 732.566 437.768 727.799C460.594 726.207 483.284 723.017 505.67 718.255Z" fill="#FFBB54"/>
<path d="M428.902 728.345C417.078 734.335 404.928 739.654 392.508 744.279C381.325 738.57 370.195 732.882 359.119 727.213C382.324 729.181 405.64 729.56 428.902 728.345Z" fill="#FFBB54"/>
<path d="M350.121 726.373C337.945 729.697 325.583 732.295 313.102 734.155C302.128 727.542 291.153 720.967 280.178 714.428C303.194 719.983 326.561 723.974 350.121 726.373Z" fill="#FFBB54"/>
<path d="M271.271 712.203C259.31 712.839 247.322 712.731 235.377 711.882C224.595 704.405 213.765 696.959 202.885 689.545C225.148 698.613 247.994 706.183 271.271 712.203Z" fill="#FFBB54"/>
<path d="M194.285 685.961C183.084 684.036 172.03 681.348 161.198 677.916C150.595 669.577 139.906 661.247 129.13 652.926C150.093 665.365 171.859 676.401 194.285 685.961Z" fill="#FFBB54"/>
<path d="M121.05 648.043C111.11 643.737 101.509 638.691 92.3257 632.948C81.8942 623.741 71.3634 614.488 60.7333 605.189C79.8716 620.787 100.021 635.103 121.05 648.043Z" fill="#FFBB54"/>
<path d="M668.635 60.1582C686.722 59.7728 704.809 60.7464 722.744 63.071C720.264 75.2701 717.042 87.3079 713.096 99.117C699.408 84.8927 684.535 71.8595 668.635 60.1582Z" fill="#FFBB54"/>
<path d="M715.292 101.415C732.955 104.649 750.357 109.168 767.358 114.938C762.933 126.146 757.823 137.073 752.059 147.657C741.166 131.206 728.864 115.734 715.292 101.415Z" fill="#FFBB54"/>
<path d="M753.801 150.312C770.335 156.949 786.369 164.767 801.778 173.705C795.591 183.679 788.828 193.285 781.525 202.475C773.822 184.31 764.546 166.856 753.801 150.312Z" fill="#FFBB54"/>
<path d="M782.751 205.409C797.51 215.111 811.564 225.844 824.809 237.527C817.125 246.105 808.968 254.247 800.377 261.916C796.185 242.593 790.287 223.683 782.751 205.409Z" fill="#FFBB54"/>
<path d="M801.038 265.038C813.462 277.348 825.023 290.5 835.639 304.401C826.718 311.472 817.432 318.067 807.819 324.16C807.327 304.287 805.058 284.501 801.038 265.038Z" fill="#FFBB54"/>
<path d="M807.88 327.378C817.544 341.724 826.221 356.712 833.851 372.238C823.682 377.859 813.504 382.852 803.399 387.298C806.674 367.495 808.174 347.442 807.88 327.378Z" fill="#FFBB54"/>
<path d="M802.854 390.505C809.444 406.265 814.979 422.447 819.423 438.945C808.532 442.97 797.713 446.408 787.041 449.373C794.042 430.254 799.334 410.554 802.854 390.505Z" fill="#FFBB54"/>
<path d="M785.889 452.476C789.272 468.973 791.552 485.678 792.715 502.482C781.312 504.922 770.057 506.86 758.998 508.466C769.579 490.621 778.577 471.886 785.889 452.476Z" fill="#FFBB54"/>
<path d="M757.267 511.366C757.367 527.932 756.421 544.488 754.435 560.938C742.712 561.855 731.193 562.456 719.876 562.739C733.772 546.703 746.281 529.517 757.267 511.366Z" fill="#FFBB54"/>
<path d="M717.6 565.345C714.58 581.314 710.574 597.083 705.607 612.561C693.718 612.112 682.039 611.419 670.57 610.482C687.451 596.744 703.18 581.648 717.6 565.345Z" fill="#FFBB54"/>
<path d="M667.802 612.712C661.931 627.481 655.157 641.877 647.518 655.816C635.563 654.117 623.819 652.166 612.254 650.162C631.743 639.188 650.319 626.665 667.802 612.712Z" fill="#FFBB54"/>
<path d="M609.062 651.942C600.687 664.96 591.545 677.468 581.682 689.4C569.736 686.498 557.953 683.514 546.333 680.449C567.949 672.591 588.923 663.06 609.062 651.942Z" fill="#FFBB54"/>
<path d="M542.794 681.724C532.423 692.572 521.398 702.776 509.782 712.279C497.868 708.317 486.091 704.278 474.406 700.256C497.635 695.818 520.497 689.623 542.794 681.724Z" fill="#FFBB54"/>
<path d="M470.609 700.968C458.759 709.288 446.41 716.873 433.632 723.679C421.77 718.69 409.989 713.678 398.235 708.729C422.513 707.911 446.703 705.317 470.609 700.968Z" fill="#FFBB54"/>
<path d="M394.271 708.843C381.531 714.412 368.457 719.179 355.126 723.116C343.313 717.142 331.5 711.201 319.686 705.293C344.426 708.276 369.353 709.462 394.271 708.843Z" fill="#FFBB54"/>
<path d="M315.652 704.792C302.638 707.515 289.46 709.379 276.203 710.37C264.415 703.448 252.603 696.518 240.706 689.643C265.296 696.457 290.34 701.519 315.652 704.792Z" fill="#FFBB54"/>
<path d="M236.703 688.513C224.014 688.397 211.35 687.391 198.804 685.503C187.044 677.607 175.227 669.659 163.277 661.746C187.086 672.394 211.623 681.339 236.703 688.513Z" fill="#FFBB54"/>
<path d="M159.407 660.002C147.621 657.148 136.067 653.417 124.841 648.841C113.163 639.872 101.316 630.925 89.3806 621.869C111.792 636.216 135.192 648.959 159.407 660.002Z" fill="#FFBB54"/>
<path d="M654.265 98.0781C672.214 98.2171 690.122 99.7605 707.825 102.694C704.084 113.444 699.623 123.931 694.474 134.084C682.162 120.916 668.707 108.867 654.265 98.0781Z" fill="#FFBB54"/>
<path d="M695.211 134.879C712.633 138.607 729.737 143.683 746.369 150.059C740.98 159.71 734.957 168.994 728.338 177.849C718.634 162.541 707.545 148.157 695.211 134.879Z" fill="#FFBB54"/>
<path d="M728.922 178.771C745.11 185.886 760.732 194.222 775.652 203.708C768.815 212.094 761.462 220.046 753.637 227.518C746.911 210.543 738.638 194.225 728.922 178.771Z" fill="#FFBB54"/>
<path d="M754.039 228.546C768.349 238.69 781.884 249.885 794.533 262.037C786.474 269.047 778.028 275.599 769.235 281.662C765.824 263.522 760.737 245.74 754.039 228.546Z" fill="#FFBB54"/>
<path d="M769.435 282.761C781.319 295.454 792.265 308.994 802.189 323.273C793.159 328.882 783.842 334.017 774.278 338.656C774.43 319.91 772.809 301.195 769.435 282.761Z" fill="#FFBB54"/>
<path d="M774.267 339.792C783.302 354.45 791.282 369.735 798.145 385.531C788.089 389.839 778.085 393.531 768.223 396.747C771.995 377.986 774.018 358.92 774.267 339.792Z" fill="#FFBB54"/>
<path d="M767.99 397.887C773.88 413.868 778.653 430.24 782.274 446.886C771.642 449.752 761.166 452.161 750.848 454.112C758.283 435.936 764.021 417.114 767.99 397.887Z" fill="#FFBB54"/>
<path d="M750.393 455.22C752.996 471.837 754.466 488.615 754.793 505.436C743.754 506.957 732.903 508.08 722.26 508.897C733.227 491.881 742.643 473.917 750.393 455.22Z" fill="#FFBB54"/>
<path d="M721.589 509.935C720.908 526.502 719.125 543.007 716.252 559.341C704.928 559.564 693.811 559.549 682.903 559.296C697.206 543.995 710.15 527.479 721.589 509.935Z" fill="#FFBB54"/>
<path d="M682.026 560.232C678.203 576.079 673.355 591.663 667.513 606.886C655.989 605.933 644.659 604.831 633.522 603.582C650.878 590.52 667.104 576.018 682.026 560.232Z" fill="#FFBB54"/>
<path d="M632.458 604.38C625.771 618.892 618.171 632.967 609.705 646.52C598.027 644.491 586.512 642.373 575.159 640.166C595.206 629.83 614.371 617.86 632.458 604.38Z" fill="#FFBB54"/>
<path d="M573.93 640.797C564.788 653.439 554.86 665.494 544.205 676.891C532.398 673.812 520.703 670.724 509.119 667.629C531.399 660.422 553.072 651.45 573.93 640.797Z" fill="#FFBB54"/>
<path d="M507.755 668.068C496.662 678.415 484.914 688.037 472.584 696.874C460.645 692.821 448.762 688.784 436.934 684.764C460.937 681.055 484.617 675.473 507.755 668.068Z" fill="#FFBB54"/>
<path d="M435.468 684.989C422.957 692.671 409.972 699.551 396.592 705.588C384.512 700.555 372.427 695.558 360.337 690.598C385.483 690.633 410.599 688.758 435.468 684.989Z" fill="#FFBB54"/>
<path d="M358.801 690.595C345.499 695.421 331.896 699.372 318.081 702.422C305.851 696.393 293.561 690.394 281.21 684.426C306.882 688.404 332.817 690.466 358.801 690.595Z" fill="#FFBB54"/>
<path d="M279.647 684.178C266.177 686.039 252.599 686.99 239.004 687.025C226.624 679.964 214.143 672.893 201.561 665.812C227.097 673.858 253.197 679.996 279.647 684.178Z" fill="#FFBB54"/>
<path d="M200.005 665.323C186.994 664.251 174.078 662.253 161.354 659.344C148.877 651.13 136.248 642.893 123.466 634.633C148.201 646.699 173.781 656.956 200.005 665.323Z" fill="#FFBB54"/>
<path d="M121.962 633.896C110.004 630.021 98.3595 625.241 87.1297 619.597C74.5774 610.198 61.8807 600.686 49.0397 591.061C72.2663 607.101 96.639 621.418 121.962 633.896Z" fill="#FFBB54"/>
<path d="M597.498 105.146C614.087 102.408 630.862 100.974 647.671 100.858C644.621 110.37 640.925 119.664 636.609 128.674C624.267 119.732 611.183 111.861 597.498 105.146Z" fill="#FFBB54"/>
<path d="M638.762 130.254C655.426 130.957 672.009 132.955 688.359 136.229C683.887 144.789 678.84 153.037 673.254 160.917C662.683 149.7 651.141 139.439 638.762 130.254Z" fill="#FFBB54"/>
<path d="M675.095 162.893C691.141 166.974 706.853 172.265 722.095 178.722C716.379 186.209 710.18 193.315 703.538 199.995C695.196 186.794 685.677 174.375 675.095 162.893Z" fill="#FFBB54"/>
<path d="M704.987 202.323C719.76 209.536 733.97 217.846 747.497 227.184C740.728 233.526 733.575 239.446 726.079 244.91C720.379 230.092 713.318 215.835 704.987 202.323Z" fill="#FFBB54"/>
<path d="M727.069 247.518C739.968 257.516 752.116 268.449 763.413 280.227C755.767 285.381 747.845 290.111 739.682 294.397C736.939 278.411 732.716 262.717 727.069 247.518Z" fill="#FFBB54"/>
<path d="M740.15 297.218C750.668 309.534 760.292 322.586 768.95 336.275C760.366 340.355 751.825 343.905 743.387 346.984C743.856 330.328 742.773 313.667 740.15 297.218Z" fill="#FFBB54"/>
<path d="M743.287 349.93C751.034 364 757.796 378.591 763.523 393.6C754.395 396.512 745.37 398.952 736.509 401.022C740.329 384.233 742.598 367.13 743.287 349.93Z" fill="#FFBB54"/>
<path d="M735.817 403.997C740.541 419.194 744.231 434.696 746.86 450.395C737.299 452.171 727.905 453.62 718.678 454.743C725.912 438.378 731.648 421.393 735.817 403.997Z" fill="#FFBB54"/>
<path d="M717.38 457.647C718.974 473.314 719.523 489.072 719.025 504.816C709.118 505.551 699.394 506.048 689.852 506.309C700.432 490.922 709.644 474.639 717.38 457.647Z" fill="#FFBB54"/>
<path d="M687.955 509.04C686.455 524.525 683.932 539.895 680.401 555.05C670.201 554.821 660.174 554.431 650.321 553.881C664.118 540.031 676.708 525.029 687.955 509.04Z" fill="#FFBB54"/>
<path d="M647.851 556.34C643.384 571.006 637.987 585.373 631.693 599.355C621.225 598.21 610.898 596.981 600.713 595.666C617.48 583.876 633.246 570.723 647.851 556.34Z" fill="#FFBB54"/>
<path d="M597.715 597.76C590.574 611.022 582.624 623.832 573.909 636.119C563.168 634.077 552.524 632.03 541.978 629.977C561.38 620.734 580.018 609.961 597.715 597.76Z" fill="#FFBB54"/>
<path d="M538.509 631.616C529.104 642.972 519.021 653.749 508.316 663.888C497.283 660.991 486.297 658.12 475.356 655.275C496.98 649.019 518.093 641.109 538.509 631.616Z" fill="#FFBB54"/>
<path d="M471.501 656.375C460.335 665.433 448.623 673.797 436.431 681.419C425.082 677.657 413.73 673.924 402.374 670.219C425.726 667.331 448.833 662.704 471.501 656.375Z" fill="#FFBB54"/>
<path d="M398.216 670.717C385.831 677.169 373.056 682.84 359.966 687.699C348.297 682.997 336.584 678.309 324.776 673.709C349.293 674.51 373.839 673.51 398.216 670.717Z" fill="#FFBB54"/>
<path d="M320.421 673.549C307.405 677.193 294.174 680.009 280.805 681.98C268.816 676.271 256.709 670.616 244.515 664.908C269.573 669.608 294.941 672.496 320.421 673.549Z" fill="#FFBB54"/>
<path d="M240.073 664.059C227.042 664.834 213.975 664.746 200.959 663.795C188.67 657.002 176.251 650.165 163.702 643.283C188.627 652.022 214.15 658.965 240.073 664.059Z" fill="#FFBB54"/>
<path d="M159.291 641.72C146.844 639.669 134.558 636.744 122.525 632.968C110.021 624.935 97.3241 616.885 84.5443 608.627C108.626 621.448 133.606 632.508 159.291 641.72Z" fill="#FFBB54"/>
<path d="M584.759 134.916C599.636 133.031 614.629 132.237 629.618 132.543C625.975 139.699 621.845 146.597 617.256 153.188C606.949 146.208 596.08 140.096 584.759 134.916Z" fill="#FFBB54"/>
<path d="M621.851 156.385C636.674 157.608 651.386 159.908 665.871 163.266C661.231 169.524 656.176 175.463 650.74 181.043C641.828 172.017 632.164 163.768 621.851 156.385Z" fill="#FFBB54"/>
<path d="M654.7 185.162C668.843 189.403 682.664 194.65 696.055 200.863C690.566 206.175 684.751 211.137 678.643 215.722C671.562 204.861 663.551 194.635 654.7 185.162Z" fill="#FFBB54"/>
<path d="M681.77 220.669C694.636 227.713 706.997 235.641 718.765 244.395C712.569 248.742 706.14 252.746 699.507 256.388C694.672 243.975 688.736 232.021 681.77 220.669Z" fill="#FFBB54"/>
<path d="M701.621 262.034C712.687 271.518 723.091 281.747 732.761 292.65C725.806 296.169 718.873 299.251 712.017 301.917C709.742 288.338 706.263 274.991 701.621 262.034Z" fill="#FFBB54"/>
<path d="M712.965 308.097C721.789 319.577 729.833 331.637 737.043 344.195C729.625 346.807 722.283 349.007 715.077 350.926C715.637 336.613 714.93 322.281 712.965 308.097Z" fill="#FFBB54"/>
<path d="M714.737 357.442C720.97 370.401 726.359 383.752 730.868 397.41C723.063 399.163 715.392 400.63 707.852 401.811C711.429 387.246 713.733 372.401 714.737 357.442Z" fill="#FFBB54"/>
<path d="M706.134 408.444C709.562 422.301 712.126 436.36 713.811 450.538C705.663 451.479 697.664 452.236 689.814 452.811C696.498 438.508 701.958 423.666 706.134 408.444Z" fill="#FFBB54"/>
<path d="M686.673 459.321C687.247 473.465 686.944 487.632 685.767 501.742C677.295 501.969 668.964 502.071 660.775 502.046C670.564 488.537 679.226 474.247 686.673 459.321Z" fill="#FFBB54"/>
<path d="M656.216 508.191C653.971 522.024 650.885 535.708 646.974 549.168C638.168 548.708 629.479 548.185 620.909 547.6C633.711 535.427 645.518 522.248 656.216 508.191Z" fill="#FFBB54"/>
<path d="M614.98 553.129C610.06 566.069 604.395 578.714 598.013 591.001C588.845 589.869 579.758 588.727 570.752 587.574C586.346 577.231 601.132 565.716 614.98 553.129Z" fill="#FFBB54"/>
<path d="M563.549 592.245C556.25 603.762 548.319 614.867 539.794 625.51C530.224 623.697 520.692 621.912 511.198 620.152C529.306 612.143 546.803 602.815 563.549 592.245Z" fill="#FFBB54"/>
<path d="M502.863 623.738C493.627 633.43 483.833 642.574 473.53 651.123C463.524 648.593 453.518 646.075 443.484 643.656C463.723 638.437 483.567 631.781 502.863 623.738Z" fill="#FFBB54"/>
<path d="M434.197 645.957C423.43 653.408 412.254 660.249 400.721 666.446C390.25 663.134 379.726 659.855 369.151 656.609C391.052 654.576 412.786 651.016 434.197 645.957Z" fill="#FFBB54"/>
<path d="M359.137 657.448C347.381 662.415 335.355 666.718 323.117 670.334C312.179 666.13 301.149 661.945 290.025 657.779C313.041 659.218 336.13 659.107 359.137 657.448Z" fill="#FFBB54"/>
<path d="M279.536 657.018C267.354 659.371 255.044 661.003 242.671 661.906C231.283 656.718 219.78 651.49 208.163 646.223C231.685 651.406 255.529 655.012 279.536 657.018Z" fill="#FFBB54"/>
<path d="M197.482 643.761C185.436 643.447 173.423 642.384 161.511 640.578C149.741 634.242 137.862 627.794 125.813 621.322C149.176 630.384 173.119 637.881 197.482 643.761Z" fill="#FFBB54"/>
<path d="M115.24 617.105C103.89 614.169 92.7456 610.494 81.8777 606.103C69.8242 598.495 57.6745 590.699 45.355 582.812C67.866 595.772 91.2119 607.228 115.24 617.105Z" fill="#FFBB54"/>
<path d="M534.712 147.775C546.726 144.165 558.958 141.328 571.332 139.28C568.464 144.741 565.231 150.002 561.656 155.027C552.864 151.958 543.859 149.534 534.712 147.775Z" fill="#FFBB54"/>
<path d="M570.878 158.521C583.254 157.513 595.681 157.294 608.082 157.864C604.491 162.593 600.595 167.082 596.418 171.302C588.236 166.412 579.699 162.14 570.878 158.521Z" fill="#FFBB54"/>
<path d="M604.946 176.727C617.153 178.338 629.248 180.705 641.159 183.815C636.964 187.793 632.537 191.518 627.901 194.971C620.731 188.308 613.056 182.208 604.946 176.727Z" fill="#FFBB54"/>
<path d="M635.314 202.264C646.825 206.383 658.075 211.198 669.001 216.681C664.328 219.942 659.479 222.942 654.477 225.669C648.723 217.369 642.315 209.542 635.314 202.264Z" fill="#FFBB54"/>
<path d="M660.359 234.68C670.688 241.08 680.62 248.098 690.102 255.696C684.9 258.339 679.723 260.669 674.569 262.686C670.587 252.985 665.835 243.62 660.359 234.68Z" fill="#FFBB54"/>
<path d="M678.53 273.175C687.234 281.556 695.437 290.441 703.099 299.785C697.571 301.777 692.111 303.511 686.72 304.988C684.848 294.179 682.11 283.54 678.53 273.175Z" fill="#FFBB54"/>
<path d="M688.412 316.636C695.133 326.602 701.281 336.942 706.827 347.608C701.014 349.014 695.296 350.222 689.673 351.234C690.159 339.685 689.737 328.117 688.412 316.636Z" fill="#FFBB54"/>
<path d="M688.809 363.654C693.286 374.741 697.146 386.068 700.374 397.583C694.288 398.481 688.306 399.228 682.427 399.824C685.472 387.946 687.605 375.854 688.809 363.654Z" fill="#FFBB54"/>
<path d="M678.802 412.563C680.883 424.271 682.331 436.083 683.14 447.949C676.764 448.37 670.487 448.679 664.31 448.945C670.03 437.19 674.873 425.029 678.802 412.563Z" fill="#FFBB54"/>
<path d="M657.806 461.505C657.448 473.315 656.469 485.099 654.874 496.809C648.167 496.796 641.55 496.709 635.012 496.635C643.437 485.482 651.055 473.742 657.806 461.505Z" fill="#FFBB54"/>
<path d="M625.609 508.498C622.865 519.897 619.552 531.152 615.68 542.221C608.597 541.76 601.573 541.309 594.607 540.867C605.661 530.79 616.019 519.976 625.609 508.498Z" fill="#FFBB54"/>
<path d="M582.391 551.496C577.465 562.012 572.01 572.272 566.047 582.237C558.527 581.343 551.045 580.424 543.577 579.598C557.107 571.078 570.072 561.691 582.391 551.496Z" fill="#FFBB54"/>
<path d="M528.739 588.481C521.879 597.686 514.548 606.523 506.838 614.986C498.83 613.596 490.819 612.223 482.803 610.869C498.568 604.378 513.911 596.901 528.739 588.481Z" fill="#FFBB54"/>
<path d="M465.634 617.522C457.169 625.034 448.346 632.101 439.257 638.742C430.726 636.746 422.156 634.786 413.546 632.861C431.202 628.808 448.596 623.685 465.634 617.522Z" fill="#FFBB54"/>
<path d="M394.432 636.839C384.77 642.351 374.913 647.439 364.849 651.958C355.773 649.285 346.631 646.619 337.422 643.959C356.548 642.728 375.586 640.35 394.432 636.839Z" fill="#FFBB54"/>
<path d="M316.833 644.88C306.462 648.237 296 651.058 285.448 653.342C275.851 649.815 266.143 646.347 256.359 642.805C276.457 644.679 296.65 645.372 316.833 644.88Z" fill="#FFBB54"/>
<path d="M234.842 640.379C224.235 641.432 213.646 641.91 203.134 641.901C193.046 637.437 182.854 632.927 172.559 628.369C193.069 633.567 213.865 637.577 234.842 640.379Z" fill="#FFBB54"/>
<path d="M150.718 622.376C140.454 621.097 130.264 619.289 120.189 616.96C109.703 611.4 99.1172 605.736 88.4318 599.969C108.749 608.616 129.545 616.097 150.718 622.376Z" fill="#FFBB54"/>
<path d="M522.534 168.215C531.73 165.932 541.035 164.115 550.413 162.77C547.775 165.937 544.954 168.947 541.964 171.784C535.567 170.197 529.078 169.005 522.534 168.215Z" fill="#FFBB54"/>
<path d="M556.292 176.053C565.646 175.778 575.012 175.97 584.391 176.631C581.399 179.245 578.263 181.691 574.999 183.957C568.936 180.931 562.688 178.291 556.292 176.053Z" fill="#FFBB54"/>
<path d="M588.424 191.496C597.537 193.213 606.569 195.375 615.521 197.984C612.172 200.122 608.808 202.05 605.428 203.769C600.035 199.309 594.355 195.21 588.424 191.496Z" fill="#FFBB54"/>
<path d="M617.209 214.521C625.684 218.116 633.991 222.125 642.129 226.547C638.573 228.21 635.032 229.688 631.507 230.98C627.105 225.187 622.329 219.689 617.209 214.521Z" fill="#FFBB54"/>
<path d="M640.895 244.73C648.35 250.041 655.573 255.694 662.564 261.688C658.832 262.934 655.148 264.044 651.502 264.979C648.414 258.003 644.871 251.239 640.895 244.73Z" fill="#FFBB54"/>
<path d="M657.788 281.345C663.928 288.076 669.759 295.101 675.28 302.417C671.396 303.324 667.567 304.108 663.792 304.769C662.302 296.838 660.296 289.013 657.788 281.345Z" fill="#FFBB54"/>
<path d="M666.333 323.228C670.885 331.077 675.085 339.142 678.932 347.422C674.874 348.036 670.879 348.568 666.946 349.018C667.3 340.416 667.095 331.801 666.333 323.228Z" fill="#FFBB54"/>
<path d="M665.212 368.888C667.995 377.494 670.399 386.23 672.424 395.097C668.158 395.468 663.953 395.778 659.81 396.069C662.164 387.126 663.969 378.049 665.212 368.888Z" fill="#FFBB54"/>
<path d="M653.408 416.571C654.309 425.54 654.838 434.552 654.996 443.607C650.47 443.785 645.998 443.909 641.574 444.021C646.051 435.109 650.002 425.943 653.408 416.571Z" fill="#FFBB54"/>
<path d="M630.277 464.281C629.295 473.21 627.984 482.117 626.259 490.954C621.409 490.895 616.597 490.842 611.823 490.795C618.461 482.306 624.622 473.454 630.277 464.281Z" fill="#FFBB54"/>
<path d="M595.583 509.893C592.787 518.386 589.697 526.788 586.23 535.04C580.993 534.745 575.775 534.471 570.574 534.217C579.337 526.56 587.686 518.44 595.583 509.893Z" fill="#FFBB54"/>
<path d="M549.532 551.212C545.127 558.928 540.336 566.415 535.35 573.758C529.664 573.165 523.972 572.632 518.282 572.096C529.047 565.67 539.477 558.7 549.532 551.212Z" fill="#FFBB54"/>
<path d="M492.775 586.07C486.9 592.633 480.801 598.967 474.478 605.074C468.294 604.13 462.087 603.21 455.856 602.314C468.578 597.442 480.884 592.027 492.775 586.07Z" fill="#FFBB54"/>
<path d="M426.396 612.398C419.396 617.574 412.2 622.45 404.875 627.077C398.16 625.694 391.421 624.254 384.621 622.9C398.868 620.018 412.793 616.517 426.396 612.398Z" fill="#FFBB54"/>
<path d="M351.899 628.321C344.083 631.866 336.179 635.148 328.176 638.081C320.941 636.089 313.648 634.099 306.299 632.109C321.714 631.551 336.914 630.288 351.899 628.321Z" fill="#FFBB54"/>
<path d="M271.159 632.207C262.919 634.029 254.651 635.515 246.356 636.664C238.615 633.984 230.826 631.232 222.956 628.49C239.115 630.483 255.183 631.722 271.159 632.207Z" fill="#FFBB54"/>
<path d="M186.38 622.739C178.09 622.727 169.853 622.389 161.669 621.725C153.511 618.159 145.276 614.559 136.962 610.926C153.392 615.643 169.865 619.581 186.38 622.739Z" fill="#FFBB54"/>
<path d="M100.034 598.979C92.0939 597.14 84.2825 594.996 76.5998 592.548C68.1024 588.018 59.5419 583.406 50.9183 578.711C67.1016 586.262 83.4735 593.018 100.034 598.979Z" fill="#FFBB54"/>
<path d="M477.368 184.594C482.965 182.215 488.633 180.022 494.372 178.017C492.641 179.762 490.864 181.406 489.04 182.95C485.119 183.329 481.224 183.889 477.368 184.594Z" fill="#FFBB54"/>
<path d="M509.44 182.42C515.332 181.313 521.255 180.393 527.207 179.661C525.313 181.037 523.402 182.331 521.454 183.502C517.455 182.974 513.451 182.614 509.44 182.42Z" fill="#FFBB54"/>
<path d="M541.921 187.828C547.841 188.008 553.755 188.381 559.663 188.945C557.669 190.002 555.665 190.963 553.652 191.829C549.793 190.31 545.874 188.98 541.921 187.828Z" fill="#FFBB54"/>
<path d="M573.06 201.227C578.746 202.678 584.398 204.294 589.989 206.111C587.927 206.886 585.873 207.581 583.826 208.195C580.326 205.704 576.737 203.381 573.06 201.227Z" fill="#FFBB54"/>
<path d="M600.976 222.627C606.178 225.254 611.297 228.048 616.336 231.007C614.232 231.565 612.143 232.051 610.069 232.467C607.183 229.021 604.137 225.744 600.976 222.627Z" fill="#FFBB54"/>
<path d="M623.751 251.63C628.23 255.31 632.6 259.126 636.863 263.078C634.71 263.471 632.578 263.798 630.474 264.085C628.418 259.799 626.161 255.647 623.751 251.63Z" fill="#FFBB54"/>
<path d="M639.527 287.405C643.094 291.945 646.524 296.597 649.816 301.36C647.595 301.634 645.402 301.868 643.236 302.062C642.202 297.083 640.966 292.198 639.527 287.405Z" fill="#FFBB54"/>
<path d="M646.621 328.704C649.109 333.897 651.452 339.164 653.65 344.504C651.324 344.696 649.027 344.878 646.753 345.01C646.938 339.522 646.894 334.087 646.621 328.704Z" fill="#FFBB54"/>
<path d="M643.61 373.913C644.921 379.51 646.081 385.145 647.092 390.819C644.613 390.937 642.159 391.077 639.724 391.189C641.285 385.432 642.565 379.661 643.61 373.913Z" fill="#FFBB54"/>
<path d="M629.418 421.107C629.516 426.846 629.458 432.59 629.243 438.339C626.554 438.411 623.881 438.49 621.223 438.577C624.206 432.797 626.956 426.975 629.418 421.107Z" fill="#FFBB54"/>
<path d="M603.392 468.118C602.279 473.738 600.993 479.329 599.61 484.898C596.653 484.88 593.7 484.934 590.758 484.943C595.226 479.44 599.437 473.832 603.392 468.118Z" fill="#FFBB54"/>
<path d="M565.334 512.638C563.078 517.89 560.688 523.083 558.166 528.216C554.884 528.112 551.6 528.01 548.315 527.947C554.215 522.983 559.888 517.88 565.334 512.638Z" fill="#FFBB54"/>
<path d="M515.54 552.304C512.261 556.957 508.848 561.513 505.353 565.998C501.7 565.722 498.038 565.467 494.368 565.234C501.642 561.135 508.691 556.796 515.54 552.304Z" fill="#FFBB54"/>
<path d="M454.794 584.798C450.648 588.645 446.412 592.384 442.087 596.017C438.034 595.511 433.962 595.035 429.878 594.525C438.35 591.497 446.655 588.255 454.794 584.798Z" fill="#FFBB54"/>
<path d="M384.355 607.936C379.547 610.819 374.674 613.573 369.736 616.198C365.271 615.375 360.782 614.544 356.271 613.705C365.765 612.048 375.126 610.125 384.355 607.936Z" fill="#FFBB54"/>
<path d="M305.928 619.755C300.674 621.528 295.394 623.179 290.09 624.708C285.229 623.435 280.336 622.17 275.412 620.914C285.667 620.854 295.844 620.436 305.928 619.755Z" fill="#FFBB54"/>
<path d="M221.612 618.588C216.177 619.232 210.733 619.669 205.305 620.015C200.068 618.257 194.814 616.439 189.526 614.611C200.244 616.297 210.939 617.622 221.612 618.588Z" fill="#FFBB54"/>
<path d="M133.855 603.129C128.486 602.542 123.146 601.839 117.855 600.957C112.33 598.534 106.753 596.131 101.174 593.635C112.034 597.139 122.928 600.303 133.855 603.129Z" fill="#FFBB54"/>
<path d="M463.487 195.631C466.25 194.628 469.03 193.671 471.826 192.76C470.899 193.267 469.966 193.749 469.027 194.207C467.171 194.639 465.324 195.113 463.487 195.631Z" fill="#FFBB54"/>
<path d="M494.959 190.867C497.832 190.495 500.71 190.168 503.592 189.887C502.65 190.227 501.711 190.559 500.765 190.853C498.827 190.814 496.891 190.818 494.959 190.867Z" fill="#FFBB54"/>
<path d="M527.159 194.209C530.009 194.473 532.854 194.781 535.695 195.13C534.761 195.344 533.827 195.547 532.897 195.716C530.993 195.164 529.08 194.661 527.159 194.209Z" fill="#FFBB54"/>
<path d="M558.145 206.113C560.839 206.992 563.526 207.903 566.193 208.866C565.271 208.981 564.354 209.089 563.444 209.179C561.698 208.113 559.931 207.09 558.145 206.113Z" fill="#FFBB54"/>
<path d="M585.835 226.59C588.252 228.031 590.65 229.507 593.029 231.018C592.118 231.088 591.213 231.133 590.312 231.165C588.849 229.604 587.357 228.078 585.835 226.59Z" fill="#FFBB54"/>
<path d="M608.116 255.167C610.155 257.09 612.15 259.058 614.125 261.049C613.21 261.071 612.3 261.103 611.399 261.12C610.353 259.099 609.258 257.115 608.116 255.167Z" fill="#FFBB54"/>
<path d="M622.97 290.903C624.514 293.23 626.043 295.569 627.525 297.939C626.581 297.977 625.644 297.977 624.713 298.007C624.177 295.617 623.596 293.249 622.97 290.903Z" fill="#FFBB54"/>
<path d="M628.579 332.396C629.577 334.999 630.537 337.619 631.478 340.249C630.477 340.276 629.478 340.334 628.488 340.357C628.57 337.69 628.6 335.036 628.579 332.396Z" fill="#FFBB54"/>
<path d="M623.447 377.834C623.872 380.59 624.236 383.358 624.571 386.128C623.471 386.172 622.377 386.225 621.287 386.287C622.047 383.465 622.803 380.653 623.447 377.834Z" fill="#FFBB54"/>
<path d="M606.476 425.084C606.302 427.869 606.06 430.651 605.788 433.429C604.555 433.479 603.328 433.563 602.1 433.618C603.62 430.785 605.071 427.937 606.476 425.084Z" fill="#FFBB54"/>
<path d="M577.045 471.771C576.255 474.449 575.46 477.126 574.595 479.78C573.195 479.835 571.795 479.892 570.395 479.938C572.661 477.231 574.882 474.514 577.045 471.771Z" fill="#FFBB54"/>
<path d="M535.05 515.388C533.731 517.847 532.363 520.281 530.968 522.696C529.368 522.705 527.766 522.716 526.164 522.73C529.19 520.33 532.152 517.883 535.05 515.388Z" fill="#FFBB54"/>
<path d="M480.925 553.392C479.11 555.506 477.273 557.599 475.413 559.67C473.593 559.581 471.768 559.549 469.943 559.455C473.653 557.481 477.314 555.46 480.925 553.392Z" fill="#FFBB54"/>
<path d="M415.645 583.322C413.448 585.019 411.205 586.652 408.966 588.287C406.915 588.087 404.853 587.904 402.789 587.68C407.12 586.298 411.405 584.845 415.645 583.322Z" fill="#FFBB54"/>
<path d="M340.685 602.889C338.185 604.056 335.684 605.217 333.162 606.318C330.878 605.917 328.576 605.574 326.282 605.154C331.116 604.495 335.918 603.74 340.685 602.889Z" fill="#FFBB54"/>
<path d="M257.999 610.079C255.329 610.686 252.657 611.251 249.983 611.815C247.476 611.195 244.962 610.564 242.441 609.922C247.645 610.049 252.83 610.102 257.999 610.079Z" fill="#FFBB54"/>
<path d="M169.947 603.216C167.237 603.238 164.53 603.223 161.826 603.171C159.124 602.252 156.413 601.333 153.703 600.379C159.126 601.392 164.538 602.358 169.947 603.216Z" fill="#FFBB54"/>
<path d="M79.2496 581.04C76.6247 580.449 74.0107 579.836 71.4077 579.201C68.5662 577.909 65.7009 576.64 62.8374 575.346C68.2946 577.332 73.7736 579.208 79.2496 581.04Z" fill="#FFBB54"/>
<path d="M419.029 215.979C419.257 215.853 419.481 215.724 419.706 215.598L419.456 215.686C419.314 215.784 419.171 215.882 419.029 215.979Z" fill="#FFBB54"/>
<path d="M448.064 201.012C448.307 200.936 448.551 200.866 448.794 200.792L448.549 200.837C448.387 200.894 448.227 200.952 448.064 201.012Z" fill="#FFBB54"/>
<path d="M479.938 193.969C480.186 193.95 480.436 193.929 480.686 193.917L480.452 193.928C480.281 193.942 480.109 193.953 479.938 193.969Z" fill="#FFBB54"/>
<path d="M512.715 195.756C512.959 195.801 513.205 195.821 513.448 195.869L513.227 195.859C513.057 195.824 512.887 195.792 512.715 195.756Z" fill="#FFBB54"/>
<path d="M544.22 206.826C544.442 206.926 544.675 207.003 544.899 207.099L544.693 207.075C544.537 206.988 544.375 206.913 544.22 206.826Z" fill="#FFBB54"/>
<path d="M572.137 227.129C572.334 227.271 572.539 227.4 572.735 227.544L572.535 227.52C572.41 227.382 572.268 227.26 572.137 227.129Z" fill="#FFBB54"/>
<path d="M594.157 256.068C594.324 256.243 594.478 256.43 594.643 256.606L594.444 256.586C594.351 256.413 594.267 256.232 594.157 256.068Z" fill="#FFBB54"/>
<path d="M608.098 292.529C608.224 292.734 608.325 292.954 608.451 293.16L608.242 293.154C608.188 292.945 608.15 292.735 608.098 292.529Z" fill="#FFBB54"/>
<path d="M612.038 334.89C612.098 335.125 612.175 335.353 612.241 335.586L612.011 335.594C612.014 335.359 612.012 335.123 612.038 334.89Z" fill="#FFBB54"/>
<path d="M604.435 381.118C604.459 381.357 604.457 381.601 604.479 381.841L604.217 381.863C604.302 381.619 604.375 381.37 604.435 381.118Z" fill="#FFBB54"/>
<path d="M584.209 428.828C584.188 429.069 584.113 429.303 584.096 429.545L583.789 429.576C583.928 429.325 584.074 429.078 584.209 428.828Z" fill="#FFBB54"/>
<path d="M550.831 475.413C550.745 475.641 550.648 475.865 550.561 476.093L550.198 476.123C550.408 475.884 550.621 475.652 550.831 475.413Z" fill="#FFBB54"/>
<path d="M504.331 518.156C504.183 518.35 504.054 518.558 503.922 518.764C503.781 518.758 503.639 518.791 503.496 518.783C503.77 518.571 504.052 518.365 504.331 518.156Z" fill="#FFBB54"/>
<path d="M445.339 554.345C445.173 554.521 444.98 554.672 444.812 554.85C444.647 554.852 444.481 554.856 444.317 554.848C444.664 554.691 444.992 554.494 445.339 554.345Z" fill="#FFBB54"/>
<path d="M375.065 581.383C374.869 581.529 374.661 581.657 374.442 581.765C374.254 581.756 374.067 581.716 373.877 581.721C374.277 581.62 374.672 581.502 375.065 581.383Z" fill="#FFBB54"/>
<path d="M295.246 596.904C295.007 596.956 294.794 597.092 294.558 597.145C294.344 597.134 294.132 597.1 293.925 597.045C294.366 597 294.804 596.943 295.246 596.904Z" fill="#FFBB54"/>
<path d="M208.116 598.869C207.878 598.904 207.632 598.901 207.395 598.957C207.168 598.883 206.936 598.825 206.7 598.783C207.172 598.818 207.644 598.837 208.116 598.869Z" fill="#FFBB54"/>
<path d="M116.329 585.634C116.089 585.598 115.847 585.608 115.609 585.562C115.351 585.507 115.115 585.37 114.862 585.299C115.359 585.371 115.842 585.516 116.329 585.634Z" fill="#FFBB54"/>
</g>
<g opacity="0.4" clip-path="url(#clip1_258_66059)" filter="url(#filter0_f_258_66059)">
<path d="M913.773 45.9584C922.218 51.8489 930.527 58.0114 938.7 64.4461C935.878 72.6473 932.951 80.7077 929.797 88.5697C925.04 74.2001 919.699 59.9963 913.773 45.9584Z" fill="#FFBB54"/>
<path d="M944.821 143.188C951.884 150.477 958.824 157.953 965.509 165.711C961.373 173.046 957.092 180.186 952.667 187.132C950.623 172.433 948.045 157.761 944.821 143.188Z" fill="#FFBB54"/>
<path d="M957.361 242.459C962.825 250.807 968.098 259.323 973.18 268.006C967.869 274.259 962.483 280.328 957.02 286.212C957.714 271.684 957.828 257.099 957.361 242.459Z" fill="#FFBB54"/>
<path d="M951.567 340.377C955.339 349.4 958.859 358.559 962.13 367.854C955.91 372.924 949.627 377.784 943.336 382.497C946.624 368.613 949.368 354.573 951.567 340.377Z" fill="#FFBB54"/>
<path d="M928.291 433.757C930.294 443.101 932.018 452.528 933.464 462.038C926.569 465.852 919.672 469.515 912.743 472.933C918.423 460.118 923.652 447.062 928.291 433.757Z" fill="#FFBB54"/>
<path d="M888.976 519.753C889.201 529.055 889.162 538.383 888.86 547.737C881.515 550.244 874.206 552.65 866.911 554.846C874.722 543.482 882.077 531.785 888.976 519.753Z" fill="#FFBB54"/>
<path d="M835.542 595.922C834.1 604.836 832.407 613.722 830.465 622.58C822.909 623.871 815.399 625.013 807.934 626.005C817.518 616.379 826.721 606.351 835.542 595.922Z" fill="#FFBB54"/>
<path d="M770.272 660.308C767.318 668.52 764.163 676.671 760.753 684.721C753.176 684.795 745.661 684.832 738.211 684.674C749.2 677.009 759.875 668.848 770.272 660.308Z" fill="#FFBB54"/>
<path d="M695.683 711.453C691.439 718.69 687.016 725.818 682.412 732.837C674.988 731.833 667.631 730.76 660.341 729.619C672.321 724.021 684.138 718.007 695.683 711.453Z" fill="#FFBB54"/>
<path d="M614.436 748.408C609.183 754.463 603.78 760.374 598.228 766.14C591.078 764.201 584.002 762.192 577.001 760.111C589.599 756.701 602.077 752.8 614.436 748.408Z" fill="#FFBB54"/>
<path d="M529.211 770.716C523.249 775.443 517.153 779.977 510.971 784.358C504.205 781.56 497.5 778.742 490.858 775.904C503.672 774.627 516.457 772.898 529.211 770.716Z" fill="#FFBB54"/>
<path d="M442.625 778.389C436.255 781.676 429.818 784.773 423.314 787.682C416.965 784.222 410.693 780.716 404.473 777.203C417.143 778.064 429.861 778.459 442.625 778.389Z" fill="#FFBB54"/>
<path d="M357.158 771.844C350.705 773.666 344.232 775.293 337.74 776.725C331.845 772.705 326.027 768.64 320.239 764.594C332.429 767.438 344.739 769.895 357.158 771.844Z" fill="#FFBB54"/>
<path d="M275.072 751.883C268.853 752.283 262.661 752.478 256.496 752.469C251.081 747.965 245.701 743.467 240.31 739.025C251.716 743.706 263.303 747.992 275.072 751.883Z" fill="#FFBB54"/>
<path d="M198.375 719.61C192.683 718.658 187.049 717.556 181.519 716.193C176.498 711.374 171.514 706.548 166.568 701.715C176.916 708.061 187.542 714.011 198.375 719.61Z" fill="#FFBB54"/>
<path d="M128.78 676.375C123.877 674.224 119.095 671.9 114.435 669.403C109.839 664.27 105.197 659.195 100.583 654.109C109.681 661.857 119.106 669.267 128.78 676.375Z" fill="#FFBB54"/>
<path d="M67.6717 623.719C63.7801 620.55 60.0432 617.237 56.4961 613.771C52.2098 608.435 47.9086 603.112 43.5927 597.801C51.3031 606.691 59.3642 615.308 67.6717 623.719Z" fill="#FFBB54"/>
<path d="M849.69 12.4845C858.516 16.9486 867.243 21.7195 875.889 26.7275C873.807 34.6248 871.554 42.37 869.13 49.9633C863.181 37.2416 856.701 24.7487 849.69 12.4845Z" fill="#FFBB54"/>
<path d="M889.032 98.6652C896.755 104.66 904.333 110.909 911.764 117.413C908.36 124.567 904.845 131.565 901.181 138.374C897.662 125.021 893.613 111.784 889.032 98.6652Z" fill="#FFBB54"/>
<path d="M911.725 189.017C918.102 196.244 924.236 203.741 930.226 211.399C925.686 217.636 921.069 223.705 916.342 229.576C915.35 216.035 913.811 202.516 911.725 189.017Z" fill="#FFBB54"/>
<path d="M917.412 280.43C922.194 288.615 926.794 296.95 931.136 305.459C925.651 310.636 920.133 315.664 914.546 320.485C916.027 307.209 916.983 293.858 917.412 280.43Z" fill="#FFBB54"/>
<path d="M906.377 369.883C909.5 378.64 912.378 387.512 915.008 396.502C908.809 400.563 902.588 404.447 896.345 408.156C900.182 395.562 903.526 382.805 906.377 369.883Z" fill="#FFBB54"/>
<path d="M879.484 454.568C880.864 463.555 882.017 472.6 882.942 481.7C876.232 484.599 869.539 487.361 862.837 489.902C868.893 478.397 874.368 466.568 879.484 454.568Z" fill="#FFBB54"/>
<path d="M838.101 531.967C837.828 540.827 837.304 549.696 836.528 558.574C829.506 560.292 822.53 561.927 815.577 563.364C823.488 553.22 830.996 542.754 838.101 531.967Z" fill="#FFBB54"/>
<path d="M783.995 599.94C782.196 608.363 780.08 616.73 777.748 625.048C770.608 625.674 763.521 626.186 756.485 626.582C765.982 618.074 775.187 609.202 783.995 599.94Z" fill="#FFBB54"/>
<path d="M719.248 656.757C716.015 664.436 712.553 672.018 708.862 679.505C701.759 679.092 694.713 678.657 687.743 678.018C698.51 671.362 709.012 664.275 719.248 656.757Z" fill="#FFBB54"/>
<path d="M646.142 701.134C641.702 707.808 637.06 714.343 632.307 720.794C625.371 719.451 618.501 718.047 611.697 716.582C623.34 711.836 634.822 706.687 646.142 701.134Z" fill="#FFBB54"/>
<path d="M567.075 732.214C561.725 737.709 556.197 743.015 550.595 748.225C543.924 746.055 537.305 743.877 530.765 741.611C542.968 738.937 555.071 735.805 567.075 732.214Z" fill="#FFBB54"/>
<path d="M484.472 749.577C478.495 753.748 472.398 757.719 466.235 761.541C459.899 758.646 453.592 755.787 447.36 752.867C459.753 752.232 472.124 751.135 484.472 749.577Z" fill="#FFBB54"/>
<path d="M400.709 753.206C394.412 755.974 388.042 758.519 381.644 760.911C375.659 757.441 369.715 753.971 363.812 750.5C376.061 751.825 388.36 752.727 400.709 753.206Z" fill="#FFBB54"/>
<path d="M318.045 743.444C311.723 744.741 305.408 745.91 299.088 746.86C293.466 742.902 287.875 738.949 282.315 735C294.102 738.243 306.034 741.003 318.045 743.444Z" fill="#FFBB54"/>
<path d="M238.568 720.961C232.547 720.925 226.568 720.682 220.631 720.229C215.358 715.866 210.083 711.537 204.868 707.168C215.915 712.162 227.149 716.76 238.568 720.961Z" fill="#FFBB54"/>
<path d="M164.16 686.705C158.714 685.366 153.355 683.843 148.083 682.136C143.133 677.432 138.187 672.739 133.245 668.057C143.314 674.622 153.64 680.825 164.16 686.705Z" fill="#FFBB54"/>
<path d="M96.4589 641.849C91.8463 639.346 87.344 636.706 82.9887 633.9C78.3247 628.903 73.6516 623.912 68.9694 618.928C77.8591 626.864 87.0483 634.488 96.4589 641.849Z" fill="#FFBB54"/>
<path d="M775.823 -15.6468C788.653 -11.7113 801.383 -7.12056 813.999 -1.99591C811.937 8.69292 809.542 19.1069 806.813 29.2462C797.322 13.7186 786.976 -1.26878 775.823 -15.6468Z" fill="#FFBB54"/>
<path d="M822.651 57.2726C834.353 63.5876 845.893 70.4048 857.152 77.821C853.321 87.6512 849.207 97.16 844.81 106.347C838.345 89.5874 830.947 73.2036 822.651 57.2726Z" fill="#FFBB54"/>
<path d="M855.196 136.361C865.381 144.675 875.232 153.533 884.773 162.824C879.367 171.547 873.711 179.906 867.907 187.937C864.674 170.511 860.43 153.29 855.196 136.361Z" fill="#FFBB54"/>
<path d="M872.576 218.925C880.857 228.91 888.747 239.299 896.247 250.091C889.479 257.493 882.592 264.556 875.586 271.28C875.591 253.783 874.586 236.302 872.576 218.925Z" fill="#FFBB54"/>
<path d="M874.499 302.219C880.636 313.417 886.326 324.921 891.569 336.731C883.74 342.714 875.85 348.357 867.9 353.659C871.089 336.652 873.293 319.476 874.499 302.219Z" fill="#FFBB54"/>
<path d="M861.211 383.572C865.05 395.511 868.39 407.67 871.3 419.987C862.66 424.451 854.064 428.699 845.419 432.503C851.619 416.508 856.891 400.171 861.211 383.572Z" fill="#FFBB54"/>
<path d="M833.458 460.482C834.995 472.669 835.967 484.975 836.503 497.34C827.344 500.333 818.233 503.037 809.17 505.453C818.13 490.945 826.24 475.929 833.458 460.482Z" fill="#FFBB54"/>
<path d="M792.421 530.695C791.679 542.668 790.426 554.632 788.663 566.586C779.211 568.106 769.846 569.392 760.567 570.444C771.926 557.805 782.561 544.534 792.421 530.695Z" fill="#FFBB54"/>
<path d="M739.646 592.257C736.75 603.567 733.403 614.773 729.605 625.874C720.071 625.992 710.649 625.948 701.339 625.74C714.71 615.288 727.498 604.11 739.646 592.257Z" fill="#FFBB54"/>
<path d="M676.95 643.568C672.18 653.829 666.993 663.891 661.389 673.754C651.952 672.626 642.635 671.363 633.438 669.965C648.397 661.941 662.922 653.13 676.95 643.568Z" fill="#FFBB54"/>
<path d="M606.349 683.397C600.009 692.279 593.25 700.85 586.234 709.191C577.028 706.921 567.938 704.567 558.964 702.129C575.077 696.724 590.894 690.472 606.349 683.397Z" fill="#FFBB54"/>
<path d="M529.981 710.891C522.391 718.09 514.546 724.999 506.439 731.538C497.552 728.275 488.769 724.964 480.093 721.605C496.895 718.901 513.547 715.325 529.981 710.891Z" fill="#FFBB54"/>
<path d="M450.029 725.549C441.638 730.935 433.026 735.908 424.283 740.544C415.775 736.417 407.348 732.276 399.004 728.119C416.043 728.109 433.051 727.252 450.029 725.549Z" fill="#FFBB54"/>
<path d="M368.667 727.237C359.857 730.643 350.97 733.669 342.004 736.315C333.88 731.468 325.824 726.612 317.836 721.746C334.679 724.389 351.623 726.219 368.667 727.237Z" fill="#FFBB54"/>
<path d="M287.994 716.143C279.218 717.575 270.454 718.625 261.702 719.29C253.964 713.809 246.27 708.331 238.617 702.855C254.856 708.047 271.329 712.531 287.994 716.143Z" fill="#FFBB54"/>
<path d="M209.994 692.743C201.666 692.272 193.44 691.418 185.318 690.181C177.954 684.136 170.595 678.108 163.242 672.098C178.473 679.735 194.099 686.592 209.994 692.743Z" fill="#FFBB54"/>
<path d="M136.504 657.781C129.075 655.544 121.763 652.934 114.598 649.961C107.579 643.399 100.525 636.866 93.4355 630.363C107.36 640.15 121.717 649.289 136.504 657.781Z" fill="#FFBB54"/>
<path d="M69.1693 612.223C62.8897 608.445 56.8411 604.296 51.0556 599.798C44.3196 592.772 37.5768 585.719 30.7187 578.738C43.0238 590.463 55.8407 601.625 69.1693 612.223Z" fill="#FFBB54"/>
<path d="M702.621 -29.6012C718.726 -27.5549 734.699 -24.5839 750.46 -20.7027C748.837 -8.05383 746.68 4.2013 743.99 16.0627C731.278 -0.102059 717.455 -15.3602 702.621 -29.6012Z" fill="#FFBB54"/>
<path d="M754.173 29.5348C769.445 34.6483 784.412 40.6291 799 47.4481C795.254 59.2067 791.081 70.5076 786.48 81.3506C776.947 63.337 766.151 46.022 754.173 29.5348Z" fill="#FFBB54"/>
<path d="M794.014 96.2851C807.856 104.214 821.25 112.898 834.135 122.3C828.503 132.883 822.534 142.959 816.228 152.527C810.17 133.274 802.746 114.479 794.014 96.2851Z" fill="#FFBB54"/>
<path d="M820.878 168.43C832.802 178.755 844.143 189.733 854.851 201.314C847.582 210.487 840.079 219.133 832.343 227.25C829.953 207.389 826.121 187.73 820.878 168.43Z" fill="#FFBB54"/>
<path d="M833.984 243.6C843.574 255.86 852.484 268.638 860.672 281.876C852.031 289.454 843.28 296.53 834.418 303.104C835.72 283.283 835.575 263.395 833.984 243.6Z" fill="#FFBB54"/>
<path d="M833.023 319.384C839.986 333.04 846.205 347.065 851.653 361.395C841.982 367.332 832.25 372.744 822.522 377.701C827.445 358.543 830.955 339.051 833.023 319.384Z" fill="#FFBB54"/>
<path d="M818.167 393.4C822.311 407.882 825.705 422.569 828.334 437.404C817.902 441.638 807.494 445.384 797.172 448.75C805.485 430.824 812.502 412.326 818.167 393.4Z" fill="#FFBB54"/>
<path d="M790.018 463.405C791.348 478.111 791.909 492.878 791.697 507.645C780.783 510.222 769.957 512.329 759.269 514.158C770.702 497.985 780.977 481.025 790.018 463.405Z" fill="#FFBB54"/>
<path d="M749.564 527.338C748.133 541.65 745.976 555.911 743.092 570.12C731.929 571.045 720.921 571.688 710.068 572.049C724.257 558.081 737.454 543.141 749.564 527.338Z" fill="#FFBB54"/>
<path d="M698.116 583.392C694.134 596.841 689.483 610.095 684.163 623.153C672.966 622.626 661.943 621.853 651.092 620.834C667.587 609.421 683.297 596.911 698.116 583.392Z" fill="#FFBB54"/>
<path d="M637.251 630.037C630.973 642.124 624.149 653.912 616.78 665.402C605.7 663.535 594.811 661.416 584.077 659.227C602.411 650.655 620.173 640.905 637.251 630.037Z" fill="#FFBB54"/>
<path d="M568.748 666.044C560.604 676.392 552.012 686.365 542.956 695.874C532.125 692.744 521.443 689.535 510.912 686.246C530.596 680.738 549.913 673.991 568.748 666.044Z" fill="#FFBB54"/>
<path d="M494.515 690.512C485.011 698.817 475.09 706.632 464.792 713.928C454.249 709.776 443.868 705.492 433.581 701.236C454.095 698.944 474.447 695.362 494.515 690.512Z" fill="#FFBB54"/>
<path d="M416.549 702.855C406.116 708.865 395.386 714.344 384.401 719.27C374.213 714.132 364.111 708.995 354.094 703.859C374.911 704.804 395.768 704.468 416.549 702.855Z" fill="#FFBB54"/>
<path d="M336.86 702.793C326.03 706.419 315.015 709.466 303.862 711.919C294.013 705.95 284.24 699.955 274.456 694.064C295.061 698.225 315.9 701.14 336.86 702.793Z" fill="#FFBB54"/>
<path d="M257.449 690.34C246.733 691.568 235.958 692.187 225.174 692.194C215.655 685.459 206.135 678.758 196.615 672.092C216.515 679.366 236.828 685.459 257.449 690.34Z" fill="#FFBB54"/>
<path d="M180.244 665.798C170.138 664.699 160.109 662.991 150.211 660.684C140.956 653.284 131.732 645.832 122.437 638.439C141.156 648.676 160.457 657.811 180.244 665.798Z" fill="#FFBB54"/>
<path d="M107.085 629.718C98.0433 626.473 89.2292 622.629 80.7013 618.21C71.7571 610.08 62.7141 601.995 53.6559 593.85C70.7353 606.858 88.5767 618.835 107.085 629.718Z" fill="#FFBB54"/>
<path d="M686.923 15.5265C704.238 18.1859 721.353 22.0022 738.154 26.9498C735.04 39.1723 731.263 51.2174 726.841 63.0318C714.804 46.1714 701.457 30.2873 686.923 15.5265Z" fill="#FFBB54"/>
<path d="M731.385 69.5505C747.701 75.5314 763.605 82.5776 778.994 90.6435C773.9 101.773 768.216 112.623 761.966 123.148C753.221 104.492 742.995 86.5687 731.385 69.5505Z" fill="#FFBB54"/>
<path d="M765.241 130.344C779.928 139.331 794.019 149.256 807.426 160.059C800.586 169.855 793.25 179.294 785.445 188.34C780.298 168.488 773.541 149.092 765.241 130.344Z" fill="#FFBB54"/>
<path d="M787.336 195.984C799.849 207.545 811.617 219.887 822.569 232.936C814.049 241.435 805.349 249.305 796.468 256.547C795.108 236.138 792.053 215.881 787.336 195.984Z" fill="#FFBB54"/>
<path d="M796.914 264.397C806.824 277.999 815.875 292.207 824.015 306.939C814.292 313.769 804.465 319.959 794.654 325.628C797.062 305.309 797.818 284.832 796.914 264.397Z" fill="#FFBB54"/>
<path d="M793.63 333.442C800.621 348.491 806.691 363.953 811.806 379.742C801.173 384.856 790.574 389.424 780.009 393.445C786.195 373.851 790.751 353.781 793.63 333.442Z" fill="#FFBB54"/>
<path d="M777.546 400.987C781.453 416.844 784.414 432.921 786.413 449.132C775.15 452.568 763.97 455.446 752.943 457.937C762.663 439.644 770.891 420.599 777.546 400.987Z" fill="#FFBB54"/>
<path d="M749.109 464.972C749.915 480.987 749.777 497.038 748.694 513.04C737.034 514.811 725.54 516.186 714.212 517.166C727.219 500.726 738.889 483.272 749.109 464.972Z" fill="#FFBB54"/>
<path d="M709.113 523.49C706.895 539.032 703.798 554.439 699.838 569.634C687.991 569.847 676.338 569.714 664.884 569.383C680.784 555.245 695.571 539.901 709.113 523.49Z" fill="#FFBB54"/>
<path d="M658.661 574.808C653.682 589.297 647.888 603.494 641.309 617.333C629.441 616.099 617.771 614.674 606.3 613.059C624.683 601.634 642.186 588.848 658.661 574.808Z" fill="#FFBB54"/>
<path d="M599.121 617.421C591.731 630.347 583.607 642.839 574.79 654.838C563.005 652.36 551.429 649.651 540.011 646.906C560.415 638.555 580.173 628.7 599.121 617.421Z" fill="#FFBB54"/>
<path d="M532.063 650.083C522.665 660.992 512.665 671.368 502.112 681.164C490.508 677.468 479.051 673.719 467.741 669.916C489.622 664.838 511.117 658.21 532.063 650.083Z" fill="#FFBB54"/>
<path d="M459.224 671.81C448.335 680.371 436.98 688.32 425.21 695.621C413.807 690.877 402.512 686.121 391.322 681.354C414.148 679.761 436.838 676.572 459.224 671.81Z" fill="#FFBB54"/>
<path d="M382.456 681.9C370.633 687.889 358.482 693.209 346.062 697.834C334.879 692.125 323.75 686.436 312.674 680.768C335.879 682.736 359.194 683.114 382.456 681.9Z" fill="#FFBB54"/>
<path d="M303.675 679.928C291.499 683.252 279.137 685.85 266.656 687.709C255.682 681.097 244.708 674.521 233.733 667.982C256.748 673.538 280.116 677.529 303.675 679.928Z" fill="#FFBB54"/>
<path d="M224.825 665.758C212.864 666.393 200.877 666.286 188.931 665.437C178.15 657.96 167.319 650.514 156.439 643.1C178.702 652.168 201.548 659.737 224.825 665.758Z" fill="#FFBB54"/>
<path d="M147.84 639.516C136.639 637.591 125.584 634.903 114.752 631.47C104.15 623.132 93.4603 614.802 82.6842 606.48C103.647 618.92 125.413 629.956 147.84 639.516Z" fill="#FFBB54"/>
<path d="M74.6041 601.598C64.6645 597.291 55.0629 592.246 45.8799 586.503C35.4484 577.295 24.9176 568.042 14.2875 558.744C33.4258 574.342 53.5752 588.658 74.6041 601.598Z" fill="#FFBB54"/>
<path d="M622.189 13.7129C640.276 13.3274 658.363 14.3011 676.299 16.6256C673.818 28.8248 670.596 40.8626 666.65 52.6717C652.962 38.4474 638.089 25.4142 622.189 13.7129Z" fill="#FFBB54"/>
<path d="M668.846 54.9699C686.509 58.2036 703.911 62.7231 720.912 68.4923C716.487 79.7006 711.378 90.6275 705.613 101.211C694.72 84.7602 682.418 69.2884 668.846 54.9699Z" fill="#FFBB54"/>
<path d="M707.355 103.867C723.889 110.504 739.923 118.322 755.333 127.259C749.145 137.233 742.383 146.84 735.08 156.03C727.377 137.865 718.1 120.411 707.355 103.867Z" fill="#FFBB54"/>
<path d="M736.306 158.963C751.064 168.666 765.118 179.399 778.363 191.082C770.679 199.66 762.523 207.802 753.931 215.471C749.739 196.148 743.841 177.238 736.306 158.963Z" fill="#FFBB54"/>
<path d="M754.593 218.593C767.017 230.903 778.577 244.055 789.193 257.956C780.273 265.026 770.986 271.622 761.373 277.715C760.881 257.841 758.612 238.055 754.593 218.593Z" fill="#FFBB54"/>
<path d="M761.434 280.932C771.098 295.279 779.775 310.267 787.405 325.792C777.236 331.414 767.059 336.406 756.954 340.853C760.229 321.049 761.728 300.996 761.434 280.932Z" fill="#FFBB54"/>
<path d="M756.408 344.06C762.998 359.82 768.533 376.002 772.977 392.5C762.086 396.525 751.267 399.963 740.595 402.928C747.596 383.808 752.888 364.109 756.408 344.06Z" fill="#FFBB54"/>
<path d="M739.443 406.03C742.826 422.527 745.107 439.233 746.27 456.037C734.866 458.477 723.611 460.415 712.553 462.021C723.134 444.176 732.131 425.441 739.443 406.03Z" fill="#FFBB54"/>
<path d="M710.821 464.921C710.921 481.486 709.975 498.043 707.989 514.493C696.266 515.41 684.747 516.01 673.43 516.294C687.326 500.258 699.835 483.072 710.821 464.921Z" fill="#FFBB54"/>
<path d="M671.155 518.9C668.134 534.869 664.128 550.638 659.161 566.115C647.272 565.667 635.593 564.974 624.124 564.037C641.005 550.299 656.734 535.203 671.155 518.9Z" fill="#FFBB54"/>
<path d="M621.356 566.267C615.485 581.036 608.711 595.431 601.073 609.371C589.117 607.672 577.374 605.721 565.808 603.717C585.297 592.743 603.873 580.219 621.356 566.267Z" fill="#FFBB54"/>
<path d="M562.617 605.496C554.242 618.514 545.099 631.022 535.237 642.954C523.29 640.053 511.507 637.069 499.887 634.004C521.503 626.146 542.477 616.615 562.617 605.496Z" fill="#FFBB54"/>
<path d="M496.348 635.279C485.977 646.126 474.952 656.33 463.337 665.834C451.422 661.872 439.645 657.833 427.96 653.811C451.189 649.373 474.051 643.178 496.348 635.279Z" fill="#FFBB54"/>
<path d="M424.163 654.522C412.313 662.843 399.964 670.428 387.186 677.234C375.324 672.245 363.543 667.233 351.789 662.283C376.068 661.465 400.257 658.872 424.163 654.522Z" fill="#FFBB54"/>
<path d="M347.825 662.398C335.086 667.967 322.012 672.733 308.68 676.67C296.867 670.696 285.054 664.756 273.24 658.848C297.98 661.83 322.907 663.017 347.825 662.398Z" fill="#FFBB54"/>
<path d="M269.206 658.346C256.192 661.07 243.014 662.934 229.758 663.925C217.969 657.003 206.157 650.073 194.26 643.197C218.85 650.011 243.895 655.074 269.206 658.346Z" fill="#FFBB54"/>
<path d="M190.257 642.068C177.568 641.951 164.904 640.945 152.359 639.057C140.598 631.161 128.781 623.214 116.832 615.301C140.64 625.949 165.177 634.894 190.257 642.068Z" fill="#FFBB54"/>
<path d="M112.961 613.557C101.176 610.703 89.6217 606.972 78.3955 602.396C66.7171 593.426 54.8702 584.479 42.9348 575.424C65.3459 589.771 88.7462 602.514 112.961 613.557Z" fill="#FFBB54"/>
<path d="M607.819 51.6328C625.768 51.7718 643.676 53.3151 661.379 56.2487C657.638 66.9987 653.178 77.4857 648.028 87.6386C635.717 74.471 622.261 62.422 607.819 51.6328Z" fill="#FFBB54"/>
<path d="M648.765 88.4335C666.188 92.1619 683.292 97.2372 699.924 103.614C694.535 113.265 688.511 122.549 681.892 131.404C672.188 116.096 661.1 101.712 648.765 88.4335Z" fill="#FFBB54"/>
<path d="M682.476 132.325C698.665 139.44 714.286 147.777 729.207 157.263C722.369 165.649 715.016 173.601 707.191 181.073C700.466 164.098 692.193 147.78 682.476 132.325Z" fill="#FFBB54"/>
<path d="M707.593 182.1C721.903 192.245 735.439 203.439 748.088 215.591C740.028 222.601 731.582 229.154 722.789 235.217C719.379 217.077 714.291 199.295 707.593 182.1Z" fill="#FFBB54"/>
<path d="M722.99 236.315C734.873 249.009 745.82 262.548 755.744 276.827C746.713 282.437 737.396 287.571 727.832 292.21C727.984 273.465 726.363 254.75 722.99 236.315Z" fill="#FFBB54"/>
<path d="M727.821 293.347C736.856 308.005 744.836 323.29 751.699 339.085C741.644 343.394 731.639 347.086 721.777 350.301C725.549 331.541 727.572 312.474 727.821 293.347Z" fill="#FFBB54"/>
<path d="M721.544 351.442C727.434 367.423 732.207 383.795 735.828 400.441C725.196 403.307 714.721 405.715 704.402 407.666C711.837 389.491 717.576 370.669 721.544 351.442Z" fill="#FFBB54"/>
<path d="M703.948 408.774C706.55 425.392 708.02 442.17 708.347 458.991C697.308 460.512 686.457 461.634 675.814 462.451C686.781 445.436 696.197 427.471 703.948 408.774Z" fill="#FFBB54"/>
<path d="M675.144 463.49C674.462 480.057 672.679 496.562 669.806 512.896C658.482 513.119 647.365 513.104 636.457 512.851C650.76 497.55 663.704 481.033 675.144 463.49Z" fill="#FFBB54"/>
<path d="M635.58 513.786C631.757 529.634 626.909 545.218 621.067 560.44C609.543 559.487 598.213 558.386 587.076 557.137C604.433 544.075 620.658 529.573 635.58 513.786Z" fill="#FFBB54"/>
<path d="M586.012 557.935C579.325 572.447 571.725 586.521 563.259 600.075C551.582 598.046 540.066 595.928 528.713 593.721C548.76 583.384 567.925 571.415 586.012 557.935Z" fill="#FFBB54"/>
<path d="M527.485 594.352C518.342 606.994 508.414 619.049 497.759 630.445C485.952 627.366 474.257 624.279 462.673 621.184C484.953 613.977 506.626 605.005 527.485 594.352Z" fill="#FFBB54"/>
<path d="M461.309 621.622C450.216 631.97 438.468 641.592 426.138 650.428C414.2 646.375 402.316 642.339 390.488 638.318C414.491 634.61 438.171 629.027 461.309 621.622Z" fill="#FFBB54"/>
<path d="M389.022 638.544C376.511 646.225 363.527 653.106 350.147 659.143C338.066 654.11 325.981 649.113 313.891 644.152C339.037 644.188 364.153 642.313 389.022 638.544Z" fill="#FFBB54"/>
<path d="M312.355 644.15C299.053 648.976 285.45 652.927 271.635 655.977C259.405 649.948 247.115 643.949 234.765 637.98C260.436 641.959 286.371 644.021 312.355 644.15Z" fill="#FFBB54"/>
<path d="M233.201 637.733C219.731 639.593 206.153 640.545 192.558 640.58C180.178 633.518 167.697 626.448 155.116 619.367C180.651 627.412 206.751 633.551 233.201 637.733Z" fill="#FFBB54"/>
<path d="M153.559 618.877C140.548 617.806 127.632 615.808 114.908 612.899C102.431 604.684 89.8019 596.447 77.0201 588.188C101.755 600.254 127.335 610.51 153.559 618.877Z" fill="#FFBB54"/>
<path d="M75.5166 587.451C63.5582 583.576 51.9137 578.795 40.6839 573.151C28.1316 563.753 15.4349 554.241 2.59387 544.615C25.8205 560.656 50.1932 574.973 75.5166 587.451Z" fill="#FFBB54"/>
<path d="M551.052 58.7012C567.641 55.963 584.417 54.529 601.225 54.4124C598.175 63.9245 594.479 73.2183 590.164 82.229C577.822 73.2868 564.737 65.4156 551.052 58.7012Z" fill="#FFBB54"/>
<path d="M592.316 83.8086C608.981 84.5116 625.563 86.5094 641.913 89.7841C637.441 98.3441 632.395 106.592 626.808 114.471C616.237 103.254 604.695 92.9936 592.316 83.8086Z" fill="#FFBB54"/>
<path d="M628.649 116.447C644.695 120.529 660.407 125.82 675.649 132.276C669.933 139.764 663.734 146.87 657.092 153.55C648.75 140.348 639.231 127.93 628.649 116.447Z" fill="#FFBB54"/>
<path d="M658.541 155.878C673.314 163.09 687.524 171.401 701.051 180.739C694.282 187.081 687.13 193.001 679.633 198.465C673.933 183.646 666.872 169.39 658.541 155.878Z" fill="#FFBB54"/>
<path d="M680.623 201.072C693.523 211.071 705.67 222.003 716.967 233.781C709.322 238.935 701.4 243.666 693.237 247.951C690.493 231.966 686.271 216.272 680.623 201.072Z" fill="#FFBB54"/>
<path d="M693.704 250.773C704.222 263.089 713.847 276.141 722.505 289.83C713.92 293.909 705.379 297.46 696.942 300.539C697.411 283.883 696.327 267.222 693.704 250.773Z" fill="#FFBB54"/>
<path d="M696.841 303.485C704.589 317.554 711.35 332.146 717.077 347.154C707.949 350.067 698.925 352.507 690.063 354.577C693.884 337.787 696.152 320.685 696.841 303.485Z" fill="#FFBB54"/>
<path d="M689.371 357.552C694.095 372.749 697.785 388.251 700.415 403.95C690.853 405.726 681.459 407.175 672.232 408.297C679.466 391.932 685.202 374.948 689.371 357.552Z" fill="#FFBB54"/>
<path d="M670.934 411.202C672.528 426.869 673.077 442.627 672.579 458.37C662.672 459.105 652.948 459.603 643.406 459.864C653.986 444.477 663.198 428.194 670.934 411.202Z" fill="#FFBB54"/>
<path d="M641.509 462.595C640.009 478.079 637.486 493.45 633.955 508.605C623.755 508.375 613.729 507.986 603.875 507.436C617.672 493.585 630.263 478.584 641.509 462.595Z" fill="#FFBB54"/>
<path d="M601.405 509.895C596.938 524.56 591.541 538.928 585.247 552.91C574.779 551.765 564.452 550.535 554.267 549.221C571.034 537.431 586.8 524.278 601.405 509.895Z" fill="#FFBB54"/>
<path d="M551.269 551.315C544.128 564.577 536.178 577.387 527.463 589.673C516.722 587.632 506.078 585.584 495.532 583.531C514.935 574.289 533.573 563.516 551.269 551.315Z" fill="#FFBB54"/>
<path d="M492.063 585.17C482.658 596.526 472.576 607.304 461.87 617.443C450.837 614.546 439.851 611.675 428.91 608.83C450.534 602.574 471.647 594.664 492.063 585.17Z" fill="#FFBB54"/>
<path d="M425.055 609.929C413.889 618.988 402.177 627.352 389.985 634.973C378.637 631.212 367.284 627.479 355.928 623.773C379.28 620.886 402.387 616.258 425.055 609.929Z" fill="#FFBB54"/>
<path d="M351.77 624.272C339.385 630.723 326.61 636.395 313.521 641.253C301.851 636.552 290.138 631.864 278.33 627.264C302.847 628.065 327.393 627.065 351.77 624.272Z" fill="#FFBB54"/>
<path d="M273.975 627.104C260.959 630.748 247.728 633.564 234.359 635.535C222.37 629.826 210.263 624.17 198.069 618.463C223.127 623.163 248.495 626.05 273.975 627.104Z" fill="#FFBB54"/>
<path d="M193.627 617.613C180.596 618.389 167.53 618.301 154.513 617.349C142.224 610.557 129.805 603.72 117.256 596.838C142.182 605.576 167.704 612.519 193.627 617.613Z" fill="#FFBB54"/>
<path d="M112.845 595.275C100.398 593.223 88.1125 590.299 76.0791 586.522C63.5754 578.489 50.8783 570.44 38.0985 562.182C62.1797 575.003 87.1606 586.063 112.845 595.275Z" fill="#FFBB54"/>
<path d="M538.313 88.4707C553.19 86.5854 568.183 85.7921 583.172 86.0972C579.529 93.2536 575.399 100.152 570.81 106.742C560.503 99.7626 549.634 93.6511 538.313 88.4707Z" fill="#FFBB54"/>
<path d="M575.406 109.939C590.228 111.163 604.94 113.463 619.425 116.821C614.786 123.078 609.73 129.017 604.294 134.597C595.383 125.572 585.718 117.323 575.406 109.939Z" fill="#FFBB54"/>
<path d="M608.254 138.716C622.397 142.958 636.218 148.205 649.61 154.418C644.121 159.729 638.305 164.692 632.197 169.277C625.116 158.415 617.105 148.19 608.254 138.716Z" fill="#FFBB54"/>
<path d="M635.324 174.223C648.19 181.268 660.551 189.196 672.319 197.95C666.123 202.297 659.694 206.301 653.061 209.943C648.226 197.53 642.29 185.576 635.324 174.223Z" fill="#FFBB54"/>
<path d="M655.175 215.588C666.241 225.072 676.645 235.301 686.315 246.204C679.36 249.724 672.428 252.806 665.571 255.471C663.296 241.893 659.817 228.546 655.175 215.588Z" fill="#FFBB54"/>
<path d="M666.519 261.651C675.344 273.131 683.388 285.191 690.597 297.75C683.179 300.362 675.837 302.562 668.632 304.481C669.192 290.168 668.485 275.835 666.519 261.651Z" fill="#FFBB54"/>
<path d="M668.291 310.996C674.524 323.956 679.913 337.306 684.422 350.965C676.618 352.718 668.946 354.185 661.406 355.365C664.984 340.801 667.287 325.955 668.291 310.996Z" fill="#FFBB54"/>
<path d="M659.688 361.998C663.116 375.856 665.68 389.914 667.365 404.093C659.217 405.033 651.218 405.791 643.368 406.365C650.052 392.062 655.512 377.22 659.688 361.998Z" fill="#FFBB54"/>
<path d="M640.228 412.876C640.801 427.02 640.498 441.187 639.321 455.296C630.849 455.524 622.519 455.625 614.329 455.6C624.118 442.092 632.78 427.802 640.228 412.876Z" fill="#FFBB54"/>
<path d="M609.77 461.745C607.526 475.578 604.439 489.263 600.529 502.723C591.722 502.263 583.034 501.74 574.463 501.155C587.265 488.982 599.072 475.803 609.77 461.745Z" fill="#FFBB54"/>
<path d="M568.534 506.683C563.614 519.623 557.949 532.268 551.568 544.556C542.399 543.424 533.312 542.281 524.306 541.129C539.9 530.786 554.686 519.271 568.534 506.683Z" fill="#FFBB54"/>
<path d="M517.104 545.8C509.804 557.317 501.873 568.422 493.348 579.064C483.778 577.252 474.246 575.466 464.752 573.707C482.86 565.697 500.358 556.37 517.104 545.8Z" fill="#FFBB54"/>
<path d="M456.417 577.293C447.181 586.985 437.387 596.129 427.084 604.677C417.078 602.147 407.073 599.63 397.038 597.211C417.278 591.992 437.121 585.336 456.417 577.293Z" fill="#FFBB54"/>
<path d="M387.751 599.511C376.984 606.963 365.808 613.803 354.275 620.001C343.804 616.688 333.281 613.409 322.706 610.164C344.606 608.13 366.341 604.571 387.751 599.511Z" fill="#FFBB54"/>
<path d="M312.691 611.002C300.935 615.97 288.909 620.272 276.671 623.889C265.734 619.685 254.703 615.5 243.579 611.334C266.595 612.773 289.685 612.662 312.691 611.002Z" fill="#FFBB54"/>
<path d="M233.091 610.572C220.908 612.926 208.598 614.558 196.225 615.461C184.837 610.273 173.334 605.045 161.718 599.777C185.239 604.961 209.083 608.567 233.091 610.572Z" fill="#FFBB54"/>
<path d="M151.037 597.316C138.991 597.002 126.977 595.939 115.066 594.133C103.296 587.797 91.4165 581.349 79.3677 574.877C102.73 583.939 126.673 591.435 151.037 597.316Z" fill="#FFBB54"/>
<path d="M68.7943 570.66C57.4443 567.724 46.2998 564.049 35.4319 559.658C23.3784 552.049 11.2287 544.253 -1.09082 536.367C21.4202 549.327 44.7661 560.783 68.7943 570.66Z" fill="#FFBB54"/>
<path d="M488.267 101.33C500.281 97.7197 512.512 94.8822 524.886 92.8351C522.018 98.2953 518.786 103.556 515.21 108.582C506.418 105.513 497.413 103.089 488.267 101.33Z" fill="#FFBB54"/>
<path d="M524.432 112.076C536.808 111.068 549.235 110.848 561.636 111.419C558.045 116.147 554.149 120.636 549.973 124.857C541.79 119.966 533.253 115.694 524.432 112.076Z" fill="#FFBB54"/>
<path d="M558.5 130.281C570.707 131.892 582.802 134.259 594.713 137.369C590.519 141.347 586.092 145.073 581.455 148.526C574.285 141.862 566.611 135.763 558.5 130.281Z" fill="#FFBB54"/>
<path d="M588.868 155.819C600.379 159.938 611.629 164.752 622.555 170.235C617.882 173.496 613.034 176.497 608.031 179.223C602.277 170.924 595.869 163.097 588.868 155.819Z" fill="#FFBB54"/>
<path d="M613.913 188.235C624.242 194.635 634.175 201.653 643.656 209.25C638.455 211.894 633.277 214.224 628.123 216.24C624.141 206.54 619.389 197.175 613.913 188.235Z" fill="#FFBB54"/>
<path d="M632.084 226.729C640.788 235.11 648.992 243.996 656.653 253.339C651.125 255.332 645.666 257.066 640.274 258.542C638.402 247.734 635.664 237.095 632.084 226.729Z" fill="#FFBB54"/>
<path d="M641.966 270.191C648.687 280.157 654.835 290.497 660.381 301.163C654.568 302.568 648.85 303.777 643.227 304.789C643.713 293.239 643.291 281.671 641.966 270.191Z" fill="#FFBB54"/>
<path d="M642.363 317.208C646.84 328.296 650.701 339.623 653.928 351.138C647.843 352.036 641.86 352.783 635.981 353.379C639.026 341.501 641.159 329.409 642.363 317.208Z" fill="#FFBB54"/>
<path d="M632.356 366.118C634.437 377.825 635.886 389.638 636.694 401.504C630.318 401.924 624.041 402.234 617.864 402.5C623.584 390.744 628.428 378.584 632.356 366.118Z" fill="#FFBB54"/>
<path d="M611.361 415.059C611.002 426.869 610.023 438.654 608.428 450.363C601.722 450.35 595.105 450.264 588.567 450.19C596.991 439.036 604.609 427.296 611.361 415.059Z" fill="#FFBB54"/>
<path d="M579.164 462.052C576.42 473.452 573.106 484.707 569.235 495.776C562.151 495.315 555.127 494.864 548.161 494.421C559.215 484.345 569.573 473.53 579.164 462.052Z" fill="#FFBB54"/>
<path d="M535.945 505.051C531.019 515.567 525.564 525.826 519.601 535.791C512.081 534.898 504.599 533.978 497.131 533.152C510.661 524.632 523.626 515.246 535.945 505.051Z" fill="#FFBB54"/>
<path d="M482.293 542.036C475.433 551.241 468.102 560.077 460.392 568.541C452.385 567.15 444.373 565.778 436.357 564.424C452.123 557.933 467.465 550.455 482.293 542.036Z" fill="#FFBB54"/>
<path d="M419.188 571.076C410.723 578.589 401.9 585.655 392.811 592.296C384.28 590.301 375.71 588.341 367.1 586.416C384.756 582.362 402.15 577.24 419.188 571.076Z" fill="#FFBB54"/>
<path d="M347.986 590.393C338.324 595.906 328.467 600.994 318.403 605.513C309.327 602.84 300.185 600.174 290.976 597.514C310.102 596.283 329.14 593.905 347.986 590.393Z" fill="#FFBB54"/>
<path d="M270.388 598.435C260.016 601.792 249.554 604.612 239.002 606.897C229.406 603.37 219.697 599.902 209.914 596.359C230.011 598.234 250.204 598.927 270.388 598.435Z" fill="#FFBB54"/>
<path d="M188.396 593.934C177.79 594.986 167.201 595.465 156.688 595.455C146.6 590.992 136.408 586.482 126.113 581.924C146.624 587.121 167.419 591.131 188.396 593.934Z" fill="#FFBB54"/>
<path d="M104.273 575.931C94.0086 574.652 83.8184 572.844 73.7428 570.514C63.257 564.955 52.6714 559.291 41.986 553.523C62.3036 562.17 83.0995 569.651 104.273 575.931Z" fill="#FFBB54"/>
<path d="M476.088 121.77C485.284 119.487 494.589 117.669 503.967 116.324C501.329 119.492 498.508 122.501 495.518 125.338C489.121 123.752 482.632 122.56 476.088 121.77Z" fill="#FFBB54"/>
<path d="M509.846 129.607C519.2 129.332 528.566 129.525 537.945 130.186C534.953 132.8 531.817 135.246 528.553 137.512C522.491 134.486 516.242 131.846 509.846 129.607Z" fill="#FFBB54"/>
<path d="M541.978 145.051C551.091 146.767 560.123 148.93 569.075 151.539C565.726 153.676 562.362 155.604 558.982 157.323C553.59 152.864 547.909 148.764 541.978 145.051Z" fill="#FFBB54"/>
<path d="M570.763 168.076C579.239 171.671 587.546 175.679 595.684 180.102C592.127 181.765 588.586 183.243 585.061 184.535C580.659 178.742 575.883 173.244 570.763 168.076Z" fill="#FFBB54"/>
<path d="M594.449 198.285C601.904 203.596 609.127 209.248 616.118 215.243C612.387 216.489 608.702 217.599 605.057 218.534C601.969 211.558 598.425 204.794 594.449 198.285Z" fill="#FFBB54"/>
<path d="M611.342 234.899C617.482 241.631 623.313 248.655 628.835 255.972C624.95 256.879 621.121 257.663 617.347 258.324C615.856 250.393 613.85 242.568 611.342 234.899Z" fill="#FFBB54"/>
<path d="M619.887 276.783C624.44 284.632 628.639 292.697 632.486 300.977C628.428 301.59 624.433 302.122 620.501 302.573C620.854 293.971 620.65 285.356 619.887 276.783Z" fill="#FFBB54"/>
<path d="M618.766 322.443C621.549 331.049 623.953 339.785 625.978 348.651C621.713 349.023 617.507 349.332 613.364 349.623C615.719 340.681 617.523 331.604 618.766 322.443Z" fill="#FFBB54"/>
<path d="M606.962 370.126C607.863 379.095 608.392 388.107 608.55 397.161C604.025 397.339 599.553 397.463 595.128 397.575C599.605 388.664 603.556 379.498 606.962 370.126Z" fill="#FFBB54"/>
<path d="M583.831 417.836C582.849 426.765 581.538 435.672 579.813 444.508C574.963 444.45 570.151 444.397 565.377 444.35C572.015 435.86 578.176 427.009 583.831 417.836Z" fill="#FFBB54"/>
<path d="M549.137 463.447C546.341 471.941 543.251 480.343 539.784 488.595C534.548 488.3 529.329 488.025 524.128 487.771C532.892 480.115 541.24 471.995 549.137 463.447Z" fill="#FFBB54"/>
<path d="M503.086 504.766C498.681 512.483 493.891 519.969 488.904 527.313C483.218 526.72 477.527 526.186 471.836 525.65C482.601 519.225 493.031 512.255 503.086 504.766Z" fill="#FFBB54"/>
<path d="M446.329 539.624C440.454 546.187 434.355 552.522 428.032 558.629C421.849 557.685 415.641 556.765 409.411 555.869C422.132 550.996 434.438 545.582 446.329 539.624Z" fill="#FFBB54"/>
<path d="M379.95 565.953C372.95 571.129 365.754 576.005 358.429 580.632C351.714 579.249 344.975 577.808 338.175 576.455C352.422 573.573 366.347 570.072 379.95 565.953Z" fill="#FFBB54"/>
<path d="M305.453 581.875C297.637 585.42 289.733 588.703 281.73 591.636C274.495 589.644 267.203 587.653 259.854 585.664C275.268 585.106 290.468 583.843 305.453 581.875Z" fill="#FFBB54"/>
<path d="M224.714 585.762C216.473 587.584 208.206 589.07 199.91 590.219C192.169 587.539 184.38 584.787 176.51 582.045C192.669 584.037 208.737 585.276 224.714 585.762Z" fill="#FFBB54"/>
<path d="M139.934 576.294C131.644 576.282 123.407 575.944 115.223 575.279C107.065 571.714 98.8298 568.114 90.5165 564.48C106.946 569.198 123.419 573.136 139.934 576.294Z" fill="#FFBB54"/>
<path d="M53.5882 552.533C45.6481 550.695 37.8367 548.551 30.154 546.102C21.6566 541.573 13.0961 536.961 4.47253 532.266C20.6558 539.817 37.0277 546.572 53.5882 552.533Z" fill="#FFBB54"/>
<path d="M430.922 138.148C436.52 135.769 442.187 133.577 447.926 131.572C446.195 133.317 444.418 134.961 442.594 136.505C438.673 136.884 434.778 137.444 430.922 138.148Z" fill="#FFBB54"/>
<path d="M462.995 135.975C468.887 134.867 474.809 133.947 480.761 133.215C478.867 134.591 476.956 135.886 475.008 137.056C471.01 136.529 467.005 136.168 462.995 135.975Z" fill="#FFBB54"/>
<path d="M495.475 141.383C501.395 141.563 507.309 141.935 513.217 142.5C511.223 143.557 509.219 144.518 507.207 145.384C503.347 143.864 499.428 142.535 495.475 141.383Z" fill="#FFBB54"/>
<path d="M526.614 154.781C532.3 156.233 537.952 157.849 543.543 159.666C541.481 160.441 539.427 161.135 537.38 161.75C533.88 159.259 530.292 156.936 526.614 154.781Z" fill="#FFBB54"/>
<path d="M554.53 176.181C559.732 178.809 564.852 181.602 569.89 184.562C567.786 185.119 565.697 185.606 563.624 186.022C560.737 182.576 557.691 179.299 554.53 176.181Z" fill="#FFBB54"/>
<path d="M577.305 205.185C581.784 208.865 586.154 212.681 590.417 216.632C588.264 217.025 586.132 217.353 584.029 217.64C581.972 213.353 579.716 209.202 577.305 205.185Z" fill="#FFBB54"/>
<path d="M593.081 240.96C596.649 245.5 600.078 250.152 603.37 254.915C601.149 255.189 598.956 255.423 596.79 255.616C595.756 250.638 594.52 245.752 593.081 240.96Z" fill="#FFBB54"/>
<path d="M600.175 282.259C602.663 287.452 605.006 292.718 607.204 298.058C604.878 298.251 602.581 298.433 600.307 298.565C600.492 293.077 600.448 287.641 600.175 282.259Z" fill="#FFBB54"/>
<path d="M597.164 327.468C598.475 333.065 599.636 338.7 600.646 344.374C598.167 344.492 595.713 344.632 593.278 344.743C594.839 338.987 596.119 333.216 597.164 327.468Z" fill="#FFBB54"/>
<path d="M582.972 374.662C583.07 380.401 583.012 386.145 582.797 391.894C580.108 391.966 577.435 392.045 574.777 392.132C577.76 386.352 580.51 380.53 582.972 374.662Z" fill="#FFBB54"/>
<path d="M556.946 421.673C555.833 427.293 554.547 432.883 553.165 438.452C550.207 438.434 547.254 438.489 544.312 438.498C548.78 432.995 552.991 427.387 556.946 421.673Z" fill="#FFBB54"/>
<path d="M518.888 466.193C516.632 471.445 514.243 476.637 511.72 481.771C508.438 481.667 505.154 481.564 501.87 481.502C507.77 476.537 513.442 471.434 518.888 466.193Z" fill="#FFBB54"/>
<path d="M469.095 505.858C465.816 510.511 462.403 515.068 458.907 519.553C455.254 519.276 451.593 519.022 447.922 518.789C455.196 514.69 462.245 510.35 469.095 505.858Z" fill="#FFBB54"/>
<path d="M408.348 538.353C404.202 542.199 399.967 545.939 395.641 549.571C391.588 549.066 387.516 548.59 383.432 548.08C391.904 545.052 400.21 541.81 408.348 538.353Z" fill="#FFBB54"/>
<path d="M337.909 561.491C333.101 564.373 328.228 567.127 323.29 569.753C318.825 568.93 314.337 568.099 309.825 567.26C319.319 565.603 328.68 563.68 337.909 561.491Z" fill="#FFBB54"/>
<path d="M259.483 573.31C254.228 575.083 248.949 576.734 243.644 578.263C238.783 576.989 233.891 575.725 228.966 574.469C239.221 574.408 249.398 573.99 259.483 573.31Z" fill="#FFBB54"/>
<path d="M175.166 572.143C169.731 572.786 164.287 573.223 158.859 573.569C153.622 571.812 148.368 569.993 143.08 568.166C153.798 569.851 164.494 571.177 175.166 572.143Z" fill="#FFBB54"/>
<path d="M87.4089 556.684C82.0397 556.097 76.7001 555.393 71.4094 554.512C65.8839 552.089 60.3068 549.686 54.7278 547.189C65.5885 550.693 76.4822 553.858 87.4089 556.684Z" fill="#FFBB54"/>
<path d="M417.042 149.186C419.804 148.182 422.584 147.225 425.381 146.314C424.453 146.821 423.52 147.304 422.581 147.762C420.725 148.193 418.878 148.668 417.042 149.186Z" fill="#FFBB54"/>
<path d="M448.513 144.422C451.386 144.049 454.264 143.723 457.147 143.442C456.204 143.782 455.265 144.114 454.319 144.408C452.381 144.368 450.446 144.373 448.513 144.422Z" fill="#FFBB54"/>
<path d="M480.713 147.764C483.563 148.028 486.409 148.335 489.249 148.685C488.315 148.899 487.382 149.101 486.451 149.271C484.547 148.718 482.635 148.216 480.713 147.764Z" fill="#FFBB54"/>
<path d="M511.699 159.668C514.394 160.547 517.081 161.458 519.747 162.421C518.825 162.536 517.909 162.644 516.998 162.734C515.252 161.667 513.486 160.645 511.699 159.668Z" fill="#FFBB54"/>
<path d="M539.389 180.144C541.806 181.585 544.204 183.061 546.583 184.572C545.673 184.643 544.768 184.687 543.867 184.72C542.403 183.158 540.911 181.633 539.389 180.144Z" fill="#FFBB54"/>
<path d="M561.671 208.722C563.709 210.645 565.705 212.613 567.679 214.603C566.764 214.626 565.855 214.658 564.954 214.674C563.907 212.654 562.813 210.67 561.671 208.722Z" fill="#FFBB54"/>
<path d="M576.524 244.458C578.068 246.784 579.597 249.124 581.079 251.494C580.135 251.531 579.198 251.532 578.267 251.562C577.731 249.172 577.15 246.804 576.524 244.458Z" fill="#FFBB54"/>
<path d="M582.133 285.951C583.131 288.553 584.091 291.174 585.032 293.804C584.031 293.831 583.032 293.889 582.042 293.911C582.124 291.244 582.154 288.591 582.133 285.951Z" fill="#FFBB54"/>
<path d="M577.002 331.388C577.426 334.144 577.791 336.912 578.125 339.682C577.025 339.726 575.931 339.779 574.841 339.842C575.601 337.019 576.357 334.208 577.002 331.388Z" fill="#FFBB54"/>
<path d="M560.03 378.639C559.856 381.424 559.615 384.205 559.342 386.984C558.109 387.033 556.882 387.118 555.654 387.173C557.175 384.34 558.625 381.492 560.03 378.639Z" fill="#FFBB54"/>
<path d="M530.599 425.326C529.809 428.004 529.014 430.68 528.149 433.335C526.749 433.389 525.349 433.447 523.949 433.493C526.215 430.785 528.436 428.068 530.599 425.326Z" fill="#FFBB54"/>
<path d="M488.604 468.943C487.285 471.402 485.917 473.835 484.522 476.251C482.922 476.259 481.32 476.271 479.718 476.285C482.744 473.885 485.706 471.437 488.604 468.943Z" fill="#FFBB54"/>
<path d="M434.479 506.947C432.665 509.061 430.827 511.153 428.967 513.224C427.147 513.136 425.323 513.103 423.497 513.01C427.207 511.035 430.868 509.014 434.479 506.947Z" fill="#FFBB54"/>
<path d="M369.199 536.877C367.002 538.573 364.759 540.206 362.521 541.842C360.469 541.641 358.407 541.459 356.344 541.234C360.674 539.853 364.959 538.4 369.199 536.877Z" fill="#FFBB54"/>
<path d="M294.239 556.444C291.739 557.611 289.238 558.772 286.716 559.873C284.432 559.472 282.131 559.128 279.836 558.709C284.671 558.05 289.472 557.295 294.239 556.444Z" fill="#FFBB54"/>
<path d="M211.553 563.633C208.883 564.241 206.211 564.806 203.537 565.37C201.031 564.75 198.517 564.119 195.995 563.477C201.199 563.604 206.385 563.656 211.553 563.633Z" fill="#FFBB54"/>
<path d="M123.502 556.771C120.791 556.793 118.084 556.778 115.38 556.725C112.678 555.807 109.967 554.888 107.258 553.934C112.68 554.947 118.092 555.913 123.502 556.771Z" fill="#FFBB54"/>
<path d="M32.8038 534.595C30.1789 534.004 27.5649 533.391 24.9619 532.755C22.1204 531.463 19.2551 530.195 16.3916 528.9C21.8488 530.887 27.3278 532.763 32.8038 534.595Z" fill="#FFBB54"/>
<path d="M372.583 169.533C372.811 169.408 373.036 169.279 373.26 169.153L373.01 169.241C372.869 169.339 372.725 169.437 372.583 169.533Z" fill="#FFBB54"/>
<path d="M401.618 154.566C401.861 154.491 402.105 154.421 402.348 154.346L402.103 154.391C401.942 154.449 401.781 154.507 401.618 154.566Z" fill="#FFBB54"/>
<path d="M433.493 147.523C433.74 147.504 433.99 147.484 434.24 147.472L434.006 147.482C433.835 147.497 433.663 147.507 433.493 147.523Z" fill="#FFBB54"/>
<path d="M466.269 149.311C466.513 149.356 466.759 149.376 467.002 149.424L466.781 149.413C466.611 149.379 466.441 149.347 466.269 149.311Z" fill="#FFBB54"/>
<path d="M497.774 160.381C497.996 160.48 498.23 160.558 498.453 160.653L498.247 160.63C498.091 160.543 497.929 160.468 497.774 160.381Z" fill="#FFBB54"/>
<path d="M525.691 180.684C525.889 180.825 526.094 180.955 526.289 181.099L526.09 181.074C525.964 180.936 525.822 180.815 525.691 180.684Z" fill="#FFBB54"/>
<path d="M547.711 209.623C547.878 209.797 548.032 209.985 548.197 210.16L547.999 210.141C547.905 209.968 547.821 209.787 547.711 209.623Z" fill="#FFBB54"/>
<path d="M561.652 246.083C561.778 246.289 561.879 246.509 562.005 246.714L561.796 246.709C561.742 246.499 561.704 246.29 561.652 246.083Z" fill="#FFBB54"/>
<path d="M565.593 288.445C565.652 288.679 565.729 288.907 565.795 289.14L565.565 289.149C565.568 288.913 565.567 288.677 565.593 288.445Z" fill="#FFBB54"/>
<path d="M557.989 334.672C558.014 334.912 558.012 335.156 558.033 335.396L557.771 335.418C557.856 335.173 557.929 334.924 557.989 334.672Z" fill="#FFBB54"/>
<path d="M537.764 382.383C537.743 382.624 537.667 382.858 537.65 383.099L537.343 383.13C537.482 382.88 537.628 382.633 537.764 382.383Z" fill="#FFBB54"/>
<path d="M504.385 428.967C504.299 429.196 504.202 429.42 504.115 429.647L503.752 429.677C503.963 429.439 504.175 429.206 504.385 428.967Z" fill="#FFBB54"/>
<path d="M457.885 471.711C457.737 471.904 457.608 472.113 457.476 472.318C457.335 472.313 457.193 472.345 457.051 472.338C457.324 472.125 457.607 471.92 457.885 471.711Z" fill="#FFBB54"/>
<path d="M398.893 507.899C398.728 508.075 398.534 508.227 398.366 508.405C398.201 508.407 398.035 508.411 397.871 508.402C398.218 508.246 398.546 508.049 398.893 507.899Z" fill="#FFBB54"/>
<path d="M328.619 534.937C328.423 535.083 328.215 535.211 327.996 535.32C327.808 535.31 327.621 535.27 327.432 535.275C327.832 535.175 328.226 535.057 328.619 534.937Z" fill="#FFBB54"/>
<path d="M248.8 550.459C248.562 550.51 248.348 550.647 248.112 550.7C247.898 550.689 247.686 550.655 247.479 550.6C247.92 550.555 248.358 550.498 248.8 550.459Z" fill="#FFBB54"/>
<path d="M161.67 552.423C161.432 552.459 161.186 552.455 160.949 552.512C160.722 552.438 160.49 552.38 160.255 552.338C160.726 552.372 161.198 552.392 161.67 552.423Z" fill="#FFBB54"/>
<path d="M69.8829 539.189C69.6434 539.152 69.4008 539.163 69.1637 539.117C68.9052 539.062 68.6696 538.925 68.4159 538.854C68.9129 538.925 69.396 539.071 69.8829 539.189Z" fill="#FFBB54"/>
</g>
<defs>
<filter id="filter0_f_258_66059" x="-165" y="-349" width="1508.16" height="1508.16" filterUnits="userSpaceOnUse" color-interpolation-filters="sRGB">
<feFlood flood-opacity="0" result="BackgroundImageFix"/>
<feBlend mode="normal" in="SourceGraphic" in2="BackgroundImageFix" result="shape"/>
<feGaussianBlur stdDeviation="77" result="effect1_foregroundBlur_258_66059"/>
</filter>
<clipPath id="clip0_258_66059">
<rect width="1048.32" height="648.961" fill="white" transform="translate(35.4458 592.721) rotate(-45)"/>
</clipPath>
<clipPath id="clip1_258_66059">
<rect width="1048.32" height="648.961" fill="white" transform="translate(-11 546.275) rotate(-45)"/>
</clipPath>
</defs>
</svg>
