<svg width="415" height="1006" viewBox="0 0 415 1006" fill="none" xmlns="http://www.w3.org/2000/svg">
<g opacity="0.3">
<g clip-path="url(#clip0_258_66575)">
<path d="M246.926 205.963C239.678 209.174 232.493 212.618 225.371 216.296C226.348 223.042 227.48 229.681 228.766 236.215C234.397 225.918 240.45 215.834 246.926 205.963Z" fill="#FFBB54"/>
<path d="M209.63 275.777C203.202 280.261 196.877 284.952 190.655 289.85C192.804 296.093 195.032 302.229 197.432 308.214C201.053 297.275 205.119 286.463 209.63 275.777Z" fill="#FFBB54"/>
<path d="M185.996 349.789C180.62 355.338 175.337 361.029 170.248 366.935C173.397 372.518 176.655 377.953 180.023 383.241C181.58 372.052 183.542 360.883 185.996 349.789Z" fill="#FFBB54"/>
<path d="M176.45 425.357C172.291 431.712 168.277 438.194 164.409 444.804C168.451 449.564 172.552 454.184 176.71 458.663C176.182 447.604 176.095 436.502 176.45 425.357Z" fill="#FFBB54"/>
<path d="M180.861 499.893C177.99 506.762 175.309 513.734 172.82 520.81C177.555 524.669 182.338 528.368 187.126 531.956C184.623 521.387 182.534 510.699 180.861 499.893Z" fill="#FFBB54"/>
<path d="M198.579 570.977C197.054 578.09 195.742 585.266 194.641 592.505C199.89 595.409 205.139 598.196 210.414 600.798C206.09 591.044 202.11 581.105 198.579 570.977Z" fill="#FFBB54"/>
<path d="M228.506 636.437C228.335 643.518 228.364 650.619 228.594 657.74C234.185 659.648 239.749 661.479 245.302 663.151C239.357 654.501 233.758 645.596 228.506 636.437Z" fill="#FFBB54"/>
<path d="M269.181 694.419C270.279 701.204 271.567 707.969 273.046 714.712C278.797 715.695 284.514 716.564 290.197 717.319C282.901 709.991 275.896 702.358 269.181 694.419Z" fill="#FFBB54"/>
<path d="M318.865 743.43C321.114 749.681 323.515 755.886 326.111 762.013C331.879 762.07 337.599 762.098 343.271 761.978C334.906 756.143 326.779 749.93 318.865 743.43Z" fill="#FFBB54"/>
<path d="M375.644 782.362C378.874 787.871 382.241 793.297 385.746 798.64C391.397 797.875 396.997 797.059 402.547 796.19C393.427 791.929 384.432 787.351 375.644 782.362Z" fill="#FFBB54"/>
<path d="M300.256 190.195C292.941 192.258 285.655 194.551 278.396 197.075C278.894 203.478 279.533 209.788 280.315 216.006C286.597 207.156 293.281 198.567 300.256 190.195Z" fill="#FFBB54"/>
<path d="M258.412 250.297C251.693 253.696 245.05 257.327 238.468 261.139C240.053 267.151 241.768 273.047 243.614 278.827C248.142 269.143 253.074 259.633 258.412 250.297Z" fill="#FFBB54"/>
<path d="M228.463 315.899C222.584 320.462 216.816 325.219 211.159 330.17C213.751 335.616 216.426 340.943 219.215 346.126C221.894 335.961 224.976 325.886 228.463 315.899Z" fill="#FFBB54"/>
<path d="M211.189 384.677C206.335 390.177 201.665 395.884 197.106 401.714C200.561 406.462 204.076 411.081 207.675 415.551C208.43 405.243 209.601 394.952 211.189 384.677Z" fill="#FFBB54"/>
<path d="M206.86 454.26C203.22 460.491 199.718 466.836 196.413 473.313C200.589 477.254 204.789 481.081 209.042 484.751C207.914 474.645 207.187 464.482 206.86 454.26Z" fill="#FFBB54"/>
<path d="M215.26 522.354C212.882 529.02 210.692 535.774 208.69 542.617C213.409 545.708 218.145 548.665 222.896 551.488C219.976 541.902 217.431 532.19 215.26 522.354Z" fill="#FFBB54"/>
<path d="M235.731 586.817C234.681 593.658 233.803 600.543 233.099 607.471C238.207 609.678 243.301 611.779 248.404 613.714C243.794 604.956 239.626 595.952 235.731 586.817Z" fill="#FFBB54"/>
<path d="M267.233 645.736C267.44 652.48 267.84 659.231 268.431 665.989C273.775 667.297 279.086 668.542 284.379 669.636C278.356 661.914 272.641 653.947 267.233 645.736Z" fill="#FFBB54"/>
<path d="M308.42 697.478C309.788 703.889 311.399 710.259 313.174 716.59C318.609 717.067 324.005 717.456 329.361 717.758C322.131 711.281 315.124 704.528 308.42 697.478Z" fill="#FFBB54"/>
<path d="M357.705 740.727C360.167 746.572 362.802 752.344 365.611 758.043C371.018 757.729 376.382 757.398 381.688 756.911C373.492 751.844 365.497 746.45 357.705 740.727Z" fill="#FFBB54"/>
<path d="M413.355 774.508C416.735 779.588 420.269 784.562 423.886 789.473C429.166 788.451 434.396 787.382 439.575 786.267C430.712 782.654 421.972 778.735 413.355 774.508Z" fill="#FFBB54"/>
<path d="M314.64 228.883C304.874 231.879 295.184 235.374 285.58 239.274C287.149 247.411 288.973 255.338 291.05 263.056C298.274 251.237 306.15 239.828 314.64 228.883Z" fill="#FFBB54"/>
<path d="M278.993 284.389C270.086 289.196 261.301 294.386 252.731 300.031C255.647 307.514 258.778 314.752 262.125 321.746C267.047 308.988 272.678 296.516 278.993 284.389Z" fill="#FFBB54"/>
<path d="M254.22 344.593C246.467 350.923 238.968 357.665 231.705 364.738C235.821 371.378 240.126 377.741 244.544 383.854C247.005 370.589 250.236 357.48 254.22 344.593Z" fill="#FFBB54"/>
<path d="M240.99 407.442C234.686 415.043 228.68 422.951 222.971 431.167C228.123 436.801 233.366 442.178 238.699 447.296C238.695 433.977 239.46 420.67 240.99 407.442Z" fill="#FFBB54"/>
<path d="M239.526 470.847C234.854 479.371 230.523 488.128 226.532 497.119C232.492 501.673 238.497 505.968 244.549 510.004C242.122 497.058 240.444 483.984 239.526 470.847Z" fill="#FFBB54"/>
<path d="M249.641 532.775C246.719 541.863 244.176 551.119 241.961 560.494C248.538 563.893 255.081 567.126 261.662 570.022C256.943 557.847 252.929 545.41 249.641 532.775Z" fill="#FFBB54"/>
<path d="M270.767 591.32C269.597 600.597 268.857 609.965 268.449 619.377C275.421 621.655 282.357 623.714 289.256 625.553C282.435 614.509 276.262 603.079 270.767 591.32Z" fill="#FFBB54"/>
<path d="M302.005 644.766C302.57 653.881 303.524 662.987 304.866 672.087C312.061 673.244 319.19 674.223 326.253 675.023C317.607 665.402 309.511 655.3 302.005 644.766Z" fill="#FFBB54"/>
<path d="M342.179 691.629C344.383 700.238 346.931 708.768 349.822 717.218C357.079 717.308 364.252 717.274 371.338 717.116C361.16 709.16 351.426 700.651 342.179 691.629Z" fill="#FFBB54"/>
<path d="M389.904 730.688C393.535 738.5 397.483 746.159 401.749 753.667C408.933 752.808 416.025 751.847 423.026 750.782C411.638 744.675 400.582 737.967 389.904 730.688Z" fill="#FFBB54"/>
<path d="M370.363 218.261C358.103 219.819 345.944 222.08 333.946 225.035C335.182 234.663 336.824 243.992 338.872 253.021C348.548 240.716 359.071 229.102 370.363 218.261Z" fill="#FFBB54"/>
<path d="M331.12 263.276C319.495 267.169 308.102 271.721 296.997 276.912C299.849 285.863 303.025 294.465 306.527 302.719C313.784 289.007 322.003 275.826 331.12 263.276Z" fill="#FFBB54"/>
<path d="M300.793 314.087C290.256 320.122 280.06 326.733 270.252 333.89C274.539 341.946 279.083 349.616 283.882 356.899C288.494 342.243 294.145 327.936 300.793 314.087Z" fill="#FFBB54"/>
<path d="M280.344 369.005C271.267 376.864 262.634 385.221 254.483 394.037C260.016 401.019 265.727 407.6 271.616 413.78C273.435 398.661 276.352 383.696 280.344 369.005Z" fill="#FFBB54"/>
<path d="M270.367 426.227C263.067 435.559 256.285 445.286 250.051 455.363C256.629 461.132 263.291 466.518 270.036 471.522C269.045 456.434 269.156 441.295 270.367 426.227Z" fill="#FFBB54"/>
<path d="M271.098 483.913C265.798 494.308 261.064 504.984 256.917 515.892C264.278 520.411 271.687 524.531 279.092 528.305C275.344 513.721 272.673 498.884 271.098 483.913Z" fill="#FFBB54"/>
<path d="M282.407 540.256C279.252 551.28 276.669 562.46 274.668 573.752C282.609 576.976 290.531 579.827 298.388 582.389C292.06 568.744 286.719 554.663 282.407 540.256Z" fill="#FFBB54"/>
<path d="M303.835 593.545C302.822 604.74 302.395 615.98 302.556 627.221C310.864 629.183 319.105 630.786 327.241 632.179C318.538 619.868 310.716 606.958 303.835 593.545Z" fill="#FFBB54"/>
<path d="M334.629 642.212C335.718 653.106 337.36 663.962 339.555 674.779C348.053 675.482 356.432 675.972 364.694 676.246C353.893 665.614 343.847 654.242 334.629 642.212Z" fill="#FFBB54"/>
<path d="M373.792 684.881C376.823 695.119 380.363 705.208 384.413 715.148C392.936 714.747 401.327 714.159 409.587 713.383C397.031 704.695 385.072 695.173 373.792 684.881Z" fill="#FFBB54"/>
<path d="M420.123 720.387C424.902 729.587 430.096 738.561 435.706 747.307C444.14 745.886 452.43 744.273 460.6 742.606C446.644 736.082 433.123 728.659 420.123 720.387Z" fill="#FFBB54"/>
<path d="M382.312 252.613C369.131 254.637 356.103 257.542 343.314 261.309C345.684 270.613 348.559 279.782 351.926 288.775C361.088 275.94 371.248 263.849 382.312 252.613Z" fill="#FFBB54"/>
<path d="M348.467 293.736C336.047 298.289 323.941 303.652 312.226 309.792C316.104 318.264 320.43 326.523 325.188 334.535C331.845 320.334 339.629 306.69 348.467 293.736Z" fill="#FFBB54"/>
<path d="M322.695 340.013C311.515 346.854 300.789 354.41 290.583 362.633C295.79 370.089 301.374 377.275 307.316 384.161C311.233 369.05 316.377 354.285 322.695 340.013Z" fill="#FFBB54"/>
<path d="M305.876 389.98C296.351 398.78 287.393 408.175 279.056 418.109C285.541 424.578 292.164 430.568 298.924 436.081C299.96 420.546 302.285 405.126 305.876 389.98Z" fill="#FFBB54"/>
<path d="M298.585 442.057C291.042 452.411 284.152 463.226 277.955 474.44C285.357 479.639 292.837 484.351 300.306 488.666C298.472 473.2 297.897 457.612 298.585 442.057Z" fill="#FFBB54"/>
<path d="M301.085 494.615C295.763 506.071 291.143 517.841 287.249 529.859C295.343 533.752 303.411 537.229 311.453 540.29C306.744 525.375 303.277 510.097 301.085 494.615Z" fill="#FFBB54"/>
<path d="M313.328 546.03C310.354 558.101 308.101 570.339 306.579 582.679C315.152 585.294 323.663 587.486 332.056 589.382C324.658 575.457 318.395 560.959 313.328 546.03Z" fill="#FFBB54"/>
<path d="M334.975 594.738C334.362 606.929 334.467 619.147 335.291 631.329C344.167 632.676 352.916 633.723 361.539 634.469C351.638 621.955 342.755 608.668 334.975 594.738Z" fill="#FFBB54"/>
<path d="M365.421 639.282C367.109 651.113 369.466 662.841 372.481 674.408C381.499 674.57 390.369 674.469 399.088 674.217C386.985 663.454 375.729 651.774 365.421 639.282Z" fill="#FFBB54"/>
<path d="M403.825 678.346C407.616 689.375 412.026 700.182 417.034 710.716C426.069 709.777 434.952 708.693 443.684 707.463C429.69 698.766 416.367 689.033 403.825 678.346Z" fill="#FFBB54"/>
<path d="M431.588 251.231C417.821 250.938 404.052 251.679 390.399 253.449C392.287 262.735 394.74 271.898 397.744 280.888C408.163 270.06 419.485 260.139 431.588 251.231Z" fill="#FFBB54"/>
<path d="M396.073 282.637C382.627 285.099 369.38 288.539 356.439 292.931C359.808 301.463 363.697 309.78 368.085 317.837C376.377 305.314 385.741 293.537 396.073 282.637Z" fill="#FFBB54"/>
<path d="M366.759 319.859C354.173 324.911 341.968 330.862 330.237 337.665C334.948 345.258 340.095 352.571 345.654 359.566C351.518 345.739 358.58 332.452 366.759 319.859Z" fill="#FFBB54"/>
<path d="M344.721 361.799C333.487 369.185 322.789 377.355 312.706 386.248C318.555 392.778 324.765 398.976 331.305 404.813C334.495 390.104 338.985 375.71 344.721 361.799Z" fill="#FFBB54"/>
<path d="M330.801 407.19C321.344 416.56 312.543 426.572 304.463 437.153C311.253 442.536 318.322 447.556 325.64 452.194C326.014 437.066 327.741 422.005 330.801 407.19Z" fill="#FFBB54"/>
<path d="M325.593 454.643C318.237 465.563 311.632 476.972 305.823 488.791C313.564 493.07 321.311 496.871 329.004 500.255C326.511 485.18 325.369 469.916 325.593 454.643Z" fill="#FFBB54"/>
<path d="M329.419 502.698C324.402 514.695 320.189 527.013 316.806 539.571C325.097 542.635 333.332 545.252 341.456 547.509C336.127 532.955 332.098 517.959 329.419 502.698Z" fill="#FFBB54"/>
<path d="M342.333 549.87C339.758 562.428 338.021 575.144 337.136 587.936C345.817 589.793 354.384 591.268 362.802 592.491C354.748 578.907 347.898 564.646 342.333 549.87Z" fill="#FFBB54"/>
<path d="M364.12 594.699C364.044 607.309 364.764 619.912 366.276 632.434C375.2 633.132 383.969 633.589 392.583 633.805C382.005 621.598 372.483 608.516 364.12 594.699Z" fill="#FFBB54"/>
<path d="M394.315 635.788C396.615 647.944 399.664 659.948 403.445 671.73C412.495 671.388 421.385 670.86 430.116 670.147C417.266 659.69 405.292 648.198 394.315 635.788Z" fill="#FFBB54"/>
<path d="M442.527 280.097C428.864 280.202 415.232 281.377 401.756 283.61C404.604 291.793 407.999 299.776 411.919 307.505C421.291 297.481 431.533 288.31 442.527 280.097Z" fill="#FFBB54"/>
<path d="M411.358 308.111C398.096 310.949 385.076 314.812 372.416 319.666C376.518 327.013 381.103 334.08 386.142 340.821C393.528 329.168 401.969 318.219 411.358 308.111Z" fill="#FFBB54"/>
<path d="M385.697 341.522C373.374 346.938 361.482 353.284 350.125 360.505C355.33 366.888 360.927 372.941 366.884 378.629C372.003 365.708 378.301 353.286 385.697 341.522Z" fill="#FFBB54"/>
<path d="M366.578 379.41C355.684 387.132 345.381 395.654 335.753 404.904C341.887 410.24 348.317 415.228 355.01 419.843C357.606 406.034 361.479 392.499 366.578 379.41Z" fill="#FFBB54"/>
<path d="M354.857 420.68C345.812 430.343 337.479 440.649 329.925 451.519C336.799 455.788 343.891 459.697 351.171 463.228C351.055 448.959 352.29 434.713 354.857 420.68Z" fill="#FFBB54"/>
<path d="M351.18 464.094C344.302 475.252 338.227 486.887 333.003 498.911C340.658 502.19 348.273 505.001 355.78 507.448C352.909 493.168 351.369 478.654 351.18 464.094Z" fill="#FFBB54"/>
<path d="M355.958 508.317C351.474 520.482 347.841 532.945 345.084 545.616C353.178 547.798 361.152 549.631 369.007 551.116C363.347 537.281 358.979 522.953 355.958 508.317Z" fill="#FFBB54"/>
<path d="M369.353 551.959C367.371 564.609 366.252 577.38 366.004 590.185C374.407 591.342 382.667 592.197 390.769 592.819C382.42 579.866 375.252 566.191 369.353 551.959Z" fill="#FFBB54"/>
<path d="M391.279 593.609C391.797 606.22 393.155 618.784 395.342 631.218C403.962 631.388 412.424 631.377 420.728 631.184C409.84 619.536 399.986 606.964 391.279 593.609Z" fill="#FFBB54"/>
<path d="M421.395 631.896C424.305 643.959 427.995 655.822 432.442 667.409C441.215 666.684 449.839 665.846 458.317 664.895C445.105 654.951 432.754 643.913 421.395 631.896Z" fill="#FFBB54"/>
<path d="M454.328 304.59C441.643 305.125 429.02 306.646 416.574 309.138C419.979 315.654 423.82 321.933 428.072 327.931C436.119 319.392 444.906 311.582 454.328 304.59Z" fill="#FFBB54"/>
<path d="M426.671 329.434C414.457 332.541 402.497 336.569 390.894 341.484C395.245 347.183 399.964 352.593 405.02 357.678C411.37 347.628 418.616 338.175 426.671 329.434Z" fill="#FFBB54"/>
<path d="M403.917 359.45C392.671 364.94 381.854 371.266 371.557 378.374C376.71 383.202 382.155 387.709 387.861 391.868C392.2 380.588 397.575 369.735 403.917 359.45Z" fill="#FFBB54"/>
<path d="M387.107 393.853C377.288 401.464 368.042 409.786 359.442 418.751C365.262 422.675 371.292 426.276 377.506 429.538C379.594 417.369 382.809 405.423 387.107 393.853Z" fill="#FFBB54"/>
<path d="M377.15 431.686C369.143 441.061 361.817 450.997 355.227 461.417C361.761 464.522 368.263 467.226 374.686 469.569C374.328 456.89 375.153 444.208 377.15 431.686Z" fill="#FFBB54"/>
<path d="M374.762 471.811C368.865 482.521 363.718 493.628 359.358 505.053C366.307 507.27 373.176 509.127 379.922 510.703C377.013 497.923 375.286 484.904 374.762 471.811Z" fill="#FFBB54"/>
<path d="M380.449 512.967C376.852 524.536 374.044 536.336 372.042 548.286C379.32 549.638 386.471 550.741 393.495 551.596C387.988 539.138 383.622 526.209 380.449 512.967Z" fill="#FFBB54"/>
<path d="M394.483 553.807C393.27 565.733 392.852 577.728 393.231 589.713C400.772 590.272 408.174 590.651 415.438 590.849C407.384 579.137 400.372 566.742 394.483 553.807Z" fill="#FFBB54"/>
<path d="M416.882 592.929C418.023 604.716 419.944 616.416 422.632 627.952C430.396 627.778 438.029 627.481 445.529 627.062C435.027 616.519 425.443 605.1 416.882 592.929Z" fill="#FFBB54"/>
<path d="M442.196 346.385C431.43 349.614 420.91 353.608 410.716 358.338C414.894 362.381 419.321 366.159 423.97 369.649C429.36 361.381 435.458 353.597 442.196 346.385Z" fill="#FFBB54"/>
<path d="M421.59 373.414C411.796 378.777 402.387 384.812 393.429 391.475C398.145 394.784 403.039 397.832 408.089 400.605C411.769 391.156 416.288 382.056 421.59 373.414Z" fill="#FFBB54"/>
<path d="M406.479 404.903C398.056 412.122 390.136 419.909 382.774 428.208C388.069 430.887 393.346 433.233 398.565 435.262C400.297 424.926 402.945 414.766 406.479 404.903Z" fill="#FFBB54"/>
<path d="M397.844 439.967C391.126 448.706 385.003 457.886 379.515 467.446C385.162 469.434 390.751 471.108 396.236 472.569C395.809 461.674 396.347 450.764 397.844 439.967Z" fill="#FFBB54"/>
<path d="M396.495 477.529C391.75 487.394 387.648 497.556 384.216 507.953C390.157 509.288 395.997 510.405 401.736 511.303C399.013 500.217 397.259 488.916 396.495 477.529Z" fill="#FFBB54"/>
<path d="M403.044 516.353C400.434 526.902 398.483 537.603 397.2 548.396C403.402 549.112 409.491 549.689 415.467 550.126C410.378 539.239 406.223 527.94 403.044 516.353Z" fill="#FFBB54"/>
<path d="M417.857 555.082C417.421 565.848 417.651 576.632 418.548 587.373C424.996 587.546 431.338 587.623 437.572 587.604C430.12 577.321 423.526 566.444 417.857 555.082Z" fill="#FFBB54"/>
<path d="M424.056 413.384C417.431 419.763 411.186 426.527 405.354 433.64C409.562 435.156 413.718 436.477 417.822 437.6C419.246 429.373 421.331 421.274 424.056 413.384Z" fill="#FFBB54"/>
<path d="M416.534 446.468C411.418 454.054 406.738 461.925 402.516 470.044C406.941 471.114 411.294 472.034 415.574 472.804C415.204 464.013 415.525 455.207 416.534 446.468Z" fill="#FFBB54"/>
<path d="M416.232 482.258C412.824 490.698 409.885 499.321 407.429 508.086C412.061 508.77 416.614 509.339 421.09 509.792C418.772 500.75 417.148 491.545 416.232 482.258Z" fill="#FFBB54"/>
<path d="M423.849 519.488C422.265 528.401 421.163 537.393 420.547 546.425C425.401 546.745 430.179 546.981 434.881 547.183C430.527 538.235 426.84 528.978 423.849 519.488Z" fill="#FFBB54"/>
</g>
<g opacity="0.4" clip-path="url(#clip1_258_66575)" filter="url(#filter0_f_258_66575)">
<path d="M282.281 170.607C275.033 173.818 267.848 177.263 260.726 180.941C261.703 187.687 262.835 194.326 264.121 200.859C269.752 190.563 275.805 180.479 282.281 170.607Z" fill="#FFBB54"/>
<path d="M244.985 240.422C238.557 244.906 232.232 249.597 226.011 254.495C228.159 260.738 230.387 266.873 232.788 272.858C236.409 261.92 240.475 251.108 244.985 240.422Z" fill="#FFBB54"/>
<path d="M221.352 314.434C215.975 319.983 210.692 325.674 205.603 331.579C208.752 337.163 212.01 342.598 215.378 347.885C216.935 336.696 218.897 325.528 221.352 314.434Z" fill="#FFBB54"/>
<path d="M211.806 390.002C207.647 396.356 203.633 402.839 199.764 409.449C203.807 414.209 207.907 418.828 212.065 423.308C211.537 412.248 211.45 401.146 211.806 390.002Z" fill="#FFBB54"/>
<path d="M216.216 464.538C213.345 471.406 210.665 478.378 208.175 485.454C212.91 489.313 217.693 493.012 222.482 496.6C219.978 486.031 217.89 475.344 216.216 464.538Z" fill="#FFBB54"/>
<path d="M233.934 535.622C232.41 542.735 231.097 549.911 229.996 557.15C235.245 560.053 240.495 562.841 245.77 565.443C241.445 555.688 237.465 545.75 233.934 535.622Z" fill="#FFBB54"/>
<path d="M263.861 601.082C263.69 608.163 263.719 615.263 263.95 622.384C269.54 624.293 275.104 626.124 280.658 627.796C274.712 619.145 269.113 610.241 263.861 601.082Z" fill="#FFBB54"/>
<path d="M304.536 659.064C305.634 665.849 306.922 672.613 308.401 679.357C314.152 680.339 319.869 681.208 325.552 681.963C318.256 674.636 311.251 667.003 304.536 659.064Z" fill="#FFBB54"/>
<path d="M354.221 708.074C356.469 714.326 358.871 720.53 361.467 726.658C367.234 726.715 372.955 726.742 378.626 726.622C370.261 720.788 362.135 714.575 354.221 708.074Z" fill="#FFBB54"/>
<path d="M410.999 747.007C414.229 752.516 417.596 757.942 421.101 763.284C426.752 762.52 432.353 761.703 437.902 760.835C428.783 756.574 419.787 751.996 410.999 747.007Z" fill="#FFBB54"/>
<path d="M335.611 154.84C328.296 156.902 321.01 159.195 313.751 161.719C314.249 168.122 314.888 174.433 315.67 180.65C321.952 171.801 328.636 163.211 335.611 154.84Z" fill="#FFBB54"/>
<path d="M293.767 214.942C287.048 218.34 280.405 221.972 273.823 225.784C275.408 231.795 277.123 237.691 278.969 243.471C283.497 233.787 288.429 224.278 293.767 214.942Z" fill="#FFBB54"/>
<path d="M263.818 280.544C257.939 285.107 252.171 289.864 246.514 294.814C249.106 300.26 251.781 305.587 254.571 310.77C257.249 300.606 260.331 290.53 263.818 280.544Z" fill="#FFBB54"/>
<path d="M246.544 349.321C241.69 354.822 237.021 360.529 232.461 366.359C235.917 371.107 239.431 375.726 243.03 380.195C243.785 369.888 244.956 359.596 246.544 349.321Z" fill="#FFBB54"/>
<path d="M242.215 418.905C238.575 425.136 235.073 431.48 231.768 437.958C235.944 441.898 240.144 445.726 244.397 449.396C243.269 439.29 242.542 429.126 242.215 418.905Z" fill="#FFBB54"/>
<path d="M250.615 486.999C248.238 493.664 246.048 500.419 244.045 507.261C248.764 510.353 253.5 513.31 258.252 516.133C255.331 506.546 252.786 496.835 250.615 486.999Z" fill="#FFBB54"/>
<path d="M271.086 551.461C270.036 558.303 269.158 565.187 268.454 572.115C273.562 574.322 278.657 576.424 283.759 578.358C279.149 569.601 274.981 560.596 271.086 551.461Z" fill="#FFBB54"/>
<path d="M302.588 610.38C302.796 617.125 303.195 623.876 303.786 630.634C309.131 631.942 314.441 633.186 319.734 634.28C313.712 626.558 307.996 618.592 302.588 610.38Z" fill="#FFBB54"/>
<path d="M343.775 662.122C345.144 668.534 346.755 674.903 348.53 681.235C353.964 681.711 359.36 682.101 364.716 682.402C357.486 675.926 350.48 669.173 343.775 662.122Z" fill="#FFBB54"/>
<path d="M393.061 705.372C395.522 711.217 398.157 716.989 400.967 722.688C406.374 722.373 411.737 722.043 417.043 721.556C408.847 716.489 400.853 711.094 393.061 705.372Z" fill="#FFBB54"/>
<path d="M349.995 193.528C340.229 196.524 330.539 200.018 320.935 203.919C322.505 212.056 324.328 219.983 326.405 227.701C333.629 215.881 341.505 204.473 349.995 193.528Z" fill="#FFBB54"/>
<path d="M314.348 249.034C305.441 253.841 296.656 259.03 288.086 264.676C291.002 272.159 294.134 279.397 297.481 286.39C302.402 273.632 308.034 261.161 314.348 249.034Z" fill="#FFBB54"/>
<path d="M289.575 309.238C281.822 315.567 274.323 322.31 267.061 329.382C271.176 336.022 275.481 342.386 279.899 348.499C282.36 335.234 285.591 322.125 289.575 309.238Z" fill="#FFBB54"/>
<path d="M276.345 372.087C270.041 379.688 264.035 387.596 258.327 395.811C263.478 401.446 268.721 406.822 274.054 411.94C274.05 398.622 274.815 385.315 276.345 372.087Z" fill="#FFBB54"/>
<path d="M274.881 435.492C270.21 444.016 265.878 452.773 261.888 461.763C267.847 466.318 273.853 470.613 279.904 474.649C277.477 461.703 275.799 448.629 274.881 435.492Z" fill="#FFBB54"/>
<path d="M284.996 497.42C282.074 506.508 279.532 515.763 277.316 525.139C283.893 528.538 290.436 531.771 297.018 534.666C292.298 522.491 288.284 510.055 284.996 497.42Z" fill="#FFBB54"/>
<path d="M306.123 555.965C304.952 565.242 304.212 574.609 303.805 584.022C310.777 586.3 317.712 588.358 324.611 590.198C317.79 579.154 311.617 567.723 306.123 555.965Z" fill="#FFBB54"/>
<path d="M337.361 609.41C337.926 618.525 338.879 627.632 340.221 636.731C347.416 637.888 354.545 638.867 361.608 639.668C352.962 630.047 344.866 619.945 337.361 609.41Z" fill="#FFBB54"/>
<path d="M377.534 656.273C379.738 664.882 382.286 673.412 385.177 681.862C392.435 681.953 399.607 681.919 406.694 681.761C396.515 673.804 386.781 665.295 377.534 656.273Z" fill="#FFBB54"/>
<path d="M405.718 182.906C393.458 184.463 381.299 186.725 369.302 189.679C370.537 199.308 372.179 208.637 374.227 217.666C383.903 205.361 394.426 193.746 405.718 182.906Z" fill="#FFBB54"/>
<path d="M366.475 227.921C354.85 231.813 343.457 236.366 332.353 241.556C335.204 250.507 338.381 259.11 341.883 267.364C349.14 253.651 357.358 240.471 366.475 227.921Z" fill="#FFBB54"/>
<path d="M336.148 278.731C325.611 284.767 315.415 291.378 305.607 298.535C309.894 306.59 314.438 314.26 319.238 321.544C323.85 306.888 329.501 292.581 336.148 278.731Z" fill="#FFBB54"/>
<path d="M315.699 333.649C306.622 341.509 297.989 349.866 289.838 358.681C295.371 365.664 301.082 372.245 306.971 378.424C308.791 363.305 311.708 348.341 315.699 333.649Z" fill="#FFBB54"/>
<path d="M305.722 390.871C298.422 400.204 291.64 409.93 285.407 420.008C291.984 425.776 298.646 431.163 305.391 436.167C304.401 421.078 304.511 405.94 305.722 390.871Z" fill="#FFBB54"/>
<path d="M306.453 448.557C301.153 458.953 296.42 469.628 292.272 480.537C299.634 485.056 307.042 489.176 314.447 492.949C310.7 478.366 308.028 463.528 306.453 448.557Z" fill="#FFBB54"/>
<path d="M317.762 504.901C314.608 515.924 312.024 527.105 310.023 538.397C317.964 541.62 325.887 544.472 333.744 547.034C327.416 533.388 322.075 519.308 317.762 504.901Z" fill="#FFBB54"/>
<path d="M339.19 558.19C338.177 569.384 337.75 580.625 337.911 591.866C346.219 593.827 354.461 595.431 362.596 596.824C353.893 584.513 346.071 571.602 339.19 558.19Z" fill="#FFBB54"/>
<path d="M369.984 606.856C371.073 617.751 372.715 628.607 374.91 639.423C383.408 640.127 391.787 640.616 400.049 640.891C389.248 630.259 379.202 618.886 369.984 606.856Z" fill="#FFBB54"/>
<path d="M409.147 649.526C412.178 659.763 415.718 669.852 419.768 679.793C428.291 679.392 436.683 678.803 444.943 678.027C432.386 669.339 420.427 659.817 409.147 649.526Z" fill="#FFBB54"/>
<path d="M417.667 217.258C404.487 219.282 391.458 222.187 378.669 225.953C381.04 235.257 383.914 244.426 387.281 253.419C396.443 240.585 406.603 228.494 417.667 217.258Z" fill="#FFBB54"/>
<path d="M383.822 258.381C371.402 262.933 359.296 268.297 347.582 274.437C351.459 282.909 355.785 291.168 360.543 299.18C367.2 284.978 374.985 271.335 383.822 258.381Z" fill="#FFBB54"/>
<path d="M358.05 304.658C346.87 311.499 336.144 319.054 325.938 327.277C331.145 334.734 336.73 341.92 342.671 348.806C346.589 333.694 351.732 318.929 358.05 304.658Z" fill="#FFBB54"/>
<path d="M341.231 354.624C331.706 363.425 322.748 372.82 314.411 382.753C320.897 389.222 327.519 395.213 334.279 400.726C335.315 385.19 337.64 369.77 341.231 354.624Z" fill="#FFBB54"/>
<path d="M333.94 406.701C326.397 417.055 319.507 427.871 313.311 439.085C320.712 444.284 328.192 448.996 335.661 453.311C333.827 437.844 333.252 422.256 333.94 406.701Z" fill="#FFBB54"/>
<path d="M336.44 459.259C331.118 470.715 326.498 482.485 322.604 494.504C330.698 498.396 338.767 501.874 346.809 504.935C342.1 490.019 338.632 474.742 336.44 459.259Z" fill="#FFBB54"/>
<path d="M348.683 510.675C345.71 522.746 343.456 534.984 341.934 547.324C350.507 549.939 359.018 552.13 367.411 554.027C360.013 540.102 353.75 525.604 348.683 510.675Z" fill="#FFBB54"/>
<path d="M370.33 559.383C369.717 571.574 369.822 583.792 370.646 595.973C379.522 597.321 388.272 598.368 396.895 599.113C386.994 586.599 378.11 573.313 370.33 559.383Z" fill="#FFBB54"/>
<path d="M400.776 603.926C402.464 615.758 404.821 627.485 407.836 639.052C416.855 639.214 425.725 639.113 434.444 638.861C422.34 628.099 411.084 616.419 400.776 603.926Z" fill="#FFBB54"/>
<path d="M431.428 247.282C417.982 249.743 404.736 253.184 391.794 257.575C395.163 266.107 399.052 274.425 403.44 282.481C411.732 269.959 421.096 258.181 431.428 247.282Z" fill="#FFBB54"/>
<path d="M402.114 284.503C389.528 289.556 377.323 295.507 365.593 302.31C370.303 309.902 375.45 317.215 381.01 324.211C386.873 310.383 393.935 297.097 402.114 284.503Z" fill="#FFBB54"/>
<path d="M380.077 326.443C368.842 333.829 358.144 341.999 348.062 350.892C353.911 357.422 360.12 363.62 366.66 369.458C369.851 354.749 374.34 340.354 380.077 326.443Z" fill="#FFBB54"/>
<path d="M366.156 371.834C356.699 381.205 347.899 391.217 339.818 401.798C346.608 407.18 353.677 412.201 360.995 416.839C361.369 401.711 363.097 386.649 366.156 371.834Z" fill="#FFBB54"/>
<path d="M360.948 419.287C353.592 430.208 346.987 441.617 341.178 453.435C348.919 457.714 356.667 461.515 364.359 464.9C361.866 449.825 360.724 434.56 360.948 419.287Z" fill="#FFBB54"/>
<path d="M364.774 467.342C359.758 479.339 355.544 491.657 352.161 504.216C360.452 507.28 368.688 509.897 376.811 512.154C371.482 497.6 367.454 482.604 364.774 467.342Z" fill="#FFBB54"/>
<path d="M377.688 514.514C375.113 527.072 373.377 539.789 372.491 552.58C381.172 554.438 389.739 555.913 398.157 557.135C390.103 543.552 383.254 529.29 377.688 514.514Z" fill="#FFBB54"/>
<path d="M399.475 559.344C399.399 571.954 400.12 584.557 401.631 597.079C410.555 597.777 419.324 598.234 427.938 598.449C417.36 586.243 407.838 573.161 399.475 559.344Z" fill="#FFBB54"/>
<path d="M446.713 272.755C433.451 275.593 420.431 279.457 407.771 284.311C411.873 291.658 416.459 298.725 421.497 305.465C428.884 293.812 437.324 282.863 446.713 272.755Z" fill="#FFBB54"/>
<path d="M421.052 306.166C408.729 311.582 396.838 317.928 385.48 325.149C390.685 331.533 396.282 337.586 402.239 343.274C407.358 330.352 413.656 317.931 421.052 306.166Z" fill="#FFBB54"/>
<path d="M401.933 344.054C391.04 351.777 380.736 360.298 371.108 369.548C377.243 374.885 383.672 379.872 390.365 384.488C392.961 370.679 396.834 357.143 401.933 344.054Z" fill="#FFBB54"/>
<path d="M390.213 385.325C381.167 394.987 372.834 405.294 365.28 416.163C372.154 420.433 379.246 424.342 386.527 427.873C386.411 413.603 387.645 399.357 390.213 385.325Z" fill="#FFBB54"/>
<path d="M386.535 428.738C379.657 439.896 373.583 451.532 368.358 463.555C376.013 466.835 383.628 469.645 391.135 472.093C388.264 457.812 386.724 443.299 386.535 428.738Z" fill="#FFBB54"/>
<path d="M391.313 472.962C386.829 485.127 383.196 497.59 380.44 510.261C388.533 512.442 396.507 514.276 404.362 515.761C398.702 501.925 394.334 487.598 391.313 472.962Z" fill="#FFBB54"/>
<path d="M404.708 516.603C402.727 529.253 401.608 542.025 401.359 554.829C409.762 555.987 418.022 556.841 426.124 557.463C417.775 544.511 410.608 530.836 404.708 516.603Z" fill="#FFBB54"/>
<path d="M426.634 558.254C427.152 570.865 428.51 583.429 430.697 595.863C439.317 596.033 447.779 596.021 456.083 595.829C445.195 584.181 435.342 571.608 426.634 558.254Z" fill="#FFBB54"/>
<path d="M439.272 324.094C428.026 329.585 417.21 335.911 406.912 343.019C412.065 347.847 417.51 352.353 423.216 356.512C427.555 345.232 432.93 334.38 439.272 324.094Z" fill="#FFBB54"/>
<path d="M422.463 358.497C412.643 366.108 403.397 374.43 394.797 383.396C400.617 387.319 406.647 390.92 412.861 394.182C414.95 382.014 418.164 370.067 422.463 358.497Z" fill="#FFBB54"/>
<path d="M412.505 396.331C404.499 405.706 397.172 415.641 390.582 426.062C397.116 429.167 403.618 431.87 410.041 434.213C409.684 421.535 410.509 408.852 412.505 396.331Z" fill="#FFBB54"/>
<path d="M410.118 436.456C404.22 447.165 399.073 458.273 394.714 469.697C401.662 471.915 408.531 473.772 415.277 475.348C412.369 462.567 410.642 449.548 410.118 436.456Z" fill="#FFBB54"/>
<path d="M415.804 477.612C412.207 489.18 409.399 500.98 407.397 512.931C414.675 514.283 421.826 515.386 428.85 516.24C423.344 503.783 418.977 490.854 415.804 477.612Z" fill="#FFBB54"/>
<path d="M429.838 518.452C428.625 530.378 428.207 542.373 428.586 554.357C436.127 554.917 443.53 555.295 450.793 555.494C442.739 543.781 435.727 531.386 429.838 518.452Z" fill="#FFBB54"/>
<path d="M433.199 404.611C426.482 413.35 420.358 422.53 414.87 432.09C420.517 434.079 426.106 435.753 431.591 437.214C431.165 426.318 431.703 415.408 433.199 404.611Z" fill="#FFBB54"/>
<path d="M431.85 442.173C427.105 452.038 423.004 462.201 419.571 472.598C425.512 473.933 431.352 475.049 437.091 475.948C434.368 464.861 432.614 453.56 431.85 442.173Z" fill="#FFBB54"/>
</g>
</g>
<defs>
<filter id="filter0_f_258_66575" x="-118.645" y="-97" width="1221.58" height="1221.58" filterUnits="userSpaceOnUse" color-interpolation-filters="sRGB">
<feFlood flood-opacity="0" result="BackgroundImageFix"/>
<feBlend mode="normal" in="SourceGraphic" in2="BackgroundImageFix" result="shape"/>
<feGaussianBlur stdDeviation="77" result="effect1_foregroundBlur_258_66575"/>
</filter>
<clipPath id="clip0_258_66575">
<rect width="798" height="494" fill="white" transform="matrix(-0.707107 -0.707107 -0.707107 0.707107 913.582 656.627)"/>
</clipPath>
<clipPath id="clip1_258_66575">
<rect width="798" height="494" fill="white" transform="matrix(-0.707107 -0.707107 -0.707107 0.707107 948.938 621.271)"/>
</clipPath>
</defs>
</svg>
