<svg width="338" height="827" viewBox="0 0 338 827" fill="none" xmlns="http://www.w3.org/2000/svg">
<g clip-path="url(#clip0_258_68109)">
<path d="M20.0087 229.897C26.6291 230.451 33.2437 231.165 39.8346 232.086C41.382 237.643 42.8893 243.161 44.2411 248.67C36.4406 242.1 28.3362 235.859 20.0087 229.897Z" fill="#FFBB54"/>
<path d="M72.3102 274.665C78.4675 276.359 84.5801 278.207 90.648 280.21C91.3721 285.866 92.0329 291.487 92.6304 297.072C86.1541 289.366 79.4036 281.862 72.3102 274.665Z" fill="#FFBB54"/>
<path d="M115.49 327.123C120.977 329.792 126.388 332.6 131.721 335.546C131.705 341.185 131.621 346.784 131.471 352.342C126.481 343.75 121.154 335.344 115.49 327.123Z" fill="#FFBB54"/>
<path d="M148.684 385.393C153.334 388.845 157.869 392.434 162.308 396.117C161.584 401.643 160.833 407.127 160.055 412.57C156.591 403.4 152.801 394.341 148.684 385.393Z" fill="#FFBB54"/>
<path d="M171.383 447.546C175.055 451.582 178.601 455.705 182.021 459.914C180.728 465.264 179.385 470.566 178.028 475.832C176.165 466.346 173.95 456.917 171.383 447.546Z" fill="#FFBB54"/>
<path d="M183.41 511.678C186.02 516.064 188.492 520.502 190.824 524.994C189.03 530.12 187.187 535.199 185.352 540.252C185.042 530.729 184.423 521.193 183.41 511.678Z" fill="#FFBB54"/>
<path d="M184.905 575.966C186.424 580.46 187.788 584.974 188.996 589.509C186.751 594.378 184.503 599.22 182.3 604.059C183.494 594.75 184.363 585.386 184.905 575.966Z" fill="#FFBB54"/>
<path d="M176.287 638.718C176.708 643.091 177.008 647.451 177.095 651.785C174.541 656.427 171.975 661.042 169.395 665.631C172.023 656.772 174.304 647.787 176.287 638.718Z" fill="#FFBB54"/>
<path d="M158.208 698.406C157.593 702.436 156.826 706.409 155.908 710.328C153.039 714.719 150.222 719.132 147.391 723.526C151.296 715.31 154.887 706.921 158.208 698.406Z" fill="#FFBB54"/>
<path d="M131.531 753.713C129.968 757.199 128.268 760.599 126.418 763.89C123.34 768.093 120.273 772.304 117.218 776.524C122.236 769.103 126.984 761.479 131.531 753.713Z" fill="#FFBB54"/>
<path d="M-27.0807 231.701C-20.5334 231.364 -13.9641 231.271 -7.38897 231.347C-5.52168 236.474 -3.74924 241.584 -2.07166 246.68C-10.1986 241.373 -18.5352 236.353 -27.0807 231.701Z" fill="#FFBB54"/>
<path d="M27.4515 268.113C33.7345 268.978 39.9919 270.03 46.2237 271.268C47.3193 276.573 48.3881 281.839 49.2909 287.09C42.2756 280.485 34.9958 274.159 27.4515 268.113Z" fill="#FFBB54"/>
<path d="M74.4833 313.125C80.2655 315.075 85.9848 317.201 91.6647 319.424C92.0436 324.789 92.3647 330.117 92.6281 335.408C86.8448 327.782 80.7965 320.354 74.4833 313.125Z" fill="#FFBB54"/>
<path d="M112.914 365.138C118.008 367.989 122.998 371.008 127.933 374.101C127.652 379.433 127.354 384.729 126.977 389.984C122.607 381.539 117.919 373.257 112.914 365.138Z" fill="#FFBB54"/>
<path d="M141.955 422.452C146.2 426.025 150.321 429.725 154.346 433.504C153.465 438.733 152.605 443.934 151.686 449.092C148.777 440.104 145.533 431.224 141.955 422.452Z" fill="#FFBB54"/>
<path d="M161.127 483.326C164.402 487.411 167.528 491.593 170.548 495.826C169.176 500.91 167.795 505.964 166.406 510.988C164.967 501.721 163.207 492.5 161.127 483.326Z" fill="#FFBB54"/>
<path d="M170.235 546.032C172.434 550.424 174.537 554.838 176.481 559.297C174.679 564.211 172.873 569.101 171.065 573.967C171.128 564.661 170.806 555.344 170.235 546.032Z" fill="#FFBB54"/>
<path d="M169.36 608.898C170.521 613.332 171.52 617.777 172.357 622.231C170.188 626.968 168.044 631.699 165.859 636.395C167.354 627.288 168.522 618.122 169.36 608.898Z" fill="#FFBB54"/>
<path d="M158.833 670.359C158.921 674.627 158.857 678.867 158.641 683.08C156.157 687.646 153.681 692.207 151.212 696.764C154.056 688.067 156.582 679.252 158.833 670.359Z" fill="#FFBB54"/>
<path d="M139.19 728.974C138.258 732.859 137.204 736.689 135.999 740.444C133.243 744.858 130.494 749.278 127.752 753.702C131.836 745.602 135.631 737.344 139.19 728.974Z" fill="#FFBB54"/>
<path d="M-23.9931 265.823C-15.1068 265.724 -6.20831 265.977 2.70242 266.583C4.66802 273.57 6.49158 280.506 8.1731 287.393C-2.14668 279.621 -12.8849 272.42 -23.9931 265.823Z" fill="#FFBB54"/>
<path d="M26.0875 301.813C34.5724 303.298 42.9926 305.13 51.3483 307.307C52.3785 314.468 53.2854 321.568 54.0692 328.605C45.2224 319.187 35.882 310.243 26.0875 301.813Z" fill="#FFBB54"/>
<path d="M69.2822 345.877C77.0621 348.788 84.6957 352.069 92.211 355.585C92.3556 362.801 92.4155 369.949 92.3907 377.027C85.2424 366.245 77.5287 355.847 69.2822 345.877Z" fill="#FFBB54"/>
<path d="M104.544 396.613C111.333 400.775 117.958 405.182 124.363 409.855C123.715 417.032 123.011 424.142 122.251 431.184C116.952 419.362 111.042 407.823 104.544 396.613Z" fill="#FFBB54"/>
<path d="M131.074 452.512C136.687 457.621 142.041 462.973 147.172 468.488C145.814 475.557 144.429 482.569 143.017 489.523C139.652 476.997 135.671 464.66 131.074 452.512Z" fill="#FFBB54"/>
<path d="M148.345 512.002C152.585 517.808 156.561 523.747 160.272 529.818C158.309 536.746 156.326 543.627 154.322 550.459C152.947 537.554 150.955 524.735 148.345 512.002Z" fill="#FFBB54"/>
<path d="M156.081 573.506C158.863 579.677 161.361 585.915 163.575 592.218C161.069 598.987 158.557 605.725 156.039 612.43C156.657 599.467 156.708 586.471 156.081 573.506Z" fill="#FFBB54"/>
<path d="M154.243 635.467C155.537 641.684 156.53 647.9 157.221 654.116C154.227 660.722 151.244 667.32 148.274 673.91C150.889 661.207 152.852 648.366 154.243 635.467Z" fill="#FFBB54"/>
<path d="M143.014 696.392C142.833 702.295 142.355 708.185 141.58 714.04C138.138 720.493 134.724 726.967 131.34 733.461C135.792 721.294 139.683 708.938 143.014 696.392Z" fill="#FFBB54"/>
<path d="M122.783 754.876C121.242 760.238 119.383 765.502 117.216 770.643C113.377 776.98 109.52 783.327 105.738 789.745C111.935 778.387 117.617 766.764 122.783 754.876Z" fill="#FFBB54"/>
<path d="M-22.3288 298.105C-11.6554 298.383 -0.993733 299.192 9.65613 300.531C11.4746 308.867 13.078 317.125 14.4664 325.305C2.82454 315.425 -9.4683 306.338 -22.3288 298.105Z" fill="#FFBB54"/>
<path d="M23.9589 333.669C34.0827 335.903 44.0948 338.598 53.9952 341.753C54.8049 350.267 55.3926 358.692 55.8975 367.016C45.9826 355.223 35.314 344.084 23.9589 333.669Z" fill="#FFBB54"/>
<path d="M63.9303 376.943C73.1434 380.892 82.1691 385.246 90.9451 390.03C90.7775 398.611 90.5222 407.097 90.1791 415.488C82.2512 402.101 73.4841 389.227 63.9303 376.943Z" fill="#FFBB54"/>
<path d="M96.5472 426.704C104.526 432.056 112.227 437.811 119.62 443.945C118.645 452.516 117.54 460.992 116.438 469.395C110.71 454.763 104.067 440.504 96.5472 426.704Z" fill="#FFBB54"/>
<path d="M120.983 481.6C127.457 488.087 133.6 494.897 139.386 502.004C137.615 510.507 135.828 518.947 134.026 527.324C130.619 511.832 126.263 496.562 120.983 481.6Z" fill="#FFBB54"/>
<path d="M136.637 540.207C141.437 547.455 145.847 554.954 149.848 562.671C147.4 571.089 144.917 579.456 142.514 587.811C141.514 571.84 139.551 555.944 136.637 540.207Z" fill="#FFBB54"/>
<path d="M143.127 601.049C146.141 608.685 148.719 616.486 150.848 624.414C147.772 632.74 144.721 641.06 141.695 649.373C143.122 633.308 143.601 617.172 143.127 601.049Z" fill="#FFBB54"/>
<path d="M140.292 662.65C141.475 670.298 142.195 678.008 142.448 685.741C138.831 694.003 135.169 702.254 131.564 710.545C135.403 694.765 138.317 678.773 140.292 662.65Z" fill="#FFBB54"/>
<path d="M128.176 723.552C127.572 730.84 126.482 738.078 124.913 745.219C120.697 753.397 116.534 761.639 112.33 769.904C118.53 754.783 123.821 739.305 128.176 723.552Z" fill="#FFBB54"/>
<path d="M-20.868 328.807C-9.23359 329.614 2.34691 331.077 13.8182 333.188C15.2491 342.158 16.5007 351.019 17.5729 359.771C5.55071 348.506 -7.29895 338.155 -20.868 328.807Z" fill="#FFBB54"/>
<path d="M22.1952 364.19C33.155 367.078 43.9412 370.59 54.5009 374.709C55.0008 383.863 55.2892 392.908 55.5208 401.844C45.3604 388.486 34.2212 375.9 22.1952 364.19Z" fill="#FFBB54"/>
<path d="M59.4219 407.062C69.2945 411.823 78.8942 417.131 88.1759 422.961C87.7449 432.221 87.2453 441.384 86.6774 450.449C78.6328 435.361 69.5247 420.862 59.4219 407.062Z" fill="#FFBB54"/>
<path d="M89.7489 456.338C98.189 462.658 106.271 469.441 113.959 476.657C112.716 485.976 111.445 495.218 110.144 504.385C104.476 487.915 97.661 471.86 89.7489 456.338Z" fill="#FFBB54"/>
<path d="M112.292 510.795C119.025 518.309 125.331 526.195 131.178 534.416C129.184 543.763 127.194 553.067 125.208 562.328C122.083 544.878 117.768 527.66 112.292 510.795Z" fill="#FFBB54"/>
<path d="M126.364 569.11C131.206 577.408 135.552 585.985 139.378 594.797C136.679 604.168 134.006 613.533 131.36 622.891C130.91 604.873 129.241 586.905 126.364 569.11Z" fill="#FFBB54"/>
<path d="M131.479 629.88C134.302 638.55 136.585 647.385 138.314 656.335C134.941 665.736 131.6 675.167 128.292 684.627C130.573 666.471 131.638 648.181 131.479 629.88Z" fill="#FFBB54"/>
<path d="M127.351 691.654C128.142 700.269 128.344 708.928 127.954 717.568C123.912 727.007 119.893 736.507 115.897 746.07C120.914 728.206 124.74 710.028 127.351 691.654Z" fill="#FFBB54"/>
<path d="M113.9 752.973C112.692 761.13 110.873 769.184 108.46 777.067C103.745 786.552 99.016 796.118 94.2737 805.766C101.972 788.621 108.528 770.985 113.9 752.973Z" fill="#FFBB54"/>
<path d="M-19.7982 357.92C-7.7822 359.327 4.13687 361.471 15.8913 364.342C16.9976 373.467 17.8765 382.486 18.6816 391.385C6.77331 379.217 -6.09491 368.026 -19.7982 357.92Z" fill="#FFBB54"/>
<path d="M20.62 393.381C31.8417 396.974 42.84 401.233 53.5562 406.133C53.7765 415.489 53.9043 424.741 53.9398 433.889C43.9031 419.543 32.7628 405.999 20.62 393.381Z" fill="#FFBB54"/>
<path d="M55.5732 436.24C65.5927 441.729 75.2675 447.824 84.5435 454.493C83.9778 464.034 83.3283 473.489 82.6731 482.873C74.8336 466.667 65.7743 451.078 55.5732 436.24Z" fill="#FFBB54"/>
<path d="M83.9445 485.525C92.3972 492.598 100.407 500.184 107.929 508.239C106.598 517.943 105.233 527.593 103.91 537.211C98.5253 519.52 91.8524 502.245 83.9445 485.525Z" fill="#FFBB54"/>
<path d="M104.776 540.102C111.38 548.372 117.461 557.046 122.982 566.073C120.917 575.936 118.876 585.792 116.86 595.643C114.179 576.864 110.14 558.302 104.776 540.102Z" fill="#FFBB54"/>
<path d="M117.285 598.706C121.852 607.739 125.818 617.061 129.159 626.613C126.392 636.644 123.624 646.695 120.912 656.797C121.078 637.374 119.866 617.962 117.285 598.706Z" fill="#FFBB54"/>
<path d="M120.872 659.963C123.286 669.316 125.041 678.826 126.125 688.422C122.636 698.625 119.121 708.88 115.656 719.225C118.795 699.621 120.538 679.817 120.872 659.963Z" fill="#FFBB54"/>
<path d="M115.137 722.415C115.36 731.642 114.893 740.873 113.74 750.029C109.446 760.383 105.201 770.856 100.895 781.416C107.028 762.111 111.788 742.395 115.137 722.415Z" fill="#FFBB54"/>
<path d="M-18.9609 385.548C-6.97337 387.606 4.87277 390.421 16.5063 393.976C17.3154 402.962 18.0268 411.846 18.6405 420.629C7.09063 407.925 -5.48572 396.192 -18.9609 385.548Z" fill="#FFBB54"/>
<path d="M19.3463 421.409C30.4428 425.64 41.2626 430.565 51.7415 436.154C51.8035 445.442 51.8377 454.65 51.844 463.777C42.1556 448.815 31.2885 434.647 19.3463 421.409Z" fill="#FFBB54"/>
<path d="M52.4362 464.693C62.2302 470.81 71.6197 477.553 80.5461 484.878C79.9179 494.454 79.2911 503.987 78.6655 513.477C71.2096 496.558 62.4397 480.247 52.4362 464.693Z" fill="#FFBB54"/>
<path d="M79.1194 514.511C87.2322 522.197 94.8493 530.389 101.925 539.037C100.604 548.912 99.3105 558.782 98.0452 568.648C93.117 550.152 86.7902 532.054 79.1194 514.511Z" fill="#FFBB54"/>
<path d="M98.3459 569.777C104.515 578.607 110.1 587.83 115.064 597.387C113.041 607.567 111.052 617.786 109.096 628.043C106.964 608.384 103.37 588.908 98.3459 569.777Z" fill="#FFBB54"/>
<path d="M109.223 629.242C113.245 638.78 116.619 648.576 119.324 658.565C116.571 669.059 113.831 679.63 111.103 690.275C111.988 669.915 111.359 649.514 109.223 629.242Z" fill="#FFBB54"/>
<path d="M111.05 691.516C112.825 701.294 113.901 711.185 114.269 721.113C110.687 731.905 107.119 742.814 103.564 753.84C107.563 733.275 110.064 712.446 111.05 691.516Z" fill="#FFBB54"/>
<path d="M103.318 755.091C102.825 764.647 101.604 774.151 99.6666 783.52C95.2293 794.601 90.7368 805.81 86.189 817.148C93.4073 796.91 99.1323 776.169 103.318 755.091Z" fill="#FFBB54"/>
<path d="M-16.9829 412.4C-5.8251 415.038 5.16047 418.359 15.9113 422.347C16.5264 430.646 17.1181 438.876 17.6863 447.035C7.06788 434.59 -4.52524 423.008 -16.9829 412.4Z" fill="#FFBB54"/>
<path d="M19.5738 449.262C29.7765 453.939 39.6874 459.23 49.252 465.104C49.2953 473.787 49.3489 482.43 49.4126 491.035C40.5522 476.368 30.5765 462.403 19.5738 449.262Z" fill="#FFBB54"/>
<path d="M50.9806 493.654C59.8414 500.079 68.2987 507.043 76.3043 514.506C75.7745 523.592 75.2661 532.674 74.7792 541.754C68.0555 525.153 60.1004 509.075 50.9806 493.654Z" fill="#FFBB54"/>
<path d="M75.9648 544.713C83.1484 552.549 89.8355 560.825 95.9868 569.492C94.8289 578.998 93.6898 588.534 92.6335 598.123C88.3922 579.938 82.821 562.087 75.9648 544.713Z" fill="#FFBB54"/>
<path d="M93.3747 601.357C98.6183 610.209 103.296 619.383 107.379 628.824C105.543 638.764 103.77 648.781 101.976 658.871C100.495 639.52 97.6202 620.299 93.3747 601.357Z" fill="#FFBB54"/>
<path d="M102.225 662.303C105.363 671.732 107.873 681.357 109.737 691.115C107.164 701.489 104.584 711.967 101.996 722.551C103.511 702.502 103.587 682.368 102.225 662.303Z" fill="#FFBB54"/>
<path d="M101.716 726.103C102.66 735.659 102.93 745.268 102.524 754.86C99.081 765.636 95.6641 776.558 92.1096 787.582C96.7926 767.35 100.003 746.803 101.716 726.103Z" fill="#FFBB54"/>
<path d="M-14.3077 438.607C-4.40163 441.705 5.32616 445.349 14.8311 449.52C15.3841 456.914 15.949 464.274 16.5259 471.602C7.06909 459.865 -3.23649 448.837 -14.3077 438.607Z" fill="#FFBB54"/>
<path d="M20.8051 477.024C29.7509 481.905 38.4038 487.306 46.7194 493.197C46.8304 501.053 46.9506 508.905 47.1489 516.76C39.3242 502.906 30.5206 489.627 20.8051 477.024Z" fill="#FFBB54"/>
<path d="M50.6699 523.136C58.2701 529.584 65.5018 536.454 72.3306 543.713C71.9582 552.065 71.6206 560.448 71.3177 568.863C65.5075 553.161 58.6082 537.881 50.6699 523.136Z" fill="#FFBB54"/>
<path d="M73.907 576.061C79.8759 583.727 85.4086 591.721 90.4789 600.007C89.5424 608.877 88.6385 617.813 87.7672 626.812C84.2904 609.606 79.6599 592.65 73.907 576.061Z" fill="#FFBB54"/>
<path d="M89.2738 634.674C93.4044 643.168 97.0299 651.897 100.131 660.817C98.5602 670.213 96.9825 679.7 95.3982 689.279C94.5753 670.963 92.5293 652.721 89.2738 634.674Z" fill="#FFBB54"/>
<path d="M95.6921 697.619C97.8344 706.538 99.4197 715.581 100.439 724.695C98.0991 734.597 95.6979 744.602 93.3134 754.736C95.3738 735.773 96.1685 716.692 95.6921 697.619Z" fill="#FFBB54"/>
<path d="M92.2955 763.341C92.373 772.265 91.8665 781.183 90.7792 790.039C87.5594 800.401 84.2209 810.87 80.8496 821.482C85.9437 802.377 89.7674 782.954 92.2955 763.341Z" fill="#FFBB54"/>
<path d="M-10.2159 464.944C-2.09618 468.174 5.84533 471.824 13.5875 475.825C14.1427 481.987 14.712 488.148 15.2955 494.309C7.41669 483.996 -1.10402 474.188 -10.2159 464.944Z" fill="#FFBB54"/>
<path d="M23.5687 505.622C30.7602 510.365 37.6944 515.461 44.3681 520.836C44.5818 527.501 44.829 534.189 45.1099 540.898C38.6508 528.716 31.4571 516.935 23.5687 505.622Z" fill="#FFBB54"/>
<path d="M51.8001 554.17C57.7569 560.188 63.4398 566.433 68.7451 572.943C68.5682 580.143 68.409 587.39 68.2675 594.686C63.5939 580.865 58.095 567.335 51.8001 554.17Z" fill="#FFBB54"/>
<path d="M73.0018 609.642C77.5135 616.606 81.6485 623.743 85.407 631.051C84.7046 638.802 84.0674 646.624 83.3901 654.516C80.8086 639.369 77.3399 624.385 73.0018 609.642Z" fill="#FFBB54"/>
<path d="M85.8452 670.815C88.7088 678.406 91.1466 686.098 93.2109 693.829C91.9168 702.126 90.6083 710.509 89.2854 718.977C89.066 702.871 87.9174 686.791 85.8452 670.815Z" fill="#FFBB54"/>
<path d="M89.182 736.217C90.2639 744.016 90.9423 751.865 91.2143 759.732C89.1922 768.537 87.1134 777.437 84.9779 786.43C87.3328 769.787 88.7364 753.022 89.182 736.217Z" fill="#FFBB54"/>
<path d="M-4.90469 491.862C1.07823 494.889 6.9377 498.125 12.6737 501.571C13.1978 506.304 13.7443 511.049 14.3132 515.807C8.22414 507.413 1.81817 499.431 -4.90469 491.862Z" fill="#FFBB54"/>
<path d="M27.5325 535.482C32.7172 539.609 37.7201 543.939 42.5658 548.414C42.8717 553.623 43.1402 558.863 43.4849 564.129C38.5587 554.221 33.2412 544.672 27.5325 535.482Z" fill="#FFBB54"/>
<path d="M53.9175 587.12C58.0641 592.169 62.0347 597.334 65.7682 602.64C65.729 608.353 65.702 614.107 65.6873 619.902C62.2399 608.678 58.3167 597.751 53.9175 587.12Z" fill="#FFBB54"/>
<path d="M72.6811 645.721C75.6444 651.421 78.3658 657.208 80.8452 663.08C80.3997 669.3 79.9105 675.57 79.4452 681.896C77.7267 669.623 75.472 657.564 72.6811 645.721Z" fill="#FFBB54"/>
<path d="M82.4232 709.923C84.0478 716.02 85.4221 722.144 86.546 728.292C85.5314 734.993 84.5072 741.757 83.4734 748.586C83.705 735.576 83.355 722.688 82.4232 709.923Z" fill="#FFBB54"/>
<path d="M81.9635 778.092C82.1761 784.293 82.1389 790.459 81.8519 796.59C80.1956 803.73 78.4909 810.934 76.7378 818.199C79.1015 804.812 80.8434 791.443 81.9635 778.092Z" fill="#FFBB54"/>
<path d="M1.64319 520.039C5.2882 522.33 8.87225 524.708 12.3953 527.173C12.8223 530.252 13.2741 533.34 13.7042 536.443C9.80862 530.81 5.78827 525.342 1.64319 520.039Z" fill="#FFBB54"/>
<path d="M32.5345 567.273C35.6012 570.24 38.5863 573.28 41.4897 576.394C41.7645 579.839 42.0377 583.303 42.3093 586.785C39.2206 580.131 35.9623 573.627 32.5345 567.273Z" fill="#FFBB54"/>
<path d="M56.6755 622.61C59.0144 626.125 61.2686 629.681 63.4381 633.28C63.4592 637.105 63.4932 640.952 63.5402 644.82C61.4751 637.291 59.1629 629.891 56.6755 622.61Z" fill="#FFBB54"/>
<path d="M72.4298 684.837C73.9736 688.706 75.3675 692.623 76.6913 696.546C76.4308 700.743 76.1288 704.965 75.827 709.213C74.9544 701 73.822 692.875 72.4298 684.837Z" fill="#FFBB54"/>
<path d="M78.3526 752.408C78.979 756.472 79.5136 760.537 79.908 764.6C79.215 769.14 78.5469 773.715 77.8104 778.309C78.2469 769.633 78.4277 760.999 78.3526 752.408Z" fill="#FFBB54"/>
<path d="M8.27157 549.115C9.95168 550.396 11.5944 551.724 13.2379 553.047C13.4947 554.596 13.7665 556.147 14.0082 557.709C12.139 554.797 10.2268 551.933 8.27157 549.115Z" fill="#FFBB54"/>
<path d="M37.4276 600.377C38.7781 601.985 40.1247 603.596 41.4308 605.234C41.5861 606.992 41.7871 608.752 41.9308 610.521C40.4936 607.096 38.9925 603.715 37.4276 600.377Z" fill="#FFBB54"/>
<path d="M59.0045 659.758C59.9773 661.601 60.9192 663.455 61.8606 665.31C61.8986 667.275 61.9299 669.248 61.9545 671.229C61.0231 667.377 60.0398 663.554 59.0045 659.758Z" fill="#FFBB54"/>
<path d="M71.3057 725.853C71.8561 727.841 72.3784 729.835 72.8724 731.833C72.7293 734.001 72.5876 736.175 72.4199 738.355C72.0965 734.169 71.7409 729.999 71.3057 725.853Z" fill="#FFBB54"/>
<path d="M72.8693 796.91C72.9519 798.957 73.016 800.999 73.0617 803.039C72.6715 805.382 72.3032 807.739 71.9158 810.1C72.3013 805.696 72.6011 801.298 72.8693 796.91Z" fill="#FFBB54"/>
<path d="M14.8398 579.336C14.9857 579.451 15.1209 579.579 15.2438 579.719C15.2739 579.859 15.2813 580.004 15.3224 580.143C15.1698 579.868 15.0051 579.602 14.8398 579.336Z" fill="#FFBB54"/>
<path d="M41.9789 634.967C42.0639 635.132 42.206 635.262 42.2919 635.425C42.3257 635.585 42.3428 635.747 42.3428 635.91C42.2231 635.595 42.0949 635.284 41.9789 634.967Z" fill="#FFBB54"/>
<path d="M60.5889 698.645C60.6619 698.814 60.7079 698.995 60.7964 699.158C60.7866 699.34 60.7896 699.522 60.8052 699.703C60.7377 699.35 60.659 698.999 60.5889 698.645Z" fill="#FFBB54"/>
<path d="M68.9425 768.74C68.9631 768.923 69.0189 769.1 69.0315 769.283C69.0419 769.484 68.9875 769.684 68.9852 769.885C68.9402 769.505 68.952 769.121 68.9425 768.74Z" fill="#FFBB54"/>
</g>
<defs>
<clipPath id="clip0_258_68109">
<rect width="798" height="494" fill="white" transform="translate(90.0879 826.816) rotate(-150)"/>
</clipPath>
</defs>
</svg>
