<svg width="365" height="1019" viewBox="0 0 365 1019" fill="none" xmlns="http://www.w3.org/2000/svg">
<g opacity="0.2">
<g clip-path="url(#clip0_258_67086)">
<path d="M181.237 299.516C182.462 291.684 183.93 283.852 185.639 276.021C192.408 275.219 199.114 274.593 205.758 274.145C197.269 282.248 189.096 290.706 181.237 299.516Z" fill="#FFBB54"/>
<path d="M239.019 245.423C241.686 238.053 244.58 230.73 247.701 223.452C254.288 223.911 260.791 224.476 267.193 225.245C257.565 231.574 248.173 238.3 239.019 245.423Z" fill="#FFBB54"/>
<path d="M304.393 203.437C308.361 196.808 312.491 190.232 316.878 183.788C323.086 185.384 329.179 187.125 335.158 189.01C324.753 193.409 314.473 198.195 304.393 203.437Z" fill="#FFBB54"/>
<path d="M179.809 355.11C179.908 347.511 180.237 339.879 180.796 332.215C187.11 331.038 193.371 330.023 199.579 329.169C192.657 337.527 186.09 346.207 179.809 355.11Z" fill="#FFBB54"/>
<path d="M227.033 299.135C228.576 291.766 230.365 284.41 232.344 277.065C238.561 277.04 244.699 277.171 250.76 277.458C242.578 284.338 234.669 291.564 227.033 299.135Z" fill="#FFBB54"/>
<path d="M282.648 253.229C285.535 246.369 288.637 239.567 291.954 232.821C297.885 233.915 303.723 235.121 309.452 236.474C300.326 241.691 291.392 247.276 282.648 253.229Z" fill="#FFBB54"/>
<path d="M344.611 218.743C348.668 212.631 352.972 206.643 357.423 200.73C362.904 202.839 368.276 205.038 373.524 207.358C363.763 210.755 354.126 214.55 344.611 218.743Z" fill="#FFBB54"/>
<path d="M220.901 358.991C221.267 348.782 222.134 338.517 223.417 328.231C231.682 327.641 239.811 327.351 247.804 327.36C238.257 337.397 229.275 347.957 220.901 358.991Z" fill="#FFBB54"/>
<path d="M265.291 310.192C267.629 300.344 270.367 290.515 273.602 280.776C281.585 281.656 289.387 282.807 297.009 284.23C285.959 292.286 275.37 300.953 265.291 310.192Z" fill="#FFBB54"/>
<path d="M317.031 270.681C321.138 261.553 325.71 252.565 330.661 243.72C338.141 245.976 345.401 248.487 352.45 251.173C340.274 256.983 328.447 263.497 317.031 270.681Z" fill="#FFBB54"/>
<path d="M225.063 415.565C223.394 403.32 222.432 390.99 222.181 378.636C231.801 377.338 241.237 376.509 250.488 376.15C241.107 388.682 232.611 401.852 225.063 415.565Z" fill="#FFBB54"/>
<path d="M258.388 366.007C259.139 353.771 260.587 341.588 262.727 329.518C272.111 329.956 281.243 330.798 290.122 332.044C278.755 342.603 268.15 353.952 258.388 366.007Z" fill="#FFBB54"/>
<path d="M299.618 323.563C302.721 311.823 306.468 300.264 310.842 288.937C319.733 290.994 328.317 293.397 336.595 296.148C323.632 304.396 311.275 313.558 299.618 323.563Z" fill="#FFBB54"/>
<path d="M347.372 289.597C352.615 278.796 358.452 268.293 364.858 258.139C373.035 261.676 380.87 265.489 388.363 269.578C374.23 275.249 360.53 281.939 347.372 289.597Z" fill="#FFBB54"/>
<path d="M261.337 418.216C259.881 404.961 259.315 391.624 259.643 378.296C269.244 378.178 278.844 378.582 288.402 379.506C278.377 391.678 269.327 404.621 261.337 418.216Z" fill="#FFBB54"/>
<path d="M292.3 374.88C293.483 361.705 295.531 348.623 298.429 335.719C307.616 337.271 316.714 339.313 325.684 341.835C313.689 351.94 302.526 362.991 292.3 374.88Z" fill="#FFBB54"/>
<path d="M330.33 338.008C334.044 325.439 338.566 313.122 343.867 301.137C352.417 304.235 360.804 307.77 368.993 311.727C355.41 319.422 342.48 328.212 330.33 338.008Z" fill="#FFBB54"/>
<path d="M272.757 466.17C268.91 452.947 266.062 439.456 264.238 425.811C273.696 425.231 283.182 425.228 292.643 425.804C284.88 438.67 278.228 452.174 272.757 466.17Z" fill="#FFBB54"/>
<path d="M293.9 423.735C292.798 410.111 292.693 396.425 293.585 382.788C302.698 383.833 311.739 385.437 320.657 387.591C310.707 398.841 301.754 410.935 293.9 423.735Z" fill="#FFBB54"/>
<path d="M322.266 385.788C323.889 372.323 326.478 358.994 330.014 345.902C338.567 348.487 346.962 351.567 355.158 355.126C343.32 364.368 332.314 374.628 322.266 385.788Z" fill="#FFBB54"/>
<path d="M357.074 353.645C361.301 340.882 366.423 328.434 372.404 316.393C380.225 320.353 387.819 324.746 395.15 329.553C381.768 336.442 369.026 344.504 357.074 353.645Z" fill="#FFBB54"/>
<path d="M303.47 469.266C300.036 456.041 297.643 442.569 296.312 428.975C304.953 429.608 313.543 430.821 322.022 432.607C314.766 444.254 308.558 456.521 303.47 469.266Z" fill="#FFBB54"/>
<path d="M322.462 431.907C321.771 418.363 322.133 404.787 323.544 391.301C331.702 393.362 339.716 395.962 347.53 399.084C338.186 409.235 329.795 420.222 322.462 431.907Z" fill="#FFBB54"/>
<path d="M348.093 398.473C350.135 385.169 353.187 372.04 357.222 359.2C364.735 362.575 372.031 366.415 379.067 370.697C367.91 378.986 357.542 388.284 348.093 398.473Z" fill="#FFBB54"/>
<path d="M319.851 509.611C314.569 497.953 310.21 485.901 306.812 473.565C314.407 473.934 321.969 474.82 329.444 476.218C325.301 487.055 322.091 498.226 319.851 509.611Z" fill="#FFBB54"/>
<path d="M330.182 474.324C327.416 461.933 325.618 449.347 324.805 436.679C331.98 438.281 339.038 440.367 345.933 442.922C339.768 452.905 334.497 463.413 330.182 474.324Z" fill="#FFBB54"/>
<path d="M347.022 441.179C346.862 428.577 347.657 415.982 349.401 403.502C356.033 406.23 362.479 409.388 368.7 412.956C360.636 421.69 353.381 431.136 347.022 441.179Z" fill="#FFBB54"/>
<path d="M370.125 411.432C372.518 399.149 375.829 387.063 380.029 375.277C386.027 379.004 391.789 383.097 397.283 387.533C387.51 394.644 378.419 402.644 370.125 411.432Z" fill="#FFBB54"/>
<path d="M344.249 513.113C339.932 502.546 336.395 491.679 333.666 480.598C339.646 481.866 345.532 483.544 351.282 485.619C348.18 494.573 345.828 503.769 344.249 513.113Z" fill="#FFBB54"/>
<path d="M352.727 481.611C350.706 470.472 349.498 459.201 349.114 447.889C354.629 450.067 359.992 452.614 365.166 455.512C360.285 463.843 356.124 472.574 352.727 481.611Z" fill="#FFBB54"/>
<path d="M367.414 451.789C367.746 440.554 368.882 429.359 370.812 418.288C375.798 421.277 380.593 424.576 385.168 428.164C378.576 435.51 372.636 443.415 367.414 451.789Z" fill="#FFBB54"/>
<path d="M363.565 547.379C358.544 539.257 354.047 530.822 350.104 522.127C354.684 523.16 359.189 524.5 363.589 526.139C363.064 533.208 363.056 540.307 363.565 547.379Z" fill="#FFBB54"/>
<path d="M364.342 518.67C361.162 509.769 358.552 500.675 356.528 491.444C360.713 493.153 364.781 495.133 368.707 497.373C366.723 504.352 365.264 511.471 364.342 518.67Z" fill="#FFBB54"/>
<path d="M371.016 490.033C369.795 480.74 369.153 471.381 369.093 462.01C372.844 464.31 376.456 466.832 379.908 469.56C376.421 476.145 373.448 482.99 371.016 490.033Z" fill="#FFBB54"/>
</g>
<g opacity="0.4" clip-path="url(#clip1_258_67086)" filter="url(#filter0_f_258_67086)">
<path d="M156.237 342.817C157.462 334.984 158.93 327.153 160.639 319.321C167.408 318.519 174.114 317.894 180.758 317.446C172.269 325.549 164.096 334.006 156.237 342.817Z" fill="#FFBB54"/>
<path d="M214.019 288.724C216.686 281.354 219.58 274.03 222.701 266.753C229.288 267.212 235.791 267.776 242.193 268.546C232.565 274.875 223.173 281.601 214.019 288.724Z" fill="#FFBB54"/>
<path d="M279.393 246.738C283.361 240.109 287.491 233.533 291.878 227.089C298.086 228.685 304.179 230.426 310.158 232.311C299.753 236.71 289.473 241.496 279.393 246.738Z" fill="#FFBB54"/>
<path d="M349.914 217.959C354.976 212.297 360.199 206.742 365.582 201.294C371.226 203.967 376.75 206.732 382.153 209.589C371.333 211.942 360.587 214.732 349.914 217.959Z" fill="#FFBB54"/>
<path d="M154.809 398.411C154.908 390.812 155.237 383.18 155.796 375.516C162.11 374.339 168.371 373.324 174.579 372.469C167.657 380.828 161.09 389.507 154.809 398.411Z" fill="#FFBB54"/>
<path d="M202.033 342.436C203.576 335.067 205.365 327.71 207.344 320.366C213.561 320.341 219.699 320.472 225.76 320.758C217.578 327.639 209.669 334.864 202.033 342.436Z" fill="#FFBB54"/>
<path d="M257.648 296.53C260.535 289.67 263.637 282.868 266.954 276.122C272.885 277.216 278.723 278.421 284.452 279.774C275.326 284.992 266.392 290.577 257.648 296.53Z" fill="#FFBB54"/>
<path d="M319.611 262.044C323.668 255.931 327.972 249.944 332.423 244.031C337.904 246.14 343.276 248.339 348.524 250.658C338.763 254.055 329.126 257.851 319.611 262.044Z" fill="#FFBB54"/>
<path d="M195.901 402.291C196.267 392.083 197.134 381.818 198.417 371.532C206.682 370.942 214.811 370.652 222.804 370.661C213.257 380.698 204.275 391.258 195.901 402.291Z" fill="#FFBB54"/>
<path d="M240.291 353.492C242.629 343.644 245.367 333.816 248.602 324.076C256.585 324.956 264.387 326.108 272.009 327.531C260.959 335.587 250.37 344.254 240.291 353.492Z" fill="#FFBB54"/>
<path d="M292.031 313.982C296.138 304.854 300.71 295.866 305.661 287.02C313.141 289.277 320.401 291.788 327.45 294.474C315.274 300.284 303.447 306.798 292.031 313.982Z" fill="#FFBB54"/>
<path d="M349.314 284.936C355.025 276.88 361.109 269.032 367.567 261.392C374.343 264.91 380.893 268.582 387.217 272.409C374.351 275.852 361.696 280.035 349.314 284.936Z" fill="#FFBB54"/>
<path d="M200.063 458.866C198.394 446.62 197.432 434.29 197.181 421.937C206.801 420.639 216.237 419.81 225.488 419.451C216.107 431.982 207.611 445.153 200.063 458.866Z" fill="#FFBB54"/>
<path d="M233.388 409.308C234.139 397.072 235.587 384.889 237.727 372.819C247.111 373.257 256.243 374.099 265.122 375.345C253.755 385.904 243.15 397.253 233.388 409.308Z" fill="#FFBB54"/>
<path d="M274.618 366.864C277.721 355.124 281.468 343.565 285.842 332.238C294.733 334.294 303.317 336.698 311.595 339.449C298.632 347.697 286.275 356.859 274.618 366.864Z" fill="#FFBB54"/>
<path d="M322.372 332.898C327.615 322.096 333.452 311.594 339.858 301.439C348.035 304.977 355.87 308.79 363.363 312.879C349.23 318.55 335.53 325.24 322.372 332.898Z" fill="#FFBB54"/>
<path d="M236.337 461.517C234.881 448.261 234.315 434.925 234.643 421.597C244.244 421.479 253.844 421.883 263.402 422.807C253.377 434.979 244.327 447.922 236.337 461.517Z" fill="#FFBB54"/>
<path d="M267.3 418.181C268.483 405.006 270.531 391.924 273.429 379.019C282.616 380.572 291.714 382.614 300.684 385.136C288.689 395.241 277.526 406.292 267.3 418.181Z" fill="#FFBB54"/>
<path d="M305.33 381.309C309.044 368.739 313.566 356.423 318.867 344.437C327.417 347.536 335.804 351.071 343.993 355.028C330.41 362.723 317.48 371.512 305.33 381.309Z" fill="#FFBB54"/>
<path d="M349.24 352.131C355.276 340.653 362.032 329.569 369.469 318.945C377.396 323.535 384.897 328.382 391.972 333.484C377.234 338.505 362.941 344.743 349.24 352.131Z" fill="#FFBB54"/>
<path d="M247.757 509.471C243.91 496.248 241.062 482.757 239.238 469.112C248.696 468.532 258.182 468.529 267.643 469.104C259.88 481.971 253.228 495.475 247.757 509.471Z" fill="#FFBB54"/>
<path d="M268.9 467.036C267.798 453.411 267.693 439.726 268.585 426.089C277.698 427.134 286.739 428.738 295.657 430.892C285.707 442.142 276.754 454.236 268.9 467.036Z" fill="#FFBB54"/>
<path d="M297.266 429.089C298.889 415.624 301.478 402.294 305.014 389.203C313.567 391.788 321.962 394.867 330.158 398.426C318.32 407.669 307.314 417.929 297.266 429.089Z" fill="#FFBB54"/>
<path d="M332.074 396.946C336.301 384.183 341.423 371.734 347.404 359.694C355.225 363.654 362.819 368.047 370.15 372.853C356.768 379.742 344.026 387.805 332.074 396.946Z" fill="#FFBB54"/>
<path d="M278.47 512.566C275.036 499.342 272.643 485.87 271.312 472.275C279.953 472.908 288.543 474.122 297.022 475.908C289.766 487.555 283.558 499.822 278.47 512.566Z" fill="#FFBB54"/>
<path d="M297.462 475.208C296.771 461.663 297.133 448.087 298.544 434.602C306.702 436.663 314.716 439.263 322.53 442.385C313.186 452.536 304.795 463.523 297.462 475.208Z" fill="#FFBB54"/>
<path d="M323.093 441.774C325.135 428.469 328.187 415.34 332.222 402.501C339.735 405.876 347.031 409.716 354.067 413.998C342.91 422.287 332.542 431.585 323.093 441.774Z" fill="#FFBB54"/>
<path d="M354.742 413.499C359.382 400.979 364.946 388.821 371.389 377.126C378.131 381.671 384.613 386.59 390.804 391.861C378.137 397.943 366.065 405.187 354.742 413.499Z" fill="#FFBB54"/>
<path d="M294.851 552.912C289.569 541.254 285.21 529.202 281.812 516.866C289.407 517.235 296.969 518.121 304.444 519.519C300.301 530.356 297.091 541.527 294.851 552.912Z" fill="#FFBB54"/>
<path d="M305.182 517.625C302.416 505.233 300.618 492.647 299.805 479.98C306.98 481.582 314.038 483.667 320.933 486.222C314.768 496.205 309.497 506.714 305.182 517.625Z" fill="#FFBB54"/>
<path d="M322.022 484.48C321.862 471.877 322.657 459.283 324.401 446.803C331.033 449.531 337.479 452.689 343.7 456.257C335.636 464.991 328.381 474.437 322.022 484.48Z" fill="#FFBB54"/>
<path d="M345.125 454.733C347.518 442.449 350.829 430.364 355.029 418.578C361.027 422.305 366.789 426.398 372.283 430.834C362.51 437.944 353.419 445.945 345.125 454.733Z" fill="#FFBB54"/>
<path d="M319.249 556.414C314.932 545.847 311.395 534.979 308.666 523.898C314.646 525.167 320.532 526.845 326.282 528.92C323.18 537.874 320.828 547.07 319.249 556.414Z" fill="#FFBB54"/>
<path d="M327.727 524.912C325.706 513.772 324.498 502.502 324.114 491.19C329.629 493.368 334.992 495.915 340.166 498.813C335.285 507.143 331.124 515.875 327.727 524.912Z" fill="#FFBB54"/>
<path d="M342.414 495.09C342.746 483.855 343.882 472.659 345.812 461.589C350.798 464.578 355.593 467.877 360.168 471.464C353.576 478.811 347.636 486.715 342.414 495.09Z" fill="#FFBB54"/>
<path d="M363.189 468.19C365.834 457.342 369.228 446.691 373.346 436.314C377.763 440.013 381.973 443.951 385.958 448.111C377.784 454.111 370.164 460.831 363.189 468.19Z" fill="#FFBB54"/>
<path d="M338.565 590.68C333.544 582.557 329.047 574.123 325.104 565.428C329.684 566.461 334.189 567.801 338.589 569.44C338.064 576.509 338.056 583.608 338.565 590.68Z" fill="#FFBB54"/>
<path d="M339.342 561.971C336.162 553.069 333.552 543.976 331.528 534.745C335.713 536.454 339.781 538.434 343.707 540.673C341.723 547.653 340.264 554.772 339.342 561.971Z" fill="#FFBB54"/>
<path d="M346.016 533.334C344.795 524.041 344.153 514.682 344.093 505.311C347.844 507.611 351.456 510.132 354.908 512.861C351.421 519.446 348.448 526.29 346.016 533.334Z" fill="#FFBB54"/>
<path d="M358.81 505.974C359.571 496.698 360.894 487.478 362.773 478.364C366.091 481.157 369.253 484.131 372.243 487.272C367.274 493.138 362.782 499.392 358.81 505.974Z" fill="#FFBB54"/>
<path d="M355.993 595.607C352.502 589.295 349.333 582.812 346.496 576.181C349.345 577.497 352.114 578.978 354.789 580.618C354.883 585.634 355.285 590.64 355.993 595.607Z" fill="#FFBB54"/>
<path d="M355.105 569.242C353.06 562.419 351.356 555.494 349.994 548.468C352.506 550.153 354.922 551.976 357.231 553.93C356.201 558.984 355.491 564.098 355.105 569.242Z" fill="#FFBB54"/>
<path d="M360.13 542.572C359.597 535.534 359.407 528.466 359.562 521.37C361.793 523.412 363.874 525.505 365.804 527.652C363.587 532.495 361.692 537.48 360.13 542.572Z" fill="#FFBB54"/>
<path d="M369.017 602.436C367.042 598.321 365.199 594.148 363.488 589.916C364.873 591.037 366.201 592.187 367.446 593.389C367.846 596.433 368.369 599.449 369.017 602.436Z" fill="#FFBB54"/>
<path d="M366.595 577.488C365.561 573.1 364.67 568.678 363.921 564.223C365.091 565.481 366.192 566.765 367.225 568.074C366.868 571.211 366.663 574.355 366.595 577.488Z" fill="#FFBB54"/>
<path d="M370.311 551.953C370.258 547.486 370.333 543.012 370.567 538.543C371.543 539.906 372.459 541.28 373.314 542.664C372.172 545.728 371.171 548.824 370.311 551.953Z" fill="#FFBB54"/>
</g>
</g>
<defs>
<filter id="filter0_f_258_67086" x="-81.0005" y="-110.699" width="1246.09" height="1134.82" filterUnits="userSpaceOnUse" color-interpolation-filters="sRGB">
<feFlood flood-opacity="0" result="BackgroundImageFix"/>
<feBlend mode="normal" in="SourceGraphic" in2="BackgroundImageFix" result="shape"/>
<feGaussianBlur stdDeviation="77" result="effect1_foregroundBlur_258_67086"/>
</filter>
<clipPath id="clip0_258_67086">
<rect width="798" height="494" fill="white" transform="translate(789.088 826.816) rotate(-150)"/>
</clipPath>
<clipPath id="clip1_258_67086">
<rect width="798" height="494" fill="white" transform="translate(764.088 870.117) rotate(-150)"/>
</clipPath>
</defs>
</svg>
